<?xml version="1.0" encoding="utf-8"?>
<!-- Generator: Adobe Illustrator 16.0.0, SVG Export Plug-In . SVG Version: 6.00 Build 0)  -->
<!DOCTYPE svg PUBLIC "-//W3C//DTD SVG 1.1//EN" "http://www.w3.org/Graphics/SVG/1.1/DTD/svg11.dtd">
<svg version="1.1" id="Capa_1" xmlns="http://www.w3.org/2000/svg" xmlns:xlink="http://www.w3.org/1999/xlink" x="0px" y="0px"
	 width="255.355px" height="168.662px" viewBox="0 0 255.355 168.662" enable-background="new 0 0 255.355 168.662"
	 xml:space="preserve">
<g>
	<ellipse fill-rule="evenodd" clip-rule="evenodd" fill="#42210B" cx="127.678" cy="82.801" rx="127.678" ry="50.688"/>
	<g>
		<g>
			<g>
				<path fill-rule="evenodd" clip-rule="evenodd" fill="#FE6565" d="M99.238,166.662c-1.268,0-2.473-0.61-3.224-1.63
					l-30.812-41.889c-1.306-1.774-0.925-4.283,0.851-5.591L90.22,99.775c0.692-0.509,1.51-0.778,2.368-0.778
					c1.268,0,2.474,0.609,3.225,1.63l30.812,41.888c1.307,1.778,0.924,4.287-0.852,5.593l-24.166,17.775
					C100.915,166.393,100.096,166.662,99.238,166.662z"/>
				<path fill="#EFE3D2" d="M92.588,100.997c0.615,0,1.221,0.282,1.613,0.815l30.813,41.888c0.654,0.891,0.464,2.143-0.426,2.797
					l-24.166,17.775c-0.357,0.263-0.772,0.39-1.184,0.39c-0.615,0-1.221-0.283-1.613-0.815l-30.812-41.889
					c-0.654-0.889-0.464-2.141,0.426-2.796l24.166-17.776C91.762,101.124,92.177,100.997,92.588,100.997 M92.588,96.997
					L92.588,96.997c-1.287,0-2.515,0.403-3.553,1.167L64.869,115.94c-2.666,1.963-3.238,5.727-1.277,8.39l30.811,41.887
					c1.126,1.531,2.934,2.445,4.835,2.445c1.287,0,2.517-0.404,3.555-1.167l24.166-17.775c2.664-1.959,3.238-5.722,1.279-8.387
					l-30.814-41.89C96.297,97.911,94.49,96.997,92.588,96.997L92.588,96.997z"/>
			</g>
			
				<rect x="87.187" y="123.729" transform="matrix(0.1506 -0.9886 0.9886 0.1506 -49.3343 205.4174)" fill-rule="evenodd" clip-rule="evenodd" fill="#F7E6D5" width="15.379" height="15.381"/>
		</g>
		<g>
			<g>
				<path fill-rule="evenodd" clip-rule="evenodd" fill="#FE6565" d="M105.51,158.61c-1.717,0-3.239-1.093-3.789-2.719
					l-16.666-49.256c-0.343-1.012-0.271-2.098,0.203-3.056c0.474-0.958,1.292-1.673,2.306-2.016l28.416-9.615
					c0.416-0.14,0.847-0.211,1.282-0.211c1.716,0,3.239,1.092,3.79,2.718l16.665,49.256c0.707,2.087-0.417,4.362-2.504,5.072
					l-28.42,9.615C106.376,158.539,105.945,158.61,105.51,158.61z"/>
				<path fill="#EFE3D2" d="M117.261,93.737c0.834,0,1.612,0.525,1.895,1.36l16.665,49.256c0.354,1.047-0.207,2.182-1.253,2.537
					l-28.418,9.614c-0.212,0.072-0.428,0.106-0.641,0.106c-0.834,0-1.613-0.526-1.895-1.36l-16.666-49.257
					c-0.354-1.047,0.207-2.182,1.254-2.535l28.417-9.615C116.833,93.771,117.049,93.737,117.261,93.737 M117.261,89.737
					c-0.653,0-1.3,0.106-1.921,0.316l-28.419,9.616c-1.517,0.512-2.745,1.586-3.456,3.023s-0.819,3.065-0.305,4.584l16.666,49.256
					c0.824,2.438,3.108,4.078,5.684,4.078c0.653,0,1.299-0.106,1.92-0.316l28.42-9.615c3.136-1.066,4.82-4.479,3.76-7.609
					l-16.665-49.255C122.119,91.375,119.835,89.737,117.261,89.737L117.261,89.737z"/>
			</g>
			
				<rect x="103.134" y="115.825" transform="matrix(0.4431 -0.8964 0.8964 0.4431 -49.012 168.1276)" fill-rule="evenodd" clip-rule="evenodd" fill="#F7E6D5" width="15.38" height="15.38"/>
		</g>
		<g>
			<g>
				<path fill-rule="evenodd" clip-rule="evenodd" fill="#FE6565" d="M113.664,155.002c-2.073,0-3.825-1.62-3.988-3.688
					l-4.043-51.844c-0.082-1.066,0.255-2.1,0.949-2.911c0.695-0.813,1.666-1.306,2.733-1.387l29.904-2.334
					c0.105-0.008,0.21-0.012,0.313-0.012c2.072,0,3.823,1.62,3.986,3.687l4.043,51.846c0.169,2.197-1.479,4.125-3.676,4.298
					l-29.911,2.333C113.87,154.998,113.767,155.002,113.664,155.002z"/>
				<path fill="#EFE3D2" d="M139.533,94.827c1.034,0,1.91,0.795,1.992,1.844l4.043,51.844c0.085,1.1-0.737,2.063-1.839,2.149
					l-29.909,2.332c-0.052,0.004-0.104,0.006-0.156,0.006c-1.035,0-1.911-0.795-1.994-1.845l-4.043-51.842
					c-0.085-1.102,0.737-2.064,1.84-2.148l29.908-2.334C139.428,94.829,139.48,94.827,139.533,94.827 M139.533,90.827
					c-0.155,0-0.312,0.006-0.469,0.019l-29.909,2.334c-1.594,0.121-3.05,0.86-4.093,2.08c-1.042,1.217-1.547,2.767-1.424,4.364
					l4.043,51.845c0.245,3.104,2.872,5.534,5.982,5.534c0.153,0,0.308-0.006,0.463-0.018l29.913-2.333
					c3.297-0.26,5.771-3.151,5.516-6.445l-4.043-51.847C145.269,93.256,142.642,90.827,139.533,90.827L139.533,90.827z"/>
			</g>
			
				<rect x="118.771" y="114.479" transform="matrix(0.65 -0.76 0.76 0.65 -48.5785 138.8668)" fill-rule="evenodd" clip-rule="evenodd" fill="#F7E6D5" width="15.379" height="15.379"/>
		</g>
		<g>
			<g>
				<path fill-rule="evenodd" clip-rule="evenodd" fill="#FE6565" d="M150.576,156.546c-0.149,0-0.3-0.008-0.451-0.025l-29.81-3.368
					c-2.192-0.25-3.774-2.234-3.526-4.424l5.84-51.671c0.229-2.023,1.936-3.549,3.97-3.549c0.151,0,0.304,0.008,0.458,0.026
					l29.805,3.367c2.192,0.25,3.773,2.234,3.526,4.424l-5.84,51.67C154.319,155.02,152.611,156.546,150.576,156.546z"/>
				<path fill="#EFE3D2" d="M126.598,95.507c0.076,0,0.153,0.004,0.23,0.013l29.809,3.367c1.099,0.125,1.888,1.113,1.764,2.213
					l-5.84,51.67c-0.115,1.021-0.98,1.775-1.985,1.775c-0.075,0-0.151-0.004-0.227-0.013l-29.81-3.368
					c-1.099-0.125-1.888-1.114-1.764-2.213l5.84-51.671C124.73,96.262,125.594,95.507,126.598,95.507 M126.598,91.507
					L126.598,91.507c-3.053,0-5.614,2.289-5.958,5.324l-5.84,51.671c-0.371,3.286,2,6.263,5.286,6.637l29.813,3.368
					c0.225,0.025,0.452,0.038,0.676,0.038c3.054,0,5.617-2.29,5.959-5.326l5.84-51.67c0.371-3.286-2.001-6.263-5.286-6.637
					l-29.812-3.367C127.057,91.521,126.826,91.507,126.598,91.507L126.598,91.507z"/>
			</g>
			
				<rect x="131.094" y="115.596" transform="matrix(0.782 -0.6233 0.6233 0.782 -46.5865 113.3754)" fill-rule="evenodd" clip-rule="evenodd" fill="#F7E6D5" width="15.38" height="15.38"/>
		</g>
		<g>
			<g>
				<path fill-rule="evenodd" clip-rule="evenodd" fill="#FE6565" d="M157.394,163.934c-0.528,0-1.044-0.104-1.534-0.307
					l-27.696-11.531c-2.036-0.85-3.002-3.196-2.156-5.23l19.987-48.006c0.621-1.495,2.07-2.461,3.689-2.461
					c0.532,0,1.052,0.104,1.545,0.311l27.69,11.524c2.035,0.851,3.001,3.196,2.158,5.229l-19.987,48.008
					C160.465,162.967,159.015,163.934,157.394,163.934z"/>
				<path fill="#EFE3D2" d="M149.683,98.398c0.257,0,0.52,0.05,0.772,0.156l27.694,11.526c1.021,0.427,1.503,1.595,1.079,2.616
					l-19.986,48.006c-0.32,0.769-1.064,1.232-1.848,1.232c-0.257,0-0.517-0.049-0.768-0.154l-27.695-11.53
					c-1.02-0.426-1.503-1.595-1.078-2.616l19.986-48.006C148.159,98.861,148.901,98.398,149.683,98.398 M149.684,94.398
					L149.684,94.398c-2.431,0-4.604,1.45-5.537,3.694l-19.986,48.004c-1.27,3.053,0.18,6.571,3.229,7.845l27.7,11.532
					c0.736,0.306,1.511,0.461,2.305,0.461c2.431,0,4.605-1.45,5.54-3.693l19.986-48.007c1.268-3.053-0.182-6.57-3.229-7.844
					l-27.7-11.529C151.262,94.555,150.482,94.398,149.684,94.398L149.684,94.398z"/>
			</g>
			
				<rect x="146.524" y="120.86" transform="matrix(0.9246 -0.381 0.381 0.9246 -37.3479 68.459)" fill-rule="evenodd" clip-rule="evenodd" fill="#F7E6D5" width="15.38" height="15.378"/>
		</g>
	</g>
	<g>
		<path fill-rule="evenodd" clip-rule="evenodd" fill="#F9C42D" d="M115.128,0c6.901,0,13.803,0,20.704,0
			c0.692,0.818,0.695,0.801,1.861,0.992c5.216,0.854,10.194,2.4,14.719,5.195c4.479,2.765,7.115,6.48,6.035,12.045
			c-1.134,1.455-2.268,2.911-3.401,4.367c-1.327,1.009-2.656,2.018-3.984,3.026c-0.674,0.048-0.966,0.646-1.428,0.997
			c-1.138,0.215-2.151,0.686-3.023,1.453c-0.643,0.184-1.284,0.367-1.926,0.549c-0.821,0.313-1.643,0.623-2.465,0.935
			c-1.314,0.343-2.628,0.688-3.941,1.032c-0.85,0.024-1.743-0.203-2.486,0.43c-1.334,0.096-2.72-0.166-3.96,0.574
			c-1.288-0.003-2.575-0.004-3.863-0.007c-1.593,0.728-3.28,0.38-4.933,0.434c-1.063-0.795-2.287-0.357-3.443-0.45
			c-1.433-0.627-3.201,0.35-4.496-0.941c-0.812-0.02-1.623-0.037-2.435-0.055c-1.208,0.229-2.176-1.154-3.445-0.514
			c-0.667-1.135-1.893-1.142-2.961-1.464c-0.569-0.016-1.129-0.062-1.55-0.518c-1.051-0.771-2.254-1.202-3.483-1.577
			c-1.058-0.268-1.685-1.095-2.379-1.834c-0.813-0.532-1.624-1.063-2.437-1.596c-1.351-1.723-2.914-3.293-3.822-5.334
			c-0.678-4.195,0.797-7.476,4.112-10.08c4.903-3.854,10.642-5.543,16.623-6.688C113.975,0.848,115.112,1.392,115.128,0z
			 M135.358,25.627c6.129-0.505,11.707-2.42,16.255-6.691c2.57-2.414,2.485-4.723,0.117-7.247c-2.082-2.219-4.711-3.548-7.448-4.667
			c-8.025-3.279-16.481-3.616-24.919-2.913c-6.629,0.552-13.089,2.181-18.632,6.289c-4.125,3.058-4.131,6.669-0.05,9.747
			c3.698,2.787,8.021,4.029,12.332,5.344c0.764,0.233,1.455-0.029,2.141-0.32c0.296,0.266,0.564,0.723,0.893,0.77
			C122.498,26.865,128.945,27.17,135.358,25.627z"/>
		<path fill-rule="evenodd" clip-rule="evenodd" fill="#FAC52D" d="M159.987,44.366c0,1.644,0,3.286,0,4.929
			c-0.89,0.438-1.22,1.315-1.521,2.139c-0.489,1.339-1.156,2.491-2.43,3.215c-0.995,0.842-1.991,1.688-2.986,2.531
			c-0.643,0.32-1.286,0.641-1.929,0.961c-1.193,0.662-2.387,1.322-3.58,1.982c-0.459,0.184-0.919,0.364-1.378,0.546
			c-1.094-0.026-2.08,0.3-2.978,0.913c-1.046,0.638-2.438,0.116-3.403,1.018c-1.197-0.088-2.407-0.266-3.484,0.49
			c-1.484,0.095-3.025-0.283-4.425,0.523c-0.97,0.003-1.938,0.006-2.908,0.01c-1.44,0.711-3,0.359-4.503,0.511
			c-1.372-0.702-2.835-1.006-4.368-1.006c-0.978-0.016-1.956-0.031-2.935-0.047c-0.844-0.798-2.092-0.274-2.983-0.913
			c-1.17-0.246-2.345-0.207-3.52-0.047c-0.471-1.484-1.835-1.255-2.937-1.529c-0.715-0.648-1.611-0.368-2.432-0.473
			c-0.329-1.315-1.396-1.4-2.466-1.48l-0.005,0.016c-0.17-0.182-0.34-0.364-0.51-0.547c-0.629-0.318-1.258-0.637-1.886-0.955
			c-0.768-1.111-1.802-1.887-3.031-2.418c-0.989-1.48-1.977-2.964-2.966-4.445c1.137-0.838,1.882,0.832,2.946,0.459
			c0.64,0.766,1.506,0.994,2.449,1.04c0.893,0.623,1.879,0.952,2.972,0.94c0.497,0.178,0.994,0.354,1.492,0.531
			c2.349,1.748,5.055,2.697,7.845,3.416c8.614,2.221,17.329,2.672,26.044,0.861c5.461-1.135,10.873-2.604,14.907-6.968
			c2.556-2.765,1.975-5.992-1.519-7.761c0.549-1.646,1.097-3.291,1.646-4.938c2.171,1.025,3.761,2.696,5.237,4.54
			C158.963,43.059,158.735,44.313,159.987,44.366z"/>
		<path fill-rule="evenodd" clip-rule="evenodd" fill="#FCD648" d="M86.043,24.648c1.029,0.784,0.912-0.398,1.13-0.74
			c1.326-2.077,3.005-3.75,5.206-4.882c0.021,2.276,0.023,4.556,0.063,6.832c0.051,2.889,0.817,5.458,3.329,7.218
			c0.888,1.008,1.658,2.161,3.092,2.491c0.561,0.885,1.472,1.188,2.407,1.452c0.691,0.709,1.628,0.961,2.498,1.336
			c0.664,0.191,1.328,0.385,1.991,0.577c0.999,0.827,2.208,0.991,3.438,1.087c1.097,0.535,2.252,0.836,3.475,0.859
			c0.743,0.52,1.575,0.574,2.438,0.479c1.79,0.48,3.605,0.672,5.456,0.494c0.731,0.544,1.56,0.594,2.421,0.479
			c1.661,0,3.32,0,4.981,0c0.974-0.157,1.947-0.316,2.922-0.476c1.335-0.006,2.704,0.287,3.952-0.461
			c0.639,0.035,1.276,0.069,2.252,0.122c-0.693,0.424-1.015,0.62-1.336,0.817c-1.298,0.37-2.599,0.741-3.898,1.11
			c-0.866-0.071-1.74-0.188-2.518,0.364c-1.621,0.199-3.241,0.398-4.862,0.598c-0.974,0.012-1.947,0.023-2.921,0.036
			c-1.691-0.35-3.269,0.654-4.95,0.418c-0.735-0.608-1.585-0.416-2.417-0.349c-1.684-0.054-3.285-0.809-5.002-0.584
			c-0.148-0.043-0.301-0.069-0.455-0.08c-0.16-0.104-0.32-0.207-0.48-0.313c-0.659-0.029-1.317-0.059-1.977-0.088
			c-1.095-0.588-2.299-0.781-3.506-0.965c-0.973-0.238-1.945-0.478-2.92-0.715c-0.561-0.863-1.488-0.855-2.357-0.988
			c-0.719-0.729-1.627-1.107-2.584-1.393c-0.558-0.885-1.472-1.199-2.396-1.499c-0.656-0.505-1.312-1.011-1.967-1.516
			c-1.983-1.757-3.053-4.167-4.506-6.302C86.043,28.263,86.043,26.455,86.043,24.648z"/>
		<path fill-rule="evenodd" clip-rule="evenodd" fill="#E3AE18" d="M136.841,73.064c-0.228,0.26-1.121,0.131-0.516,0.879
			c-1.479,0-2.957,0-4.437,0c-0.006-3.443-0.011-6.887-0.016-10.33c1.4-0.807,2.941-0.429,4.427-0.523
			c0.695,0.729,0.516,1.648,0.523,2.514C136.844,68.09,136.837,70.578,136.841,73.064z"/>
		<path fill-rule="evenodd" clip-rule="evenodd" fill="#E3AE18" d="M117.101,73.943c0.619-0.766-0.245-0.64-0.521-0.867
			c0.009-1.046-0.058-2.1,0.041-3.139c0.219-2.283-0.612-4.649,0.54-6.857c0.979,0.017,1.957,0.032,2.935,0.048
			c1.146,0.575,1.522,1.477,1.477,2.767c-0.096,2.68-0.033,5.365-0.034,8.049C120.058,73.943,118.579,73.943,117.101,73.943z"/>
		<path fill-rule="evenodd" clip-rule="evenodd" fill="#E3AE18" d="M124.463,64.134c1.503-0.151,3.063,0.2,4.503-0.512
			c0.969,3.404,0.225,6.885,0.458,10.321c-1.644,0-3.286,0-4.93,0C124.483,70.674,124.473,67.404,124.463,64.134z"/>
		<path fill-rule="evenodd" clip-rule="evenodd" fill="#E1AC18" d="M86.043,30.07c1.453,2.135,2.522,4.545,4.506,6.302
			c-0.835,0.977-0.455,2.161-0.567,3.263c-0.213,2.063,0.514,4.197-0.47,6.201c-1.133-0.738-1.719-1.914-2.408-3.008
			c-0.247-0.392-0.354-1.152-1.061-0.434C86.043,38.285,86.043,34.178,86.043,30.07z"/>
		<path fill-rule="evenodd" clip-rule="evenodd" fill="#E1AC18" d="M159.987,61.127c-1.314-0.307-1.011,1-1.459,1.528
			c-0.771,0.911-1.412,1.931-2.418,2.624c-0.024-3.544-0.049-7.088-0.073-10.631c1.273-0.724,1.94-1.876,2.43-3.215
			c0.301-0.823,0.631-1.701,1.521-2.139C159.987,53.239,159.987,57.182,159.987,61.127z"/>
		<path fill-rule="evenodd" clip-rule="evenodd" fill="#CF9B13" d="M124.463,64.134c0.01,3.271,0.021,6.54,0.031,9.81
			c-0.986,0-1.972,0-2.957,0c0.001-2.684-0.062-5.369,0.034-8.049c0.046-1.29-0.331-2.191-1.477-2.767
			C121.628,63.128,123.091,63.432,124.463,64.134z"/>
		<path fill-rule="evenodd" clip-rule="evenodd" fill="#CD9912" d="M129.424,73.943c-0.233-3.437,0.511-6.917-0.458-10.321
			c0.97-0.003,1.938-0.006,2.908-0.009c0.004,3.443,0.009,6.887,0.015,10.33C131.067,73.943,130.245,73.943,129.424,73.943z"/>
		<path fill-rule="evenodd" clip-rule="evenodd" fill="#FED848" d="M115.154,25.168c-0.686,0.291-1.377,0.554-2.141,0.32
			c-4.312-1.314-8.634-2.557-12.332-5.344c-4.081-3.078-4.075-6.689,0.05-9.747c5.543-4.108,12.003-5.737,18.632-6.289
			c8.438-0.703,16.894-0.366,24.919,2.913c2.737,1.119,5.366,2.448,7.448,4.667c2.368,2.524,2.453,4.833-0.117,7.247
			c-4.548,4.271-10.126,6.187-16.255,6.691c-1.415-0.628-2.861-1.196-4.236-1.902c-1.069-0.549-1.899-1.533-0.502-2.402
			c1.752-1.088,2.685-2.799,4.019-4.193c1.419-1.483,0.832-2.277-0.198-3.459c-1.88-2.154-4.174-3.129-7.003-3.543
			c-2.428-0.354-4.939,0.212-7.289-0.771c-0.518-0.217-0.887-0.041-1.096,0.584c-0.539,1.611-1.825,2.664-3.021,3.766
			c-0.891,0.819-1.343,1.834-0.527,2.807c1.286,1.533,2.017,3.51,4.016,4.502c1.646,0.817,1.246,2.014-0.199,2.699
			C117.999,24.34,116.548,24.693,115.154,25.168z"/>
		<path fill-rule="evenodd" clip-rule="evenodd" fill="#EFC31B" d="M115.154,25.168c1.394-0.475,2.845-0.828,4.166-1.455
			c1.445-0.686,1.846-1.882,0.199-2.699c-1.999-0.992-2.729-2.969-4.016-4.502c-0.815-0.973-0.363-1.987,0.527-2.807
			c1.196-1.102,2.482-2.154,3.021-3.766c0.209-0.625,0.578-0.801,1.096-0.584c2.35,0.983,4.861,0.418,7.289,0.771
			c2.829,0.414,5.123,1.389,7.003,3.543c1.03,1.182,1.617,1.976,0.198,3.459c-1.334,1.395-2.267,3.105-4.019,4.193
			c-1.397,0.869-0.567,1.854,0.502,2.402c1.375,0.706,2.821,1.274,4.236,1.902c-6.413,1.543-12.86,1.238-19.312,0.311
			C115.719,25.891,115.45,25.434,115.154,25.168z"/>
		<path fill-rule="evenodd" clip-rule="evenodd" fill="#E2AE18" d="M138.278,30.592c1.313-0.345,2.627-0.689,3.941-1.031
			c0.007,1.805,0.155,3.623-0.021,5.409c-0.182,1.829,1.149,4.28-1.806,5.187c-0.104,0.031-0.194,0.443-0.134,0.627
			c1.075,3.285,0.254,6.663,0.5,9.987c-0.702,0.636-1.573,0.835-2.475,0.957C138.283,44.682,138.28,37.637,138.278,30.592z"/>
		<path fill-rule="evenodd" clip-rule="evenodd" fill="#E1AC18" d="M120.567,41.852c-1.851,0.178-3.666-0.014-5.456-0.494
			c-0.005-3.574-0.01-7.15-0.015-10.727c1.295,1.291,3.063,0.314,4.495,0.941c0.83,0.7,0.985,1.617,0.97,2.653
			C120.526,36.767,120.561,39.309,120.567,41.852z"/>
		<path fill-rule="evenodd" clip-rule="evenodd" fill="#CD9912" d="M138.278,30.592c0.002,7.045,0.005,14.09,0.007,21.136
			c-0.825,0.237-1.649,0.475-2.473,0.711c-0.019-3.368-0.036-6.736-0.053-10.104c0.321-0.197,0.643-0.394,1.336-0.817
			c-0.976-0.053-1.613-0.087-2.252-0.122c0.808-0.686,1.022-1.566,1-2.602c-0.057-2.59-0.039-5.182-0.052-7.771
			C136.535,30.389,137.429,30.616,138.278,30.592z"/>
		<path fill-rule="evenodd" clip-rule="evenodd" fill="#E2AE18" d="M152.125,35.547c-0.089,0.984-0.189,1.974,1.083,2.324
			c-0.549,1.646-1.097,3.292-1.645,4.938c-1.046,0.947-1.583,2.367-2.879,3.078c0.146-3.317-0.148-6.584,0.755-9.951
			c0.779-2.914,0.183-6.193,0.194-9.313c0.462-0.352,0.754-0.949,1.429-0.997c1.198,0.309,1.032,1.289,1.039,2.159
			C152.121,30.373,152.119,32.959,152.125,35.547z"/>
		<path fill-rule="evenodd" clip-rule="evenodd" fill="#CD9912" d="M140.759,50.771c-0.246-3.324,0.575-6.702-0.5-9.987
			c-0.061-0.184,0.029-0.596,0.134-0.627c2.955-0.906,1.624-3.357,1.806-5.187c0.177-1.786,0.028-3.604,0.021-5.409
			c0.822-0.313,1.644-0.623,2.466-0.936c0.006,2.374,0.035,4.748,0.01,7.121c-0.012,1.052,0.459,2.43-0.279,3.093
			c-1.575,1.416-1.129,3.115-1.174,4.767c-0.056,2.045-0.021,4.092-0.024,6.138C142.397,50.086,141.578,50.428,140.759,50.771z"/>
		<path fill-rule="evenodd" clip-rule="evenodd" fill="#CF9B13" d="M149.634,26.623c-0.012,3.119,0.585,6.398-0.194,9.313
			c-0.903,3.367-0.609,6.634-0.755,9.951c-0.597,0.933-1.499,1.485-2.456,1.97c-0.885-3.037-0.971-6.114,0.107-9.079
			c1.3-3.574,1.13-7.109,0.274-10.701C147.482,27.309,148.496,26.838,149.634,26.623z"/>
		<path fill-rule="evenodd" clip-rule="evenodd" fill="#E3AE18" d="M127.97,42.331c-1.661,0-3.32,0-4.98,0.001
			c0.016-3.437,0.031-6.873,0.047-10.31c1.652-0.054,3.34,0.294,4.933-0.434C127.969,35.169,127.97,38.75,127.97,42.331z"/>
		<path fill-rule="evenodd" clip-rule="evenodd" fill="#E2AE18" d="M135.792,31.021c0.013,2.59-0.005,5.182,0.052,7.771
			c0.022,1.035-0.192,1.916-1,2.602c-1.248,0.748-2.617,0.455-3.952,0.461c0.001-2.535,0.027-5.07-0.008-7.606
			c-0.015-1.026,0.111-1.954,0.948-2.653C133.072,30.855,134.458,31.117,135.792,31.021z"/>
		<path fill-rule="evenodd" clip-rule="evenodd" fill="#E2AE18" d="M146.61,28.076c0.855,3.592,1.025,7.127-0.274,10.701
			c-1.078,2.965-0.992,6.042-0.107,9.078c-0.751,1.031-1.94,1.367-3.011,1.888c0.004-2.046-0.031-4.093,0.024-6.138
			c0.045-1.651-0.401-3.351,1.174-4.767c0.738-0.663,0.268-2.041,0.279-3.093c0.025-2.373-0.004-4.747-0.01-7.121
			C145.326,28.443,145.968,28.26,146.61,28.076z"/>
		<path fill-rule="evenodd" clip-rule="evenodd" fill="#E1AC18" d="M95.771,33.076c-2.512-1.76-3.278-4.329-3.329-7.218
			c-0.04-2.276-0.043-4.556-0.063-6.832c0.068-0.429,0.137-0.856,0.206-1.285c0.908,2.04,2.472,3.61,3.822,5.335
			c-0.005,1.373,0.093,2.756-0.036,4.117C96.183,29.154,97.031,31.228,95.771,33.076z"/>
		<path fill-rule="evenodd" clip-rule="evenodd" fill="#E3AE18" d="M112.673,40.879c-1.223-0.023-2.378-0.324-3.475-0.859
			c0.006-3.32,0.013-6.639,0.019-9.957c1.27-0.641,2.237,0.742,3.445,0.514C112.666,34.01,112.669,37.444,112.673,40.879z"/>
		<path fill-rule="evenodd" clip-rule="evenodd" fill="#E1AC18" d="M158.447,18.232c0.187,4.004,0.937,8.057-0.923,11.894
			c-0.454,0.937-0.996,1.849-1.912,2.444c-0.707-0.719-0.546-1.637-0.552-2.506c-0.018-2.488-0.011-4.977-0.015-7.465
			C156.18,21.144,157.313,19.688,158.447,18.232z"/>
		<path fill-rule="evenodd" clip-rule="evenodd" fill="#CF9B13" d="M155.046,22.6c0.004,2.488-0.003,4.977,0.015,7.465
			c0.006,0.869-0.155,1.787,0.552,2.506c-0.886,1.317-2.012,2.352-3.487,2.977c-0.006-2.588-0.004-5.174-0.023-7.762
			c-0.007-0.87,0.159-1.851-1.039-2.159C152.39,24.617,153.719,23.608,155.046,22.6z"/>
		<path fill-rule="evenodd" clip-rule="evenodd" fill="#CF9B13" d="M109.217,30.063c-0.006,3.318-0.013,6.637-0.019,9.957
			c-1.23-0.096-2.439-0.26-3.438-1.087c1.056-3.401,0.258-6.893,0.496-10.334C107.324,28.921,108.55,28.928,109.217,30.063z"/>
		<path fill-rule="evenodd" clip-rule="evenodd" fill="#CF9B13" d="M131.832,31.596c-0.837,0.699-0.963,1.627-0.948,2.653
			c0.035,2.536,0.009,5.071,0.008,7.606c-0.975,0.159-1.948,0.318-2.922,0.476c0-3.581-0.001-7.162-0.001-10.742
			C129.257,31.592,130.544,31.593,131.832,31.596z"/>
		<path fill-rule="evenodd" clip-rule="evenodd" fill="#CD9912" d="M95.771,33.076c1.26-1.849,0.411-3.922,0.6-5.883
			c0.129-1.361,0.031-2.744,0.036-4.117c0.813,0.531,1.624,1.062,2.437,1.594c0.008,3.633,0.013,7.266,0.02,10.898
			C97.43,35.237,96.659,34.084,95.771,33.076z"/>
		<path fill-rule="evenodd" clip-rule="evenodd" fill="#CD9912" d="M103.769,38.355c-0.87-0.375-1.807-0.627-2.498-1.336
			c-0.015-3.506-0.031-7.01-0.048-10.516c1.229,0.375,2.433,0.807,3.484,1.577c-1.126,0.423-0.898,1.41-0.908,2.268
			C103.771,33.018,103.776,35.686,103.769,38.355z"/>
		<path fill-rule="evenodd" clip-rule="evenodd" fill="#CD9912" d="M123.036,32.022c-0.016,3.437-0.031,6.873-0.047,10.31
			c-0.862,0.113-1.69,0.063-2.422-0.48c-0.007-2.543-0.041-5.085-0.006-7.626c0.016-1.036-0.14-1.953-0.97-2.653
			C120.749,31.665,121.973,31.228,123.036,32.022z"/>
		<path fill-rule="evenodd" clip-rule="evenodd" fill="#CD9912" d="M112.673,40.879c-0.004-3.435-0.007-6.869-0.011-10.303
			c0.812,0.018,1.623,0.035,2.435,0.055c0.005,3.576,0.01,7.152,0.015,10.727C114.248,41.453,113.416,41.398,112.673,40.879z"/>
		<path fill-rule="evenodd" clip-rule="evenodd" fill="#E3AE18" d="M101.223,26.504c0.017,3.506,0.033,7.01,0.048,10.516
			c-0.936-0.264-1.847-0.567-2.407-1.452c-0.007-3.632-0.012-7.265-0.02-10.897C99.538,25.409,100.165,26.236,101.223,26.504z"/>
		<path fill-rule="evenodd" clip-rule="evenodd" fill="#E1AC18" d="M103.769,38.355c0.008-2.67,0.003-5.338,0.03-8.007
			c0.01-0.857-0.218-1.845,0.908-2.268c0.42,0.456,0.979,0.502,1.549,0.518c-0.238,3.441,0.56,6.933-0.496,10.334
			C105.097,38.74,104.433,38.547,103.769,38.355z"/>
		<path fill-rule="evenodd" clip-rule="evenodd" fill="#FED748" d="M143.218,49.743c1.07-0.521,2.26-0.856,3.011-1.888
			c0.957-0.483,1.859-1.036,2.456-1.969c1.296-0.711,1.833-2.131,2.879-3.078c3.492,1.769,4.073,4.996,1.518,7.761
			c-4.034,4.364-9.446,5.833-14.907,6.968c-8.715,1.811-17.43,1.359-26.044-0.861c-2.79-0.719-5.496-1.668-7.845-3.416
			c0.646,0.01,1.292,0.02,1.938,0.029c0.898,0.666,1.979,0.375,2.969,0.566c1.662,0.244,3.323,0.487,4.984,0.732
			c0.802,0.021,1.602,0.04,2.402,0.061c1.663-0.002,3.325-0.004,4.987-0.007c0.967-0.016,1.933-0.033,2.899-0.05
			c1.659-0.239,3.318-0.479,4.978-0.719c0.806-0.085,1.611-0.169,2.417-0.253c1.364-0.235,2.76-0.366,3.952-1.182
			c0.823-0.236,1.647-0.474,2.473-0.711c0.9-0.122,1.771-0.321,2.474-0.957C141.578,50.428,142.397,50.086,143.218,49.743z"/>
		<path fill-rule="evenodd" clip-rule="evenodd" fill="#E2AE18" d="M114.108,72.718c-1.294-0.312-2.588-0.624-3.882-0.936
			c0.208-3.218-0.571-6.479,0.431-9.661c1.175-0.16,2.35-0.199,3.52,0.047C114.154,65.685,114.131,69.201,114.108,72.718z"/>
		<path fill-rule="evenodd" clip-rule="evenodd" fill="#E1AC18" d="M96.845,64.604c-2.085-1.807-3.043-4.15-3.107-6.849
			c-0.052-2.183,0.041-4.37,0.069-6.556c0.206-0.304,0.413-0.607,0.619-0.91c0.989,1.481,1.977,2.965,2.966,4.445
			C97.091,58.018,97.994,61.367,96.845,64.604z"/>
		<path fill-rule="evenodd" clip-rule="evenodd" fill="#E3AE18" d="M106.223,53.289c-0.646-0.01-1.292-0.02-1.938-0.029
			c-0.498-0.177-0.995-0.354-1.492-0.531c-0.007-3.416-0.013-6.83-0.02-10.246c1.207,0.184,2.411,0.377,3.506,0.963
			C106.261,46.727,106.242,50.008,106.223,53.289z"/>
		<path fill-rule="evenodd" clip-rule="evenodd" fill="#E2AE18" d="M143.206,71.802c-1.137,0.255-2.272,0.509-3.409,0.763
			c-0.005-3.322-0.01-6.644-0.014-9.965c0.965-0.901,2.357-0.38,3.403-1.018C143.193,64.988,143.199,68.395,143.206,71.802z"/>
		<path fill-rule="evenodd" clip-rule="evenodd" fill="#CD9912" d="M143.206,71.802c-0.007-3.407-0.013-6.813-0.02-10.22
			c0.897-0.613,1.884-0.939,2.978-0.913c0.004,0.978-0.072,1.962,0.024,2.931c0.232,2.311-0.638,4.711,0.563,6.94
			C145.721,71.383,144.489,71.666,143.206,71.802z"/>
		<path fill-rule="evenodd" clip-rule="evenodd" fill="#CD9912" d="M139.783,62.6c0.004,3.321,0.009,6.643,0.014,9.965
			c-0.915,0.579-1.936,0.547-2.956,0.5c-0.004-2.486,0.003-4.975-0.018-7.461c-0.008-0.865,0.172-1.785-0.523-2.514
			C137.376,62.334,138.586,62.512,139.783,62.6z"/>
		<path fill-rule="evenodd" clip-rule="evenodd" fill="#E1AC18" d="M102.251,68.555c-0.92-0.291-1.738-0.76-2.451-1.41
			c0.019-1.207-0.037-2.421,0.07-3.621c0.191-2.122-0.588-4.333,0.553-6.371c0.628,0.318,1.257,0.637,1.887,0.955
			c0.169,0.184,0.339,0.365,0.509,0.547l0.005-0.016c-0.009,0.898,0.05,1.805-0.04,2.695
			C102.542,63.736,103.403,66.223,102.251,68.555z"/>
		<path fill-rule="evenodd" clip-rule="evenodd" fill="#CF9B13" d="M102.773,42.482c0.007,3.416,0.013,6.83,0.02,10.246
			c-1.093,0.012-2.079-0.317-2.971-0.94c0.011-3.341,0.021-6.681,0.031-10.022C100.828,42.005,101.801,42.244,102.773,42.482z"/>
		<path fill-rule="evenodd" clip-rule="evenodd" fill="#BF8F11" d="M94.426,50.289c-0.206,0.303-0.413,0.606-0.619,0.91
			c-0.051-0.648-0.1-1.295-0.149-1.941c1.308-0.027,1.276-0.963,1.274-1.88c-0.007-2.664-0.013-5.327-0.02-7.991
			c0.957,0.285,1.865,0.664,2.583,1.395c-0.042,3.323-0.083,6.646-0.123,9.967C96.308,51.121,95.563,49.451,94.426,50.289z"/>
		<path fill-rule="evenodd" clip-rule="evenodd" fill="#CD9912" d="M100.423,57.152c-1.141,2.038-0.361,4.249-0.553,6.371
			c-0.107,1.2-0.052,2.414-0.07,3.621c-1.269-0.518-2.196-1.433-2.955-2.542c1.149-3.235,0.246-6.585,0.547-9.868
			C98.621,55.266,99.655,56.041,100.423,57.152z"/>
		<path fill-rule="evenodd" clip-rule="evenodd" fill="#CB9712" d="M156.037,54.648c0.024,3.543,0.049,7.087,0.073,10.631
			c-0.624,0.975-1.521,1.62-2.552,2.103c-0.249-3.396,0.629-6.85-0.509-10.202C154.046,56.336,155.042,55.49,156.037,54.648z"/>
		<path fill-rule="evenodd" clip-rule="evenodd" fill="#CB9712" d="M110.657,62.121c-1.002,3.182-0.223,6.443-0.431,9.661
			c-1.136-0.169-2.261-0.368-3.18-1.142c0.775-0.679,0.686-1.601,0.686-2.489c0.002-2.521-0.007-5.04-0.012-7.56
			C108.822,60.866,110.187,60.637,110.657,62.121z"/>
		<path fill-rule="evenodd" clip-rule="evenodd" fill="#CB9712" d="M151.157,68.676c-0.663,0.773-1.552,1.089-2.521,1.24
			c0.004-2.545,0.014-5.092,0.007-7.637c-0.003-0.896,0.129-1.879-1.102-2.156c1.193-0.66,2.387-1.32,3.58-1.982
			C151.134,61.652,151.146,65.164,151.157,68.676z"/>
		<path fill-rule="evenodd" clip-rule="evenodd" fill="#CD9912" d="M102.251,68.555c1.152-2.332,0.291-4.818,0.532-7.221
			c0.09-0.891,0.031-1.797,0.04-2.695c1.069,0.08,2.137,0.165,2.465,1.48c-0.004,3.278-0.009,6.557-0.013,9.836
			C104.096,69.861,103.1,69.367,102.251,68.555z"/>
		<path fill-rule="evenodd" clip-rule="evenodd" fill="#E2AE18" d="M151.157,68.676c-0.012-3.512-0.023-7.023-0.035-10.535
			c0.643-0.32,1.286-0.641,1.929-0.961c1.137,3.353,0.259,6.806,0.508,10.202C152.759,67.813,151.958,68.244,151.157,68.676z"/>
		<path fill-rule="evenodd" clip-rule="evenodd" fill="#CB9712" d="M114.108,72.718c0.022-3.517,0.046-7.033,0.068-10.55
			c0.892,0.639,2.14,0.115,2.983,0.913c-1.152,2.207-0.321,4.573-0.54,6.856c-0.099,1.039-0.032,2.093-0.041,3.139
			C115.756,72.957,114.932,72.838,114.108,72.718z"/>
		<path fill-rule="evenodd" clip-rule="evenodd" fill="#E1AC18" d="M97.372,50.748c0.04-3.321,0.081-6.644,0.123-9.967
			c0.87,0.131,1.798,0.123,2.358,0.986c-0.01,3.34-0.021,6.68-0.031,10.021C98.878,51.742,98.012,51.514,97.372,50.748z"/>
		<path fill-rule="evenodd" clip-rule="evenodd" fill="#E2AE18" d="M105.275,69.955c0.004-3.279,0.009-6.558,0.013-9.836
			c0.821,0.104,1.718-0.176,2.433,0.473c0.005,2.52,0.014,5.039,0.012,7.56c0,0.889,0.09,1.811-0.686,2.489
			C106.457,70.412,105.865,70.184,105.275,69.955z"/>
		<path fill-rule="evenodd" clip-rule="evenodd" fill="#E2AE18" d="M147.542,60.123c1.23,0.277,1.099,1.261,1.102,2.156
			c0.007,2.545-0.003,5.092-0.007,7.637c-0.627,0.207-1.256,0.416-1.885,0.624c-1.201-2.229-0.331-4.63-0.563-6.94
			c-0.097-0.969-0.021-1.953-0.024-2.931C146.623,60.487,147.083,60.307,147.542,60.123z"/>
		<path fill-rule="evenodd" clip-rule="evenodd" fill="#CD9912" d="M102.818,58.654c-0.17-0.182-0.34-0.363-0.509-0.547
			C102.479,58.29,102.648,58.473,102.818,58.654z"/>
		<path fill-rule="evenodd" clip-rule="evenodd" fill="#CD9912" d="M89.512,45.836c0.983-2.004,0.257-4.139,0.47-6.201
			c0.112-1.102-0.268-2.286,0.567-3.263c0.655,0.505,1.311,1.011,1.966,1.517c-0.019,3.451-0.036,6.904-0.054,10.355
			C91.28,47.685,90.22,46.975,89.512,45.836z"/>
		<path fill-rule="evenodd" clip-rule="evenodd" fill="#E3AE18" d="M92.461,48.244c0.018-3.451,0.035-6.904,0.054-10.355
			c0.926,0.299,1.84,0.613,2.397,1.498c0.007,2.664,0.013,5.327,0.02,7.991c0.002,0.917,0.033,1.853-1.274,1.88
			C93.258,48.92,92.859,48.582,92.461,48.244z"/>
		<path fill-rule="evenodd" clip-rule="evenodd" fill="#E3AE18" d="M114.177,54.588c-1.661-0.245-3.322-0.488-4.983-0.733
			c-0.001-3.31-0.001-6.618-0.002-9.927c1.717-0.225,3.318,0.53,5.002,0.584C114.188,47.869,114.183,51.229,114.177,54.588z"/>
		<path fill-rule="evenodd" clip-rule="evenodd" fill="#E3AE18" d="M129.443,53.875c-1.659,0.238-3.318,0.478-4.978,0.718
			c0.005-3.396,0.01-6.791,0.015-10.187c1.622-0.199,3.242-0.398,4.864-0.598C129.378,47.164,129.41,50.52,129.443,53.875z"/>
		<path fill-rule="evenodd" clip-rule="evenodd" fill="#E3AE18" d="M121.566,54.642c-1.662,0.003-3.324,0.005-4.987,0.007
			c0.011-3.263,0.02-6.525,0.031-9.788c1.682,0.236,3.259-0.768,4.95-0.42C121.563,47.842,121.564,51.242,121.566,54.642z"/>
		<path fill-rule="evenodd" clip-rule="evenodd" fill="#E2AE18" d="M135.813,52.438c-1.192,0.815-2.588,0.946-3.952,1.182
			c0.001-3.391,0.001-6.783,0.001-10.176c1.3-0.369,2.601-0.74,3.898-1.11C135.776,45.702,135.794,49.07,135.813,52.438z"/>
		<path fill-rule="evenodd" clip-rule="evenodd" fill="#CF9B13" d="M121.566,54.642c-0.002-3.399-0.004-6.8-0.006-10.201
			c0.974-0.011,1.947-0.022,2.921-0.034c-0.006,3.396-0.011,6.791-0.016,10.187C123.499,54.608,122.533,54.626,121.566,54.642z"/>
		<path fill-rule="evenodd" clip-rule="evenodd" fill="#CF9B13" d="M109.191,43.928c0.001,3.309,0.001,6.617,0.002,9.927
			c-0.99-0.19-2.071,0.101-2.97-0.565c0.019-3.281,0.037-6.563,0.056-9.844c0.659,0.031,1.317,0.061,1.976,0.09
			c0.159,0.103,0.32,0.208,0.481,0.313C108.891,43.858,109.043,43.885,109.191,43.928z"/>
		<path fill-rule="evenodd" clip-rule="evenodd" fill="#CD9912" d="M131.861,43.444c0,3.393,0,6.785-0.001,10.176
			c-0.806,0.084-1.611,0.168-2.417,0.253c-0.033-3.354-0.065-6.709-0.099-10.064C130.121,43.256,130.995,43.373,131.861,43.444z"/>
		<path fill-rule="evenodd" clip-rule="evenodd" fill="#CD9912" d="M116.61,44.86c-0.012,3.263-0.021,6.525-0.031,9.788
			c-0.801-0.021-1.601-0.039-2.402-0.061c0.006-3.359,0.011-6.719,0.017-10.076C115.025,44.444,115.875,44.252,116.61,44.86z"/>
		<path fill-rule="evenodd" clip-rule="evenodd" fill="#E3AE18" d="M108.736,43.848c-0.161-0.104-0.322-0.21-0.481-0.313
			C108.416,43.641,108.576,43.744,108.736,43.848z"/>
	</g>
</g>
</svg>
