<?xml version="1.0" encoding="utf-8"?>
<!-- Generator: Adobe Illustrator 16.0.0, SVG Export Plug-In . SVG Version: 6.00 Build 0)  -->
<!DOCTYPE svg PUBLIC "-//W3C//DTD SVG 1.1//EN" "http://www.w3.org/Graphics/SVG/1.1/DTD/svg11.dtd">
<svg version="1.1" id="Capa_1" xmlns="http://www.w3.org/2000/svg" xmlns:xlink="http://www.w3.org/1999/xlink" x="0px" y="0px"
	 width="255.355px" height="123.551px" viewBox="0 0 255.355 123.551" enable-background="new 0 0 255.355 123.551"
	 xml:space="preserve">
<g>
	<ellipse fill-rule="evenodd" clip-rule="evenodd" fill="#42210B" cx="127.678" cy="72.862" rx="127.678" ry="50.688"/>
	<g>
		<rect x="78.5" y="80.117" fill="#FFFFFF" stroke="#1C1C1B" stroke-miterlimit="10" width="23" height="27"/>
		<path fill="#FF0909" d="M90.068,92.883c-0.797,0.207-1.4,0.845-1.684,1.768c-0.068,0.215-0.078,0.324-0.078,0.734
			c0,0.457,0.004,0.5,0.104,0.791c0.273,0.79,0.65,1.327,1.995,2.846c0.847,0.957,1.177,1.363,1.524,1.88
			c0.533,0.798,0.854,1.638,0.863,2.282c0.004,0.174,0.011,0.2,0.03,0.123c0.014-0.057,0.026-0.178,0.03-0.267
			c0.01-0.356,0.213-0.998,0.484-1.501c0.363-0.687,0.727-1.154,2.124-2.722c0.847-0.95,1.241-1.468,1.505-1.984
			c0.276-0.54,0.373-0.908,0.373-1.432c0-0.803-0.287-1.474-0.854-2.004c-0.715-0.667-1.775-0.761-2.578-0.23
			c-0.181,0.12-0.484,0.417-0.638,0.617c-0.13,0.177-0.33,0.6-0.397,0.851l-0.059,0.224l-0.062-0.227
			c-0.033-0.124-0.12-0.348-0.192-0.494C92.069,93.144,91.039,92.626,90.068,92.883z"/>
		<text transform="matrix(1 0 0 1 80.9976 88.1426)" font-family="'Roboto-Light'" font-size="7.7549">7</text>
	</g>
	<g>
		<rect x="148.5" y="80.117" fill="#FFFFFF" stroke="#1C1C1B" stroke-miterlimit="10" width="23" height="27"/>
		<path fill="#050703" d="M162.443,93.267c-0.424,0.654-1.225,1.792-1.558,2.209c-0.4,0.504-1.401,1.497-2.469,2.454l-0.206,0.185
			l0.607,0.553c0.807,0.737,1.681,1.611,2,2.005c0.324,0.397,0.984,1.324,1.508,2.118c0.221,0.331,0.407,0.604,0.418,0.604
			c0.01,0,0.213-0.293,0.456-0.657c0.494-0.741,1.058-1.535,1.378-1.948c0.28-0.359,1.098-1.194,1.834-1.875
			c0.32-0.293,0.647-0.597,0.728-0.67l0.144-0.135l-0.574-0.516c-0.9-0.814-1.811-1.735-2.164-2.195
			c-0.377-0.49-1.047-1.44-1.475-2.098c-0.17-0.261-0.316-0.474-0.326-0.474C162.733,92.827,162.6,93.024,162.443,93.267z"/>
		<text transform="matrix(1 0 0 1 150.6074 88.1113)" font-family="'Roboto-Light'" font-size="7.7549">7</text>
	</g>
	<g>
		
			<rect x="48" y="3.118" transform="matrix(0.9969 -0.0793 0.0793 0.9969 -2.508 6.0537)" fill="#FFFFFF" stroke="#1C1C1B" stroke-width="2" stroke-miterlimit="10" width="54" height="62.999"/>
		<text transform="matrix(0.9969 -0.0793 0.0793 0.9969 53.4346 25.8916)" font-family="'Roboto-Light'" font-size="17.934">K</text>
		<path fill="#FF0909" d="M75.897,34.272c-1.801,0.622-3.075,2.202-3.561,4.383c-0.115,0.505-0.118,0.76-0.042,1.705
			c0.084,1.056,0.1,1.154,0.382,1.806c0.778,1.77,1.743,2.941,5.121,6.195c2.128,2.048,2.966,2.927,3.859,4.055
			c1.376,1.741,2.268,3.619,2.409,5.103c0.042,0.399,0.063,0.458,0.092,0.278c0.021-0.135,0.029-0.413,0.021-0.621
			c-0.042-0.824,0.308-2.341,0.84-3.549c0.712-1.649,1.465-2.793,4.4-6.664c1.778-2.346,2.592-3.611,3.104-4.85
			c0.54-1.297,0.694-2.162,0.599-3.369c-0.147-1.852-0.932-3.346-2.336-4.464c-1.767-1.407-4.23-1.429-5.986-0.058
			c-0.394,0.309-1.039,1.05-1.356,1.539c-0.267,0.431-0.65,1.444-0.758,2.033l-0.098,0.525l-0.18-0.511
			c-0.101-0.279-0.342-0.778-0.536-1.102C80.558,34.506,78.088,33.502,75.897,34.272z"/>
	</g>
	<g>
		<rect x="151.5" y="39.117" fill="#FFFFFF" stroke="#1C1C1B" stroke-miterlimit="10" width="23" height="27"/>
		<text transform="matrix(1 0 0 1 154.1787 48.0547)" font-family="'Roboto-Light'" font-size="7.7549">K</text>
		<path fill="#1C1C1B" d="M165.445,51.239c-1.578,0.413-2.277,2.358-1.35,3.759c0.176,0.271,0.489,0.57,0.76,0.728
			c0.263,0.153,0.45,0.366,0.65,0.757c0.123,0.23,0.299,0.66,0.299,0.718c0,0.013-0.072-0.091-0.166-0.23
			c-0.73-1.114-2.178-1.374-3.225-0.581c-0.371,0.281-0.701,0.768-0.848,1.255c-0.063,0.204-0.077,0.33-0.08,0.684
			c0,0.457,0.034,0.647,0.174,0.994c0.197,0.486,0.627,0.968,1.074,1.204c0.947,0.496,2.102,0.25,2.768-0.594
			c0.09-0.113,0.193-0.264,0.23-0.338c0.098-0.183,0.09-0.102-0.014,0.171c-0.127,0.341-0.326,0.703-0.517,0.938
			c-0.421,0.53-1.12,0.927-1.774,1.011c-0.127,0.013-0.233,0.033-0.24,0.04c-0.006,0.007,1.261,0.01,2.818,0.01
			c1.555,0,2.812-0.01,2.792-0.022c-0.023-0.015-0.087-0.027-0.144-0.027c-0.174,0-0.678-0.16-0.951-0.304
			c-0.46-0.24-0.891-0.657-1.146-1.117c-0.12-0.207-0.327-0.685-0.307-0.7c0.006-0.008,0.073,0.083,0.15,0.203
			c0.253,0.384,0.673,0.703,1.146,0.877c0.22,0.08,0.29,0.09,0.693,0.09c0.404,0,0.475-0.01,0.694-0.09
			c0.754-0.273,1.288-0.854,1.515-1.651c0.06-0.213,0.073-0.337,0.073-0.693c-0.004-0.394-0.014-0.464-0.11-0.75
			c-0.303-0.907-1.008-1.508-1.918-1.639c-0.784-0.109-1.628,0.29-2.107,1.005c-0.08,0.119-0.146,0.21-0.146,0.199
			c0-0.043,0.146-0.393,0.246-0.594c0.156-0.313,0.377-0.6,0.607-0.793c0.443-0.374,0.73-0.69,0.873-0.971
			c0.203-0.39,0.277-0.711,0.28-1.178c0.007-0.604-0.156-1.094-0.521-1.557c-0.22-0.281-0.402-0.435-0.727-0.611
			C166.52,51.18,165.953,51.108,165.445,51.239z"/>
	</g>
</g>
</svg>
