<?xml version="1.0" encoding="utf-8"?>
<!-- Generator: Adobe Illustrator 16.0.0, SVG Export Plug-In . SVG Version: 6.00 Build 0)  -->
<!DOCTYPE svg PUBLIC "-//W3C//DTD SVG 1.1//EN" "http://www.w3.org/Graphics/SVG/1.1/DTD/svg11.dtd">
<svg version="1.1" id="Capa_1" xmlns="http://www.w3.org/2000/svg" xmlns:xlink="http://www.w3.org/1999/xlink" x="0px" y="0px"
	 width="255.355px" height="117.51px" viewBox="0 0 255.355 117.51" enable-background="new 0 0 255.355 117.51"
	 xml:space="preserve">
<g>
	<ellipse fill-rule="evenodd" clip-rule="evenodd" fill="#42210B" cx="127.678" cy="66.821" rx="127.678" ry="50.688"/>
	<g>
		<g>
			<g>
				<g>
					<path fill-rule="evenodd" clip-rule="evenodd" fill="#FE6565" d="M92.987,74.618c-1.069-0.003-2.073-0.422-2.826-1.182
						c-0.753-0.759-1.165-1.766-1.159-2.836l0.077-29.992c0.01-2.202,1.805-3.991,4.002-3.991l52.01,0.14
						c2.204,0.008,3.993,1.807,3.989,4.009l-0.081,30.001c-0.008,2.201-1.803,3.99-4,3.99L92.987,74.618z"/>
					<path fill="#EFE3D2" d="M93,39.099c0,0,0.084,0,0.085,0l52-0.101c1.104,0.004,1.997,0.781,1.995,1.886l-0.081,30.109
						c-0.004,1.103-0.896,2.105-2,2.105c-0.002,0-0.004,0-0.006,0l-52-0.31c-1.104-0.003-1.997-0.986-1.991-2.092l0.077-29.799
						c0.005-1.105,0.898-1.798,2.002-1.798 M93.09,35.099h-0.005h-0.004c-3.295,0-5.987,2.442-6.002,5.738l-0.077,29.884
						c-0.009,1.594,0.609,3.045,1.739,4.184s2.636,1.738,4.241,1.743l52,0.125c3.313,0,6.005-2.691,6.017-5.989l0.081-30.006
						c0.006-3.308-2.677-5.767-5.98-5.778l-52.004,0.099H93.09L93.09,35.099z"/>
				</g>
				
					<rect x="109.598" y="47.994" transform="matrix(-0.7052 -0.709 0.709 -0.7052 160.5249 178.108)" fill-rule="evenodd" clip-rule="evenodd" fill="#F7E6D5" width="15.38" height="15.379"/>
			</g>
		</g>
		<g>
			<g>
				<g>
					<path fill-rule="evenodd" clip-rule="evenodd" fill="#FE6565" d="M96.987,67.618c-1.069-0.003-2.073-0.422-2.826-1.182
						c-0.753-0.759-1.165-1.766-1.159-2.836l0.077-29.992c0.01-2.202,1.805-3.991,4.002-3.991l52.01,0.14
						c2.204,0.008,3.993,1.807,3.989,4.009l-0.081,30.001c-0.008,2.201-1.803,3.99-4,3.99L96.987,67.618z"/>
					<path fill="#EFE3D2" d="M97,32.099c0,0,0.084,0,0.085,0l52-0.101c1.104,0.004,1.997,0.781,1.995,1.886l-0.081,30.109
						c-0.004,1.103-0.896,2.105-2,2.105c-0.002,0-0.004,0-0.006,0l-52-0.31c-1.104-0.003-1.997-0.986-1.991-2.092l0.077-29.799
						c0.005-1.105,0.898-1.798,2.002-1.798 M97.09,28.099h-0.005h-0.004c-3.295,0-5.987,2.442-6.002,5.738l-0.077,29.884
						c-0.009,1.594,0.609,3.045,1.739,4.184s2.636,1.738,4.241,1.743l52,0.125c3.313,0,6.005-2.691,6.017-5.989l0.081-30.006
						c0.006-3.308-2.677-5.767-5.98-5.778l-52.004,0.099H97.09L97.09,28.099z"/>
				</g>
				
					<rect x="113.598" y="40.994" transform="matrix(-0.7052 -0.709 0.709 -0.7052 172.3087 169.0073)" fill-rule="evenodd" clip-rule="evenodd" fill="#F7E6D5" width="15.38" height="15.379"/>
			</g>
		</g>
		<g>
			<g>
				<g>
					<path fill-rule="evenodd" clip-rule="evenodd" fill="#FE6565" d="M100.987,60.618c-1.069-0.003-2.073-0.422-2.826-1.182
						c-0.753-0.759-1.165-1.766-1.159-2.836l0.077-29.992c0.01-2.202,1.805-3.991,4.002-3.991l52.01,0.14
						c2.204,0.008,3.993,1.807,3.989,4.009l-0.081,30.001c-0.008,2.201-1.803,3.99-4,3.99L100.987,60.618z"/>
					<path fill="#EFE3D2" d="M101,25.099c0,0,0.084,0,0.085,0l52-0.101c1.104,0.004,1.997,0.781,1.995,1.886l-0.081,30.109
						c-0.004,1.103-0.896,2.105-2,2.105c-0.002,0-0.004,0-0.006,0l-52-0.31c-1.104-0.003-1.997-0.986-1.991-2.092l0.077-29.799
						c0.005-1.105,0.898-1.798,2.002-1.798 M101.09,21.099h-0.005h-0.004c-3.295,0-5.987,2.442-6.002,5.738l-0.077,29.884
						c-0.009,1.594,0.609,3.045,1.739,4.184s2.636,1.738,4.241,1.743l52,0.125c3.313,0,6.005-2.691,6.017-5.989l0.081-30.006
						c0.006-3.308-2.677-5.767-5.98-5.778l-52.004,0.099H101.09L101.09,21.099z"/>
				</g>
				
					<rect x="117.598" y="33.994" transform="matrix(-0.7052 -0.709 0.709 -0.7052 184.0924 159.9066)" fill-rule="evenodd" clip-rule="evenodd" fill="#F7E6D5" width="15.38" height="15.379"/>
			</g>
		</g>
		<g>
			<g>
				<g>
					<path fill-rule="evenodd" clip-rule="evenodd" fill="#FE6565" d="M104.987,53.618c-1.069-0.003-2.073-0.422-2.826-1.182
						c-0.753-0.759-1.165-1.766-1.159-2.836l0.077-29.992c0.01-2.202,1.805-3.991,4.002-3.991l52.01,0.14
						c2.204,0.008,3.993,1.807,3.989,4.009l-0.081,30.001c-0.008,2.201-1.803,3.99-4,3.99L104.987,53.618z"/>
					<path fill="#EFE3D2" d="M105,18.099c0,0,0.084,0,0.085,0l52-0.101c1.104,0.004,1.997,0.781,1.995,1.886l-0.081,30.109
						c-0.004,1.103-0.896,2.105-2,2.105c-0.002,0-0.004,0-0.006,0l-52-0.31c-1.104-0.003-1.997-0.986-1.991-2.092l0.077-29.799
						c0.005-1.105,0.898-1.798,2.002-1.798 M105.09,14.099h-0.005h-0.004c-3.295,0-5.987,2.442-6.002,5.738l-0.077,29.884
						c-0.009,1.594,0.609,3.045,1.739,4.184s2.636,1.738,4.241,1.743l52,0.125c3.313,0,6.005-2.691,6.017-5.989l0.081-30.006
						c0.006-3.308-2.677-5.767-5.98-5.778l-52.004,0.099H105.09L105.09,14.099z"/>
				</g>
				
					<rect x="121.598" y="26.994" transform="matrix(-0.7052 -0.709 0.709 -0.7052 195.8762 150.8059)" fill-rule="evenodd" clip-rule="evenodd" fill="#F7E6D5" width="15.38" height="15.379"/>
			</g>
		</g>
		<g>
			<g>
				<g>
					<path fill-rule="evenodd" clip-rule="evenodd" fill="#FE6565" d="M108.987,46.618c-1.069-0.003-2.073-0.422-2.826-1.182
						c-0.753-0.759-1.165-1.766-1.159-2.836l0.077-29.992c0.01-2.202,1.805-3.991,4.002-3.991l52.01,0.14
						c2.204,0.008,3.993,1.807,3.989,4.009l-0.081,30.001c-0.008,2.201-1.803,3.99-4,3.99L108.987,46.618z"/>
					<path fill="#EFE3D2" d="M109,11.099c0,0,0.084,0,0.085,0l52-0.101c1.104,0.004,1.997,0.781,1.995,1.886l-0.081,30.109
						c-0.004,1.103-0.896,2.105-2,2.105c-0.002,0-0.004,0-0.006,0l-52-0.31c-1.104-0.003-1.997-0.986-1.991-2.092l0.077-29.799
						c0.005-1.105,0.898-1.798,2.002-1.798 M109.09,7.099h-0.005h-0.004c-3.295,0-5.987,2.442-6.002,5.738l-0.077,29.884
						c-0.009,1.594,0.609,3.045,1.739,4.184s2.636,1.738,4.241,1.743l52,0.125c3.313,0,6.005-2.691,6.017-5.989l0.081-30.006
						c0.006-3.308-2.677-5.767-5.98-5.778l-52.004,0.099H109.09L109.09,7.099z"/>
				</g>
				
					<rect x="125.598" y="19.994" transform="matrix(-0.7052 -0.709 0.709 -0.7052 207.66 141.7052)" fill-rule="evenodd" clip-rule="evenodd" fill="#F7E6D5" width="15.38" height="15.379"/>
			</g>
		</g>
		<g>
			<g>
				<g>
					<path fill-rule="evenodd" clip-rule="evenodd" fill="#FE6565" d="M112.987,39.618c-1.069-0.003-2.073-0.422-2.826-1.182
						c-0.753-0.759-1.165-1.766-1.159-2.836l0.077-29.992c0.01-2.202,1.805-3.991,4.002-3.991l52.01,0.14
						c2.204,0.008,3.993,1.807,3.989,4.009l-0.081,30.001c-0.008,2.201-1.803,3.99-4,3.99L112.987,39.618z"/>
					<path fill="#EFE3D2" d="M113,4.099c0,0,0.084,0,0.085,0l52-0.101c1.104,0.004,1.997,0.781,1.995,1.886l-0.081,30.109
						c-0.004,1.103-0.896,2.105-2,2.105c-0.002,0-0.004,0-0.006,0l-52-0.31c-1.104-0.003-1.997-0.986-1.991-2.092l0.077-29.799
						c0.005-1.105,0.898-1.798,2.002-1.798 M113.09,0.099h-0.005h-0.004c-3.295,0-5.987,2.442-6.002,5.738l-0.077,29.884
						c-0.009,1.594,0.609,3.045,1.739,4.184s2.636,1.738,4.241,1.743l52,0.125c3.313,0,6.005-2.691,6.017-5.989l0.081-30.006
						c0.006-3.308-2.677-5.767-5.98-5.778l-52.004,0.099H113.09L113.09,0.099z"/>
				</g>
				
					<rect x="129.598" y="12.994" transform="matrix(-0.7052 -0.709 0.709 -0.7052 219.4437 132.6044)" fill-rule="evenodd" clip-rule="evenodd" fill="#F7E6D5" width="15.38" height="15.379"/>
			</g>
		</g>
	</g>
</g>
</svg>
