<?xml version="1.0" encoding="utf-8"?>
<!-- Generator: Adobe Illustrator 16.0.0, SVG Export Plug-In . SVG Version: 6.00 Build 0)  -->
<!DOCTYPE svg PUBLIC "-//W3C//DTD SVG 1.1//EN" "http://www.w3.org/Graphics/SVG/1.1/DTD/svg11.dtd">
<svg version="1.1" id="Capa_1" xmlns="http://www.w3.org/2000/svg" xmlns:xlink="http://www.w3.org/1999/xlink" x="0px" y="0px"
	 width="255.355px" height="190.284px" viewBox="0 0 255.355 190.284" enable-background="new 0 0 255.355 190.284"
	 xml:space="preserve">
<g>
	<ellipse fill-rule="evenodd" clip-rule="evenodd" fill="#42210B" cx="127.678" cy="88.92" rx="127.678" ry="50.688"/>
	<g>
		<path fill-rule="evenodd" clip-rule="evenodd" fill="#F9C42D" d="M83.773,0c6.901,0,13.803,0,20.704,0
			c0.692,0.818,0.695,0.801,1.861,0.992c5.216,0.854,10.194,2.4,14.719,5.195c4.479,2.765,7.115,6.48,6.035,12.045
			c-1.134,1.455-2.268,2.911-3.401,4.367c-1.327,1.009-2.656,2.018-3.984,3.026c-0.674,0.048-0.966,0.646-1.428,0.997
			c-1.138,0.215-2.151,0.686-3.023,1.453c-0.643,0.184-1.284,0.367-1.926,0.549c-0.821,0.313-1.643,0.623-2.465,0.935
			c-1.314,0.343-2.628,0.688-3.941,1.032c-0.85,0.024-1.743-0.203-2.486,0.43c-1.334,0.096-2.72-0.166-3.96,0.574
			c-1.288-0.003-2.575-0.004-3.863-0.007c-1.593,0.728-3.28,0.38-4.933,0.434c-1.063-0.795-2.287-0.357-3.443-0.45
			c-1.433-0.627-3.201,0.35-4.496-0.941c-0.812-0.02-1.623-0.037-2.435-0.055c-1.208,0.229-2.176-1.154-3.445-0.514
			c-0.667-1.135-1.893-1.142-2.961-1.464c-0.569-0.016-1.129-0.062-1.55-0.518c-1.051-0.771-2.254-1.202-3.483-1.577
			c-1.058-0.268-1.685-1.095-2.379-1.834c-0.813-0.532-1.624-1.063-2.437-1.596c-1.351-1.723-2.914-3.293-3.822-5.334
			c-0.678-4.195,0.797-7.476,4.112-10.08c4.903-3.854,10.642-5.543,16.623-6.688C82.62,0.848,83.758,1.392,83.773,0z
			 M104.004,25.627c6.129-0.505,11.707-2.42,16.255-6.691c2.57-2.414,2.485-4.723,0.117-7.247c-2.082-2.219-4.711-3.548-7.448-4.667
			c-8.025-3.279-16.481-3.616-24.919-2.913C81.38,4.66,74.92,6.289,69.377,10.397c-4.125,3.058-4.131,6.669-0.05,9.747
			c3.698,2.787,8.021,4.029,12.332,5.344c0.764,0.233,1.455-0.029,2.141-0.32c0.296,0.266,0.564,0.723,0.893,0.77
			C91.144,26.865,97.591,27.17,104.004,25.627z"/>
		<path fill-rule="evenodd" clip-rule="evenodd" fill="#FAC52D" d="M128.633,44.366c0,1.644,0,3.286,0,4.929
			c-0.89,0.438-1.22,1.315-1.521,2.139c-0.489,1.339-1.156,2.491-2.43,3.215c-0.995,0.842-1.991,1.688-2.986,2.531
			c-0.643,0.32-1.286,0.641-1.929,0.961c-1.193,0.662-2.387,1.322-3.58,1.982c-0.459,0.184-0.919,0.364-1.378,0.546
			c-1.094-0.026-2.08,0.3-2.978,0.913c-1.046,0.638-2.438,0.116-3.403,1.018c-1.197-0.088-2.407-0.266-3.484,0.49
			c-1.484,0.095-3.025-0.283-4.425,0.523c-0.97,0.003-1.938,0.006-2.908,0.01c-1.44,0.711-3,0.359-4.503,0.511
			c-1.372-0.702-2.835-1.006-4.368-1.006c-0.978-0.016-1.956-0.031-2.935-0.047c-0.844-0.798-2.092-0.274-2.983-0.913
			c-1.17-0.246-2.345-0.207-3.52-0.047c-0.471-1.484-1.835-1.255-2.937-1.529c-0.715-0.648-1.611-0.368-2.432-0.473
			c-0.329-1.315-1.396-1.4-2.466-1.48l-0.005,0.016c-0.17-0.182-0.34-0.364-0.51-0.547c-0.629-0.318-1.258-0.637-1.886-0.955
			c-0.768-1.111-1.802-1.887-3.031-2.418c-0.989-1.48-1.977-2.964-2.966-4.445c1.137-0.838,1.882,0.832,2.946,0.459
			c0.64,0.766,1.506,0.994,2.449,1.04c0.893,0.623,1.879,0.952,2.972,0.94c0.497,0.178,0.994,0.354,1.492,0.531
			c2.349,1.748,5.055,2.697,7.845,3.416c8.614,2.221,17.329,2.672,26.044,0.861c5.461-1.135,10.873-2.604,14.907-6.968
			c2.556-2.765,1.975-5.992-1.519-7.761c0.549-1.646,1.097-3.291,1.646-4.938c2.171,1.025,3.761,2.696,5.237,4.54
			C127.608,43.059,127.381,44.313,128.633,44.366z"/>
		<path fill-rule="evenodd" clip-rule="evenodd" fill="#FCD648" d="M54.688,24.648c1.029,0.784,0.912-0.398,1.13-0.74
			c1.326-2.077,3.005-3.75,5.206-4.882c0.021,2.276,0.023,4.556,0.063,6.832c0.051,2.889,0.817,5.458,3.329,7.218
			c0.888,1.008,1.658,2.161,3.092,2.491c0.561,0.885,1.472,1.188,2.407,1.452c0.691,0.709,1.628,0.961,2.498,1.336
			c0.664,0.191,1.328,0.385,1.991,0.577c0.999,0.827,2.208,0.991,3.438,1.087c1.097,0.535,2.252,0.836,3.475,0.859
			c0.743,0.52,1.575,0.574,2.438,0.479c1.79,0.48,3.605,0.672,5.456,0.494c0.731,0.544,1.56,0.594,2.421,0.479
			c1.661,0,3.32,0,4.981,0c0.974-0.157,1.947-0.316,2.922-0.476c1.335-0.006,2.704,0.287,3.952-0.461
			c0.639,0.035,1.276,0.069,2.252,0.122c-0.693,0.424-1.015,0.62-1.336,0.817c-1.298,0.37-2.599,0.741-3.898,1.11
			c-0.866-0.071-1.74-0.188-2.518,0.364c-1.621,0.199-3.241,0.398-4.862,0.598c-0.974,0.012-1.947,0.023-2.921,0.036
			c-1.691-0.35-3.269,0.654-4.95,0.418c-0.735-0.608-1.585-0.416-2.417-0.349c-1.684-0.054-3.285-0.809-5.002-0.584
			c-0.148-0.043-0.301-0.069-0.455-0.08c-0.16-0.104-0.32-0.207-0.48-0.313c-0.659-0.029-1.317-0.059-1.977-0.088
			c-1.095-0.588-2.299-0.781-3.506-0.965c-0.973-0.238-1.945-0.478-2.92-0.715c-0.561-0.863-1.488-0.855-2.357-0.988
			c-0.719-0.729-1.627-1.107-2.584-1.393c-0.558-0.885-1.472-1.199-2.396-1.499c-0.656-0.505-1.312-1.011-1.967-1.516
			c-1.983-1.757-3.053-4.167-4.506-6.302C54.688,28.263,54.688,26.455,54.688,24.648z"/>
		<path fill-rule="evenodd" clip-rule="evenodd" fill="#E3AE18" d="M105.486,73.064c-0.228,0.26-1.121,0.131-0.516,0.879
			c-1.479,0-2.957,0-4.437,0c-0.006-3.443-0.011-6.887-0.016-10.33c1.4-0.807,2.941-0.429,4.427-0.523
			c0.695,0.729,0.516,1.648,0.523,2.514C105.489,68.09,105.482,70.578,105.486,73.064z"/>
		<path fill-rule="evenodd" clip-rule="evenodd" fill="#E3AE18" d="M85.746,73.943c0.619-0.766-0.245-0.64-0.521-0.867
			c0.009-1.046-0.058-2.1,0.041-3.139c0.219-2.283-0.612-4.649,0.54-6.857c0.979,0.017,1.957,0.032,2.935,0.048
			c1.146,0.575,1.522,1.477,1.477,2.767c-0.096,2.68-0.033,5.365-0.034,8.049C88.703,73.943,87.225,73.943,85.746,73.943z"/>
		<path fill-rule="evenodd" clip-rule="evenodd" fill="#E3AE18" d="M93.108,64.134c1.503-0.151,3.063,0.2,4.503-0.512
			c0.969,3.404,0.225,6.885,0.458,10.321c-1.644,0-3.286,0-4.93,0C93.129,70.674,93.118,67.404,93.108,64.134z"/>
		<path fill-rule="evenodd" clip-rule="evenodd" fill="#E1AC18" d="M54.688,30.07c1.453,2.135,2.522,4.545,4.506,6.302
			c-0.835,0.977-0.455,2.161-0.567,3.263c-0.213,2.063,0.514,4.197-0.47,6.201c-1.133-0.738-1.719-1.914-2.408-3.008
			c-0.247-0.392-0.354-1.152-1.061-0.434C54.688,38.285,54.688,34.178,54.688,30.07z"/>
		<path fill-rule="evenodd" clip-rule="evenodd" fill="#E1AC18" d="M128.633,61.127c-1.314-0.307-1.011,1-1.459,1.528
			c-0.771,0.911-1.412,1.931-2.418,2.624c-0.024-3.544-0.049-7.088-0.073-10.631c1.273-0.724,1.94-1.876,2.43-3.215
			c0.301-0.823,0.631-1.701,1.521-2.139C128.633,53.239,128.633,57.182,128.633,61.127z"/>
		<path fill-rule="evenodd" clip-rule="evenodd" fill="#CF9B13" d="M93.108,64.134c0.01,3.271,0.021,6.54,0.031,9.81
			c-0.986,0-1.972,0-2.957,0c0.001-2.684-0.062-5.369,0.034-8.049c0.046-1.29-0.331-2.191-1.477-2.767
			C90.273,63.128,91.736,63.432,93.108,64.134z"/>
		<path fill-rule="evenodd" clip-rule="evenodd" fill="#CD9912" d="M98.069,73.943c-0.233-3.437,0.511-6.917-0.458-10.321
			c0.97-0.003,1.938-0.006,2.908-0.009c0.004,3.443,0.009,6.887,0.015,10.33C99.713,73.943,98.891,73.943,98.069,73.943z"/>
		<path fill-rule="evenodd" clip-rule="evenodd" fill="#FED848" d="M83.8,25.168c-0.686,0.291-1.377,0.554-2.141,0.32
			c-4.312-1.314-8.634-2.557-12.332-5.344c-4.081-3.078-4.075-6.689,0.05-9.747C74.92,6.289,81.38,4.66,88.009,4.108
			c8.438-0.703,16.894-0.366,24.919,2.913c2.737,1.119,5.366,2.448,7.448,4.667c2.368,2.524,2.453,4.833-0.117,7.247
			c-4.548,4.271-10.126,6.187-16.255,6.691c-1.415-0.628-2.861-1.196-4.236-1.902c-1.069-0.549-1.899-1.533-0.502-2.402
			c1.752-1.088,2.685-2.799,4.019-4.193c1.419-1.483,0.832-2.277-0.198-3.459c-1.88-2.154-4.174-3.129-7.003-3.543
			c-2.428-0.354-4.939,0.212-7.289-0.771c-0.518-0.217-0.887-0.041-1.096,0.584c-0.539,1.611-1.825,2.664-3.021,3.766
			c-0.891,0.819-1.343,1.834-0.527,2.807c1.286,1.533,2.017,3.51,4.016,4.502c1.646,0.817,1.246,2.014-0.199,2.699
			C86.645,24.34,85.193,24.693,83.8,25.168z"/>
		<path fill-rule="evenodd" clip-rule="evenodd" fill="#EFC31B" d="M83.8,25.168c1.394-0.475,2.845-0.828,4.166-1.455
			c1.445-0.686,1.846-1.882,0.199-2.699c-1.999-0.992-2.729-2.969-4.016-4.502c-0.815-0.973-0.363-1.987,0.527-2.807
			c1.196-1.102,2.482-2.154,3.021-3.766c0.209-0.625,0.578-0.801,1.096-0.584c2.35,0.983,4.861,0.418,7.289,0.771
			c2.829,0.414,5.123,1.389,7.003,3.543c1.03,1.182,1.617,1.976,0.198,3.459c-1.334,1.395-2.267,3.105-4.019,4.193
			c-1.397,0.869-0.567,1.854,0.502,2.402c1.375,0.706,2.821,1.274,4.236,1.902c-6.413,1.543-12.86,1.238-19.312,0.311
			C84.364,25.891,84.096,25.434,83.8,25.168z"/>
		<path fill-rule="evenodd" clip-rule="evenodd" fill="#E2AE18" d="M106.924,30.592c1.313-0.345,2.627-0.689,3.941-1.031
			c0.007,1.805,0.155,3.623-0.021,5.409c-0.182,1.829,1.149,4.28-1.806,5.187c-0.104,0.031-0.194,0.443-0.134,0.627
			c1.075,3.285,0.254,6.663,0.5,9.987c-0.702,0.636-1.573,0.835-2.475,0.957C106.929,44.682,106.926,37.637,106.924,30.592z"/>
		<path fill-rule="evenodd" clip-rule="evenodd" fill="#E1AC18" d="M89.213,41.852c-1.851,0.178-3.666-0.014-5.456-0.494
			c-0.005-3.574-0.01-7.15-0.015-10.727c1.295,1.291,3.063,0.314,4.495,0.941c0.83,0.7,0.985,1.617,0.97,2.653
			C89.172,36.767,89.206,39.309,89.213,41.852z"/>
		<path fill-rule="evenodd" clip-rule="evenodd" fill="#CD9912" d="M106.924,30.592c0.002,7.045,0.005,14.09,0.007,21.136
			c-0.825,0.237-1.649,0.475-2.473,0.711c-0.019-3.368-0.036-6.736-0.053-10.104c0.321-0.197,0.643-0.394,1.336-0.817
			c-0.976-0.053-1.613-0.087-2.252-0.122c0.808-0.686,1.022-1.566,1-2.602c-0.057-2.59-0.039-5.182-0.052-7.771
			C105.181,30.389,106.074,30.616,106.924,30.592z"/>
		<path fill-rule="evenodd" clip-rule="evenodd" fill="#E2AE18" d="M120.771,35.547c-0.089,0.984-0.189,1.974,1.083,2.324
			c-0.549,1.646-1.097,3.292-1.645,4.938c-1.046,0.947-1.583,2.367-2.879,3.078c0.146-3.317-0.148-6.584,0.755-9.951
			c0.779-2.914,0.183-6.193,0.194-9.313c0.462-0.352,0.754-0.949,1.429-0.997c1.198,0.309,1.032,1.289,1.039,2.159
			C120.767,30.373,120.765,32.959,120.771,35.547z"/>
		<path fill-rule="evenodd" clip-rule="evenodd" fill="#CD9912" d="M109.404,50.771c-0.246-3.324,0.575-6.702-0.5-9.987
			c-0.061-0.184,0.029-0.596,0.134-0.627c2.955-0.906,1.624-3.357,1.806-5.187c0.177-1.786,0.028-3.604,0.021-5.409
			c0.822-0.313,1.644-0.623,2.466-0.936c0.006,2.374,0.035,4.748,0.01,7.121c-0.012,1.052,0.459,2.43-0.279,3.093
			c-1.575,1.416-1.129,3.115-1.174,4.767c-0.056,2.045-0.021,4.092-0.024,6.138C111.043,50.086,110.224,50.428,109.404,50.771z"/>
		<path fill-rule="evenodd" clip-rule="evenodd" fill="#CF9B13" d="M118.279,26.623c-0.012,3.119,0.585,6.398-0.194,9.313
			c-0.903,3.367-0.609,6.634-0.755,9.951c-0.597,0.933-1.499,1.485-2.456,1.97c-0.885-3.037-0.971-6.114,0.107-9.079
			c1.3-3.574,1.13-7.109,0.274-10.701C116.128,27.309,117.142,26.838,118.279,26.623z"/>
		<path fill-rule="evenodd" clip-rule="evenodd" fill="#E3AE18" d="M96.615,42.331c-1.661,0-3.32,0-4.98,0.001
			c0.016-3.437,0.031-6.873,0.047-10.31c1.652-0.054,3.34,0.294,4.933-0.434C96.614,35.169,96.615,38.75,96.615,42.331z"/>
		<path fill-rule="evenodd" clip-rule="evenodd" fill="#E2AE18" d="M104.438,31.021c0.013,2.59-0.005,5.182,0.052,7.771
			c0.022,1.035-0.192,1.916-1,2.602c-1.248,0.748-2.617,0.455-3.952,0.461c0.001-2.535,0.027-5.07-0.008-7.606
			c-0.015-1.026,0.111-1.954,0.948-2.653C101.718,30.855,103.104,31.117,104.438,31.021z"/>
		<path fill-rule="evenodd" clip-rule="evenodd" fill="#E2AE18" d="M115.256,28.076c0.855,3.592,1.025,7.127-0.274,10.701
			c-1.078,2.965-0.992,6.042-0.107,9.078c-0.751,1.031-1.94,1.367-3.011,1.888c0.004-2.046-0.031-4.093,0.024-6.138
			c0.045-1.651-0.401-3.351,1.174-4.767c0.738-0.663,0.268-2.041,0.279-3.093c0.025-2.373-0.004-4.747-0.01-7.121
			C113.972,28.443,114.613,28.26,115.256,28.076z"/>
		<path fill-rule="evenodd" clip-rule="evenodd" fill="#E1AC18" d="M64.417,33.076c-2.512-1.76-3.278-4.329-3.329-7.218
			c-0.04-2.276-0.043-4.556-0.063-6.832c0.068-0.429,0.137-0.856,0.206-1.285c0.908,2.04,2.472,3.61,3.822,5.335
			c-0.005,1.373,0.093,2.756-0.036,4.117C64.828,29.154,65.677,31.228,64.417,33.076z"/>
		<path fill-rule="evenodd" clip-rule="evenodd" fill="#E3AE18" d="M81.318,40.879c-1.223-0.023-2.378-0.324-3.475-0.859
			c0.006-3.32,0.013-6.639,0.019-9.957c1.27-0.641,2.237,0.742,3.445,0.514C81.312,34.01,81.314,37.444,81.318,40.879z"/>
		<path fill-rule="evenodd" clip-rule="evenodd" fill="#E1AC18" d="M127.093,18.232c0.187,4.004,0.937,8.057-0.923,11.894
			c-0.454,0.937-0.996,1.849-1.912,2.444c-0.707-0.719-0.546-1.637-0.552-2.506c-0.018-2.488-0.011-4.977-0.015-7.465
			C124.825,21.144,125.959,19.688,127.093,18.232z"/>
		<path fill-rule="evenodd" clip-rule="evenodd" fill="#CF9B13" d="M123.691,22.6c0.004,2.488-0.003,4.977,0.015,7.465
			c0.006,0.869-0.155,1.787,0.552,2.506c-0.886,1.317-2.012,2.352-3.487,2.977c-0.006-2.588-0.004-5.174-0.023-7.762
			c-0.007-0.87,0.159-1.851-1.039-2.159C121.035,24.617,122.364,23.608,123.691,22.6z"/>
		<path fill-rule="evenodd" clip-rule="evenodd" fill="#CF9B13" d="M77.862,30.063c-0.006,3.318-0.013,6.637-0.019,9.957
			c-1.23-0.096-2.439-0.26-3.438-1.087c1.056-3.401,0.258-6.893,0.496-10.334C75.97,28.921,77.195,28.928,77.862,30.063z"/>
		<path fill-rule="evenodd" clip-rule="evenodd" fill="#CF9B13" d="M100.478,31.596c-0.837,0.699-0.963,1.627-0.948,2.653
			c0.035,2.536,0.009,5.071,0.008,7.606c-0.975,0.159-1.948,0.318-2.922,0.476c0-3.581-0.001-7.162-0.001-10.742
			C97.902,31.592,99.189,31.593,100.478,31.596z"/>
		<path fill-rule="evenodd" clip-rule="evenodd" fill="#CD9912" d="M64.417,33.076c1.26-1.849,0.411-3.922,0.6-5.883
			c0.129-1.361,0.031-2.744,0.036-4.117c0.813,0.531,1.624,1.062,2.437,1.594c0.008,3.633,0.013,7.266,0.02,10.898
			C66.075,35.237,65.305,34.084,64.417,33.076z"/>
		<path fill-rule="evenodd" clip-rule="evenodd" fill="#CD9912" d="M72.414,38.355c-0.87-0.375-1.807-0.627-2.498-1.336
			c-0.015-3.506-0.031-7.01-0.048-10.516c1.229,0.375,2.433,0.807,3.484,1.577c-1.126,0.423-0.898,1.41-0.908,2.268
			C72.417,33.018,72.422,35.686,72.414,38.355z"/>
		<path fill-rule="evenodd" clip-rule="evenodd" fill="#CD9912" d="M91.682,32.022c-0.016,3.437-0.031,6.873-0.047,10.31
			c-0.862,0.113-1.69,0.063-2.422-0.48c-0.007-2.543-0.041-5.085-0.006-7.626c0.016-1.036-0.14-1.953-0.97-2.653
			C89.395,31.665,90.618,31.228,91.682,32.022z"/>
		<path fill-rule="evenodd" clip-rule="evenodd" fill="#CD9912" d="M81.318,40.879c-0.004-3.435-0.007-6.869-0.011-10.303
			c0.812,0.018,1.623,0.035,2.435,0.055c0.005,3.576,0.01,7.152,0.015,10.727C82.894,41.453,82.062,41.398,81.318,40.879z"/>
		<path fill-rule="evenodd" clip-rule="evenodd" fill="#E3AE18" d="M69.868,26.504c0.017,3.506,0.033,7.01,0.048,10.516
			c-0.936-0.264-1.847-0.567-2.407-1.452c-0.007-3.632-0.012-7.265-0.02-10.897C68.184,25.409,68.811,26.236,69.868,26.504z"/>
		<path fill-rule="evenodd" clip-rule="evenodd" fill="#E1AC18" d="M72.414,38.355c0.008-2.67,0.003-5.338,0.03-8.007
			c0.01-0.857-0.218-1.845,0.908-2.268c0.42,0.456,0.979,0.502,1.549,0.518c-0.238,3.441,0.56,6.933-0.496,10.334
			C73.742,38.74,73.078,38.547,72.414,38.355z"/>
		<path fill-rule="evenodd" clip-rule="evenodd" fill="#FED748" d="M111.863,49.743c1.07-0.521,2.26-0.856,3.011-1.888
			c0.957-0.483,1.859-1.036,2.456-1.969c1.296-0.711,1.833-2.131,2.879-3.078c3.492,1.769,4.073,4.996,1.518,7.761
			c-4.034,4.364-9.446,5.833-14.907,6.968c-8.715,1.811-17.43,1.359-26.044-0.861c-2.79-0.719-5.496-1.668-7.845-3.416
			c0.646,0.01,1.292,0.02,1.938,0.029c0.898,0.666,1.979,0.375,2.969,0.566c1.662,0.244,3.323,0.487,4.984,0.732
			c0.802,0.021,1.602,0.04,2.402,0.061c1.663-0.002,3.325-0.004,4.987-0.007c0.967-0.016,1.933-0.033,2.899-0.05
			c1.659-0.239,3.318-0.479,4.978-0.719c0.806-0.085,1.611-0.169,2.417-0.253c1.364-0.235,2.76-0.366,3.952-1.182
			c0.823-0.236,1.647-0.474,2.473-0.711c0.9-0.122,1.771-0.321,2.474-0.957C110.224,50.428,111.043,50.086,111.863,49.743z"/>
		<path fill-rule="evenodd" clip-rule="evenodd" fill="#E2AE18" d="M82.754,72.718c-1.294-0.312-2.588-0.624-3.882-0.936
			c0.208-3.218-0.571-6.479,0.431-9.661c1.175-0.16,2.35-0.199,3.52,0.047C82.8,65.685,82.776,69.201,82.754,72.718z"/>
		<path fill-rule="evenodd" clip-rule="evenodd" fill="#E1AC18" d="M65.49,64.604c-2.085-1.807-3.043-4.15-3.107-6.849
			c-0.052-2.183,0.041-4.37,0.069-6.556c0.206-0.304,0.413-0.607,0.619-0.91c0.989,1.481,1.977,2.965,2.966,4.445
			C65.736,58.018,66.64,61.367,65.49,64.604z"/>
		<path fill-rule="evenodd" clip-rule="evenodd" fill="#E3AE18" d="M74.868,53.289c-0.646-0.01-1.292-0.02-1.938-0.029
			c-0.498-0.177-0.995-0.354-1.492-0.531c-0.007-3.416-0.013-6.83-0.02-10.246c1.207,0.184,2.411,0.377,3.506,0.963
			C74.906,46.727,74.888,50.008,74.868,53.289z"/>
		<path fill-rule="evenodd" clip-rule="evenodd" fill="#E2AE18" d="M111.852,71.802c-1.137,0.255-2.272,0.509-3.409,0.763
			c-0.005-3.322-0.01-6.644-0.014-9.965c0.965-0.901,2.357-0.38,3.403-1.018C111.839,64.988,111.845,68.395,111.852,71.802z"/>
		<path fill-rule="evenodd" clip-rule="evenodd" fill="#CD9912" d="M111.852,71.802c-0.007-3.407-0.013-6.813-0.02-10.22
			c0.897-0.613,1.884-0.939,2.978-0.913c0.004,0.978-0.072,1.962,0.024,2.931c0.232,2.311-0.638,4.711,0.563,6.94
			C114.366,71.383,113.135,71.666,111.852,71.802z"/>
		<path fill-rule="evenodd" clip-rule="evenodd" fill="#CD9912" d="M108.429,62.6c0.004,3.321,0.009,6.643,0.014,9.965
			c-0.915,0.579-1.936,0.547-2.956,0.5c-0.004-2.486,0.003-4.975-0.018-7.461c-0.008-0.865,0.172-1.785-0.523-2.514
			C106.021,62.334,107.231,62.512,108.429,62.6z"/>
		<path fill-rule="evenodd" clip-rule="evenodd" fill="#E1AC18" d="M70.896,68.555c-0.92-0.291-1.738-0.76-2.451-1.41
			c0.019-1.207-0.037-2.421,0.07-3.621c0.191-2.122-0.588-4.333,0.553-6.371c0.628,0.318,1.257,0.637,1.887,0.955
			c0.169,0.184,0.339,0.365,0.509,0.547l0.005-0.016c-0.009,0.898,0.05,1.805-0.04,2.695C71.188,63.736,72.049,66.223,70.896,68.555
			z"/>
		<path fill-rule="evenodd" clip-rule="evenodd" fill="#CF9B13" d="M71.419,42.482c0.007,3.416,0.013,6.83,0.02,10.246
			c-1.093,0.012-2.079-0.317-2.971-0.94c0.011-3.341,0.021-6.681,0.031-10.022C69.474,42.005,70.446,42.244,71.419,42.482z"/>
		<path fill-rule="evenodd" clip-rule="evenodd" fill="#BF8F11" d="M63.071,50.289c-0.206,0.303-0.413,0.606-0.619,0.91
			c-0.051-0.648-0.1-1.295-0.149-1.941c1.308-0.027,1.276-0.963,1.274-1.88c-0.007-2.664-0.013-5.327-0.02-7.991
			c0.957,0.285,1.865,0.664,2.583,1.395c-0.042,3.323-0.083,6.646-0.123,9.967C64.953,51.121,64.208,49.451,63.071,50.289z"/>
		<path fill-rule="evenodd" clip-rule="evenodd" fill="#CD9912" d="M69.068,57.152c-1.141,2.038-0.361,4.249-0.553,6.371
			c-0.107,1.2-0.052,2.414-0.07,3.621c-1.269-0.518-2.196-1.433-2.955-2.542c1.149-3.235,0.246-6.585,0.547-9.868
			C67.267,55.266,68.301,56.041,69.068,57.152z"/>
		<path fill-rule="evenodd" clip-rule="evenodd" fill="#CB9712" d="M124.683,54.648c0.024,3.543,0.049,7.087,0.073,10.631
			c-0.624,0.975-1.521,1.62-2.552,2.103c-0.249-3.396,0.629-6.85-0.509-10.202C122.691,56.336,123.688,55.49,124.683,54.648z"/>
		<path fill-rule="evenodd" clip-rule="evenodd" fill="#CB9712" d="M79.303,62.121c-1.002,3.182-0.223,6.443-0.431,9.661
			c-1.136-0.169-2.261-0.368-3.18-1.142c0.775-0.679,0.686-1.601,0.686-2.489c0.002-2.521-0.007-5.04-0.012-7.56
			C77.468,60.866,78.832,60.637,79.303,62.121z"/>
		<path fill-rule="evenodd" clip-rule="evenodd" fill="#CB9712" d="M119.803,68.676c-0.663,0.773-1.552,1.089-2.521,1.24
			c0.004-2.545,0.014-5.092,0.007-7.637c-0.003-0.896,0.129-1.879-1.102-2.156c1.193-0.66,2.387-1.32,3.58-1.982
			C119.779,61.652,119.791,65.164,119.803,68.676z"/>
		<path fill-rule="evenodd" clip-rule="evenodd" fill="#CD9912" d="M70.896,68.555c1.152-2.332,0.291-4.818,0.532-7.221
			c0.09-0.891,0.031-1.797,0.04-2.695c1.069,0.08,2.137,0.165,2.465,1.48c-0.004,3.278-0.009,6.557-0.013,9.836
			C72.741,69.861,71.745,69.367,70.896,68.555z"/>
		<path fill-rule="evenodd" clip-rule="evenodd" fill="#E2AE18" d="M119.803,68.676c-0.012-3.512-0.023-7.023-0.035-10.535
			c0.643-0.32,1.286-0.641,1.929-0.961c1.137,3.353,0.259,6.806,0.508,10.202C121.404,67.813,120.604,68.244,119.803,68.676z"/>
		<path fill-rule="evenodd" clip-rule="evenodd" fill="#CB9712" d="M82.754,72.718c0.022-3.517,0.046-7.033,0.068-10.55
			c0.892,0.639,2.14,0.115,2.983,0.913c-1.152,2.207-0.321,4.573-0.54,6.856c-0.099,1.039-0.032,2.093-0.041,3.139
			C84.401,72.957,83.577,72.838,82.754,72.718z"/>
		<path fill-rule="evenodd" clip-rule="evenodd" fill="#E1AC18" d="M66.018,50.748c0.04-3.321,0.081-6.644,0.123-9.967
			c0.87,0.131,1.798,0.123,2.358,0.986c-0.01,3.34-0.021,6.68-0.031,10.021C67.523,51.742,66.657,51.514,66.018,50.748z"/>
		<path fill-rule="evenodd" clip-rule="evenodd" fill="#E2AE18" d="M73.921,69.955c0.004-3.279,0.009-6.558,0.013-9.836
			c0.821,0.104,1.718-0.176,2.433,0.473c0.005,2.52,0.014,5.039,0.012,7.56c0,0.889,0.09,1.811-0.686,2.489
			C75.103,70.412,74.511,70.184,73.921,69.955z"/>
		<path fill-rule="evenodd" clip-rule="evenodd" fill="#E2AE18" d="M116.188,60.123c1.23,0.277,1.099,1.261,1.102,2.156
			c0.007,2.545-0.003,5.092-0.007,7.637c-0.627,0.207-1.256,0.416-1.885,0.624c-1.201-2.229-0.331-4.63-0.563-6.94
			c-0.097-0.969-0.021-1.953-0.024-2.931C115.269,60.487,115.729,60.307,116.188,60.123z"/>
		<path fill-rule="evenodd" clip-rule="evenodd" fill="#CD9912" d="M71.464,58.654c-0.17-0.182-0.34-0.363-0.509-0.547
			C71.124,58.29,71.294,58.473,71.464,58.654z"/>
		<path fill-rule="evenodd" clip-rule="evenodd" fill="#CD9912" d="M58.157,45.836c0.983-2.004,0.257-4.139,0.47-6.201
			c0.112-1.102-0.268-2.286,0.567-3.263c0.655,0.505,1.311,1.011,1.966,1.517c-0.019,3.451-0.036,6.904-0.054,10.355
			C59.926,47.685,58.865,46.975,58.157,45.836z"/>
		<path fill-rule="evenodd" clip-rule="evenodd" fill="#E3AE18" d="M61.106,48.244c0.018-3.451,0.035-6.904,0.054-10.355
			c0.926,0.299,1.84,0.613,2.397,1.498c0.007,2.664,0.013,5.327,0.02,7.991c0.002,0.917,0.033,1.853-1.274,1.88
			C61.903,48.92,61.505,48.582,61.106,48.244z"/>
		<path fill-rule="evenodd" clip-rule="evenodd" fill="#E3AE18" d="M82.822,54.588c-1.661-0.245-3.322-0.488-4.983-0.733
			c-0.001-3.31-0.001-6.618-0.002-9.927c1.717-0.225,3.318,0.53,5.002,0.584C82.833,47.869,82.828,51.229,82.822,54.588z"/>
		<path fill-rule="evenodd" clip-rule="evenodd" fill="#E3AE18" d="M98.089,53.875c-1.659,0.238-3.318,0.478-4.978,0.718
			c0.005-3.396,0.01-6.791,0.015-10.187c1.622-0.199,3.242-0.398,4.864-0.598C98.023,47.164,98.056,50.52,98.089,53.875z"/>
		<path fill-rule="evenodd" clip-rule="evenodd" fill="#E3AE18" d="M90.212,54.642c-1.662,0.003-3.324,0.005-4.987,0.007
			c0.011-3.263,0.02-6.525,0.031-9.788c1.682,0.236,3.259-0.768,4.95-0.42C90.208,47.842,90.21,51.242,90.212,54.642z"/>
		<path fill-rule="evenodd" clip-rule="evenodd" fill="#E2AE18" d="M104.458,52.438c-1.192,0.815-2.588,0.946-3.952,1.182
			c0.001-3.391,0.001-6.783,0.001-10.176c1.3-0.369,2.601-0.74,3.898-1.11C104.422,45.702,104.439,49.07,104.458,52.438z"/>
		<path fill-rule="evenodd" clip-rule="evenodd" fill="#CF9B13" d="M90.212,54.642c-0.002-3.399-0.004-6.8-0.006-10.201
			c0.974-0.011,1.947-0.022,2.921-0.034c-0.006,3.396-0.011,6.791-0.016,10.187C92.145,54.608,91.179,54.626,90.212,54.642z"/>
		<path fill-rule="evenodd" clip-rule="evenodd" fill="#CF9B13" d="M77.837,43.928c0.001,3.309,0.001,6.617,0.002,9.927
			c-0.99-0.19-2.071,0.101-2.97-0.565c0.019-3.281,0.037-6.563,0.056-9.844c0.659,0.031,1.317,0.061,1.976,0.09
			c0.159,0.103,0.32,0.208,0.481,0.313C77.536,43.858,77.688,43.885,77.837,43.928z"/>
		<path fill-rule="evenodd" clip-rule="evenodd" fill="#CD9912" d="M100.507,43.444c0,3.393,0,6.785-0.001,10.176
			c-0.806,0.084-1.611,0.168-2.417,0.253c-0.033-3.354-0.065-6.709-0.099-10.064C98.767,43.256,99.641,43.373,100.507,43.444z"/>
		<path fill-rule="evenodd" clip-rule="evenodd" fill="#CD9912" d="M85.256,44.86c-0.012,3.263-0.021,6.525-0.031,9.788
			c-0.801-0.021-1.601-0.039-2.402-0.061c0.006-3.359,0.011-6.719,0.017-10.076C83.671,44.444,84.521,44.252,85.256,44.86z"/>
		<path fill-rule="evenodd" clip-rule="evenodd" fill="#E3AE18" d="M77.382,43.848c-0.161-0.104-0.322-0.21-0.481-0.313
			C77.062,43.641,77.222,43.744,77.382,43.848z"/>
	</g>
	<g>
		<path fill-rule="evenodd" clip-rule="evenodd" fill="#F9C42D" d="M146.431,6.914c6.901,0,13.803,0,20.704,0
			c0.692,0.818,0.695,0.801,1.861,0.992c5.216,0.854,10.194,2.4,14.719,5.195c4.479,2.765,7.115,6.48,6.035,12.045
			c-1.134,1.455-2.268,2.911-3.401,4.367c-1.327,1.009-2.656,2.018-3.984,3.026c-0.674,0.048-0.966,0.646-1.428,0.997
			c-1.138,0.215-2.151,0.686-3.023,1.453c-0.643,0.184-1.284,0.367-1.926,0.549c-0.821,0.313-1.643,0.623-2.465,0.935
			c-1.314,0.343-2.628,0.688-3.941,1.032c-0.85,0.024-1.743-0.203-2.486,0.43c-1.334,0.096-2.72-0.166-3.96,0.574
			c-1.288-0.003-2.575-0.004-3.863-0.007c-1.593,0.728-3.28,0.38-4.933,0.434c-1.063-0.795-2.287-0.357-3.443-0.45
			c-1.433-0.627-3.201,0.35-4.496-0.941c-0.812-0.02-1.623-0.037-2.435-0.055c-1.208,0.229-2.176-1.154-3.445-0.514
			c-0.667-1.135-1.893-1.142-2.961-1.464c-0.569-0.016-1.129-0.062-1.55-0.518c-1.051-0.771-2.254-1.202-3.483-1.577
			c-1.058-0.268-1.685-1.095-2.379-1.834c-0.813-0.532-1.624-1.063-2.437-1.596c-1.351-1.723-2.914-3.293-3.822-5.334
			c-0.678-4.195,0.797-7.476,4.112-10.08c4.903-3.854,10.642-5.543,16.623-6.688C145.277,7.762,146.415,8.306,146.431,6.914z
			 M166.661,32.541c6.129-0.505,11.707-2.42,16.255-6.691c2.57-2.414,2.485-4.723,0.117-7.247c-2.082-2.219-4.711-3.548-7.448-4.667
			c-8.025-3.279-16.481-3.616-24.919-2.913c-6.629,0.552-13.089,2.181-18.632,6.289c-4.125,3.058-4.131,6.669-0.05,9.747
			c3.698,2.787,8.021,4.029,12.332,5.344c0.764,0.233,1.455-0.029,2.141-0.32c0.296,0.266,0.564,0.723,0.893,0.77
			C153.801,33.779,160.248,34.084,166.661,32.541z"/>
		<path fill-rule="evenodd" clip-rule="evenodd" fill="#FAC52D" d="M191.29,51.28c0,1.644,0,3.286,0,4.929
			c-0.89,0.438-1.22,1.315-1.521,2.139c-0.489,1.339-1.156,2.491-2.43,3.215c-0.995,0.842-1.991,1.688-2.986,2.531
			c-0.643,0.32-1.286,0.641-1.929,0.961c-1.193,0.662-2.387,1.322-3.58,1.982c-0.459,0.184-0.919,0.364-1.378,0.546
			c-1.094-0.026-2.08,0.3-2.978,0.913c-1.046,0.638-2.438,0.116-3.403,1.018c-1.197-0.088-2.407-0.266-3.484,0.49
			c-1.484,0.095-3.025-0.283-4.425,0.523c-0.97,0.003-1.938,0.006-2.908,0.01c-1.44,0.711-3,0.359-4.503,0.511
			c-1.372-0.702-2.835-1.006-4.368-1.006c-0.978-0.016-1.956-0.031-2.935-0.047c-0.844-0.798-2.092-0.274-2.983-0.913
			c-1.17-0.246-2.345-0.207-3.52-0.047c-0.471-1.484-1.835-1.255-2.937-1.529c-0.715-0.648-1.611-0.368-2.432-0.473
			c-0.329-1.315-1.396-1.4-2.466-1.48l-0.005,0.016c-0.17-0.182-0.34-0.364-0.51-0.547c-0.629-0.318-1.258-0.637-1.886-0.955
			c-0.768-1.111-1.802-1.887-3.031-2.418c-0.989-1.48-1.977-2.964-2.966-4.445c1.137-0.838,1.882,0.832,2.946,0.459
			c0.64,0.766,1.506,0.994,2.449,1.04c0.893,0.623,1.879,0.952,2.972,0.94c0.497,0.178,0.994,0.354,1.492,0.531
			c2.349,1.748,5.055,2.697,7.845,3.416c8.614,2.221,17.329,2.672,26.044,0.861c5.461-1.135,10.873-2.604,14.907-6.968
			c2.556-2.765,1.975-5.992-1.519-7.761c0.549-1.646,1.097-3.291,1.646-4.938c2.171,1.025,3.761,2.696,5.237,4.54
			C190.266,49.973,190.038,51.228,191.29,51.28z"/>
		<path fill-rule="evenodd" clip-rule="evenodd" fill="#FCD648" d="M117.346,31.563c1.029,0.784,0.912-0.398,1.13-0.74
			c1.326-2.077,3.005-3.75,5.206-4.882c0.021,2.276,0.023,4.556,0.063,6.832c0.051,2.889,0.817,5.458,3.329,7.218
			c0.888,1.008,1.658,2.161,3.092,2.491c0.561,0.885,1.472,1.188,2.407,1.452c0.691,0.709,1.628,0.961,2.498,1.336
			c0.664,0.191,1.328,0.385,1.991,0.577c0.999,0.827,2.208,0.991,3.438,1.087c1.097,0.535,2.252,0.836,3.475,0.859
			c0.743,0.52,1.575,0.574,2.438,0.479c1.79,0.48,3.605,0.672,5.456,0.494c0.731,0.544,1.56,0.594,2.421,0.479
			c1.661,0,3.32,0,4.981,0c0.974-0.157,1.947-0.316,2.922-0.476c1.335-0.006,2.704,0.287,3.952-0.461
			c0.639,0.035,1.276,0.069,2.252,0.122c-0.693,0.424-1.015,0.62-1.336,0.817c-1.298,0.37-2.599,0.741-3.898,1.11
			c-0.866-0.071-1.74-0.188-2.518,0.364c-1.621,0.199-3.241,0.398-4.862,0.598c-0.974,0.012-1.947,0.023-2.921,0.036
			c-1.691-0.35-3.269,0.654-4.95,0.418c-0.735-0.608-1.585-0.416-2.417-0.349c-1.684-0.054-3.285-0.809-5.002-0.584
			c-0.148-0.043-0.301-0.069-0.455-0.08c-0.16-0.104-0.32-0.207-0.48-0.313c-0.659-0.029-1.317-0.059-1.977-0.088
			c-1.095-0.588-2.299-0.781-3.506-0.965c-0.973-0.238-1.945-0.478-2.92-0.715c-0.561-0.863-1.488-0.855-2.357-0.988
			c-0.719-0.729-1.627-1.107-2.584-1.393c-0.558-0.885-1.472-1.199-2.396-1.499c-0.656-0.505-1.312-1.011-1.967-1.516
			c-1.983-1.757-3.053-4.167-4.506-6.302C117.346,35.177,117.346,33.369,117.346,31.563z"/>
		<path fill-rule="evenodd" clip-rule="evenodd" fill="#E3AE18" d="M168.144,79.979c-0.228,0.26-1.121,0.131-0.516,0.879
			c-1.479,0-2.957,0-4.437,0c-0.006-3.443-0.011-6.887-0.016-10.33c1.4-0.807,2.941-0.429,4.427-0.523
			c0.695,0.729,0.516,1.648,0.523,2.514C168.146,75.004,168.14,77.492,168.144,79.979z"/>
		<path fill-rule="evenodd" clip-rule="evenodd" fill="#E3AE18" d="M148.403,80.857c0.619-0.766-0.245-0.64-0.521-0.867
			c0.009-1.046-0.058-2.1,0.041-3.139c0.219-2.283-0.612-4.649,0.54-6.857c0.979,0.017,1.957,0.032,2.935,0.048
			c1.146,0.575,1.522,1.477,1.477,2.767c-0.096,2.68-0.033,5.365-0.034,8.049C151.36,80.857,149.882,80.857,148.403,80.857z"/>
		<path fill-rule="evenodd" clip-rule="evenodd" fill="#E3AE18" d="M155.766,71.048c1.503-0.151,3.063,0.2,4.503-0.512
			c0.969,3.404,0.225,6.885,0.458,10.321c-1.644,0-3.286,0-4.93,0C155.786,77.588,155.775,74.318,155.766,71.048z"/>
		<path fill-rule="evenodd" clip-rule="evenodd" fill="#E1AC18" d="M117.346,36.984c1.453,2.135,2.522,4.545,4.506,6.302
			c-0.835,0.977-0.455,2.161-0.567,3.263c-0.213,2.063,0.514,4.197-0.47,6.201c-1.133-0.738-1.719-1.914-2.408-3.008
			c-0.247-0.392-0.354-1.152-1.061-0.434C117.346,45.199,117.346,41.092,117.346,36.984z"/>
		<path fill-rule="evenodd" clip-rule="evenodd" fill="#E1AC18" d="M191.29,68.041c-1.314-0.307-1.011,1-1.459,1.528
			c-0.771,0.911-1.412,1.931-2.418,2.624c-0.024-3.544-0.049-7.088-0.073-10.631c1.273-0.724,1.94-1.876,2.43-3.215
			c0.301-0.823,0.631-1.701,1.521-2.139C191.29,60.153,191.29,64.096,191.29,68.041z"/>
		<path fill-rule="evenodd" clip-rule="evenodd" fill="#CF9B13" d="M155.766,71.048c0.01,3.271,0.021,6.54,0.031,9.81
			c-0.986,0-1.972,0-2.957,0c0.001-2.684-0.062-5.369,0.034-8.049c0.046-1.29-0.331-2.191-1.477-2.767
			C152.931,70.042,154.394,70.346,155.766,71.048z"/>
		<path fill-rule="evenodd" clip-rule="evenodd" fill="#CD9912" d="M160.727,80.857c-0.233-3.437,0.511-6.917-0.458-10.321
			c0.97-0.003,1.938-0.006,2.908-0.009c0.004,3.443,0.009,6.887,0.015,10.33C162.37,80.857,161.548,80.857,160.727,80.857z"/>
		<path fill-rule="evenodd" clip-rule="evenodd" fill="#FED848" d="M146.457,32.082c-0.686,0.291-1.377,0.554-2.141,0.32
			c-4.312-1.314-8.634-2.557-12.332-5.344c-4.081-3.078-4.075-6.689,0.05-9.747c5.543-4.108,12.003-5.737,18.632-6.289
			c8.438-0.703,16.894-0.366,24.919,2.913c2.737,1.119,5.366,2.448,7.448,4.667c2.368,2.524,2.453,4.833-0.117,7.247
			c-4.548,4.271-10.126,6.187-16.255,6.691c-1.415-0.628-2.861-1.196-4.236-1.902c-1.069-0.549-1.899-1.533-0.502-2.402
			c1.752-1.088,2.685-2.799,4.019-4.193c1.419-1.483,0.832-2.277-0.198-3.459c-1.88-2.154-4.174-3.129-7.003-3.543
			c-2.428-0.354-4.939,0.212-7.289-0.771c-0.518-0.217-0.887-0.041-1.096,0.584c-0.539,1.611-1.825,2.664-3.021,3.766
			c-0.891,0.819-1.343,1.834-0.527,2.807c1.286,1.533,2.017,3.51,4.016,4.502c1.646,0.817,1.246,2.014-0.199,2.699
			C149.302,31.254,147.851,31.607,146.457,32.082z"/>
		<path fill-rule="evenodd" clip-rule="evenodd" fill="#EFC31B" d="M146.457,32.082c1.394-0.475,2.845-0.828,4.166-1.455
			c1.445-0.686,1.846-1.882,0.199-2.699c-1.999-0.992-2.729-2.969-4.016-4.502c-0.815-0.973-0.363-1.987,0.527-2.807
			c1.196-1.102,2.482-2.154,3.021-3.766c0.209-0.625,0.578-0.801,1.096-0.584c2.35,0.983,4.861,0.418,7.289,0.771
			c2.829,0.414,5.123,1.389,7.003,3.543c1.03,1.182,1.617,1.976,0.198,3.459c-1.334,1.395-2.267,3.105-4.019,4.193
			c-1.397,0.869-0.567,1.854,0.502,2.402c1.375,0.706,2.821,1.274,4.236,1.902c-6.413,1.543-12.86,1.238-19.312,0.311
			C147.021,32.805,146.753,32.348,146.457,32.082z"/>
		<path fill-rule="evenodd" clip-rule="evenodd" fill="#E2AE18" d="M169.581,37.506c1.313-0.345,2.627-0.689,3.941-1.031
			c0.007,1.805,0.155,3.623-0.021,5.409c-0.182,1.829,1.149,4.28-1.806,5.187c-0.104,0.031-0.194,0.443-0.134,0.627
			c1.075,3.285,0.254,6.663,0.5,9.987c-0.702,0.636-1.573,0.835-2.475,0.957C169.586,51.596,169.583,44.551,169.581,37.506z"/>
		<path fill-rule="evenodd" clip-rule="evenodd" fill="#E1AC18" d="M151.87,48.766c-1.851,0.178-3.666-0.014-5.456-0.494
			c-0.005-3.574-0.01-7.15-0.015-10.727c1.295,1.291,3.063,0.314,4.495,0.941c0.83,0.7,0.985,1.617,0.97,2.653
			C151.829,43.681,151.863,46.223,151.87,48.766z"/>
		<path fill-rule="evenodd" clip-rule="evenodd" fill="#CD9912" d="M169.581,37.506c0.002,7.045,0.005,14.09,0.007,21.136
			c-0.825,0.237-1.649,0.475-2.473,0.711c-0.019-3.368-0.036-6.736-0.053-10.104c0.321-0.197,0.643-0.394,1.336-0.817
			c-0.976-0.053-1.613-0.087-2.252-0.122c0.808-0.686,1.022-1.566,1-2.602c-0.057-2.59-0.039-5.182-0.052-7.771
			C167.838,37.303,168.731,37.53,169.581,37.506z"/>
		<path fill-rule="evenodd" clip-rule="evenodd" fill="#E2AE18" d="M183.428,42.461c-0.089,0.984-0.189,1.974,1.083,2.324
			c-0.549,1.646-1.097,3.292-1.645,4.938c-1.046,0.947-1.583,2.367-2.879,3.078c0.146-3.317-0.148-6.584,0.755-9.951
			c0.779-2.914,0.183-6.193,0.194-9.313c0.462-0.352,0.754-0.949,1.429-0.997c1.198,0.309,1.032,1.289,1.039,2.159
			C183.424,37.287,183.422,39.873,183.428,42.461z"/>
		<path fill-rule="evenodd" clip-rule="evenodd" fill="#CD9912" d="M172.062,57.685c-0.246-3.324,0.575-6.702-0.5-9.987
			c-0.061-0.184,0.029-0.596,0.134-0.627c2.955-0.906,1.624-3.357,1.806-5.187c0.177-1.786,0.028-3.604,0.021-5.409
			c0.822-0.313,1.644-0.623,2.466-0.936c0.006,2.374,0.035,4.748,0.01,7.121c-0.012,1.052,0.459,2.43-0.279,3.093
			c-1.575,1.416-1.129,3.115-1.174,4.767c-0.056,2.045-0.021,4.092-0.024,6.138C173.7,57,172.881,57.342,172.062,57.685z"/>
		<path fill-rule="evenodd" clip-rule="evenodd" fill="#CF9B13" d="M180.937,33.537c-0.012,3.119,0.585,6.398-0.194,9.313
			c-0.903,3.367-0.609,6.634-0.755,9.951c-0.597,0.933-1.499,1.485-2.456,1.97c-0.885-3.037-0.971-6.114,0.107-9.079
			c1.3-3.574,1.13-7.109,0.274-10.701C178.785,34.223,179.799,33.752,180.937,33.537z"/>
		<path fill-rule="evenodd" clip-rule="evenodd" fill="#E3AE18" d="M159.272,49.245c-1.661,0-3.32,0-4.98,0.001
			c0.016-3.437,0.031-6.873,0.047-10.31c1.652-0.054,3.34,0.294,4.933-0.434C159.271,42.083,159.272,45.664,159.272,49.245z"/>
		<path fill-rule="evenodd" clip-rule="evenodd" fill="#E2AE18" d="M167.095,37.936c0.013,2.59-0.005,5.182,0.052,7.771
			c0.022,1.035-0.192,1.916-1,2.602c-1.248,0.748-2.617,0.455-3.952,0.461c0.001-2.535,0.027-5.07-0.008-7.606
			c-0.015-1.026,0.111-1.954,0.948-2.653C164.375,37.77,165.761,38.031,167.095,37.936z"/>
		<path fill-rule="evenodd" clip-rule="evenodd" fill="#E2AE18" d="M177.913,34.99c0.855,3.592,1.025,7.127-0.274,10.701
			c-1.078,2.965-0.992,6.042-0.107,9.078c-0.751,1.031-1.94,1.367-3.011,1.888c0.004-2.046-0.031-4.093,0.024-6.138
			c0.045-1.651-0.401-3.351,1.174-4.767c0.738-0.663,0.268-2.041,0.279-3.093c0.025-2.373-0.004-4.747-0.01-7.121
			C176.629,35.357,177.271,35.174,177.913,34.99z"/>
		<path fill-rule="evenodd" clip-rule="evenodd" fill="#E1AC18" d="M127.074,39.99c-2.512-1.76-3.278-4.329-3.329-7.218
			c-0.04-2.276-0.043-4.556-0.063-6.832c0.068-0.429,0.137-0.856,0.206-1.285c0.908,2.04,2.472,3.61,3.822,5.335
			c-0.005,1.373,0.093,2.756-0.036,4.117C127.485,36.068,128.334,38.142,127.074,39.99z"/>
		<path fill-rule="evenodd" clip-rule="evenodd" fill="#E3AE18" d="M143.976,47.793c-1.223-0.023-2.378-0.324-3.475-0.859
			c0.006-3.32,0.013-6.639,0.019-9.957c1.27-0.641,2.237,0.742,3.445,0.514C143.969,40.924,143.972,44.358,143.976,47.793z"/>
		<path fill-rule="evenodd" clip-rule="evenodd" fill="#E1AC18" d="M189.75,25.146c0.187,4.004,0.937,8.057-0.923,11.894
			c-0.454,0.937-0.996,1.849-1.912,2.444c-0.707-0.719-0.546-1.637-0.552-2.506c-0.018-2.488-0.011-4.977-0.015-7.465
			C187.482,28.058,188.616,26.602,189.75,25.146z"/>
		<path fill-rule="evenodd" clip-rule="evenodd" fill="#CF9B13" d="M186.349,29.514c0.004,2.488-0.003,4.977,0.015,7.465
			c0.006,0.869-0.155,1.787,0.552,2.506c-0.886,1.317-2.012,2.352-3.487,2.977c-0.006-2.588-0.004-5.174-0.023-7.762
			c-0.007-0.87,0.159-1.851-1.039-2.159C183.692,31.531,185.021,30.522,186.349,29.514z"/>
		<path fill-rule="evenodd" clip-rule="evenodd" fill="#CF9B13" d="M140.52,36.977c-0.006,3.318-0.013,6.637-0.019,9.957
			c-1.23-0.096-2.439-0.26-3.438-1.087c1.056-3.401,0.258-6.893,0.496-10.334C138.627,35.835,139.853,35.842,140.52,36.977z"/>
		<path fill-rule="evenodd" clip-rule="evenodd" fill="#CF9B13" d="M163.135,38.51c-0.837,0.699-0.963,1.627-0.948,2.653
			c0.035,2.536,0.009,5.071,0.008,7.606c-0.975,0.159-1.948,0.318-2.922,0.476c0-3.581-0.001-7.162-0.001-10.742
			C160.56,38.506,161.847,38.507,163.135,38.51z"/>
		<path fill-rule="evenodd" clip-rule="evenodd" fill="#CD9912" d="M127.074,39.99c1.26-1.849,0.411-3.922,0.6-5.883
			c0.129-1.361,0.031-2.744,0.036-4.117c0.813,0.531,1.624,1.062,2.437,1.594c0.008,3.633,0.013,7.266,0.02,10.898
			C128.732,42.151,127.962,40.998,127.074,39.99z"/>
		<path fill-rule="evenodd" clip-rule="evenodd" fill="#CD9912" d="M135.071,45.27c-0.87-0.375-1.807-0.627-2.498-1.336
			c-0.015-3.506-0.031-7.01-0.048-10.516c1.229,0.375,2.433,0.807,3.484,1.577c-1.126,0.423-0.898,1.41-0.908,2.268
			C135.074,39.932,135.079,42.6,135.071,45.27z"/>
		<path fill-rule="evenodd" clip-rule="evenodd" fill="#CD9912" d="M154.339,38.937c-0.016,3.437-0.031,6.873-0.047,10.31
			c-0.862,0.113-1.69,0.063-2.422-0.48c-0.007-2.543-0.041-5.085-0.006-7.626c0.016-1.036-0.14-1.953-0.97-2.653
			C152.052,38.579,153.275,38.142,154.339,38.937z"/>
		<path fill-rule="evenodd" clip-rule="evenodd" fill="#CD9912" d="M143.976,47.793c-0.004-3.435-0.007-6.869-0.011-10.303
			c0.812,0.018,1.623,0.035,2.435,0.055c0.005,3.576,0.01,7.152,0.015,10.727C145.551,48.367,144.719,48.313,143.976,47.793z"/>
		<path fill-rule="evenodd" clip-rule="evenodd" fill="#E3AE18" d="M132.525,33.418c0.017,3.506,0.033,7.01,0.048,10.516
			c-0.936-0.264-1.847-0.567-2.407-1.452c-0.007-3.632-0.012-7.265-0.02-10.897C130.841,32.323,131.468,33.15,132.525,33.418z"/>
		<path fill-rule="evenodd" clip-rule="evenodd" fill="#E1AC18" d="M135.071,45.27c0.008-2.67,0.003-5.338,0.03-8.007
			c0.01-0.857-0.218-1.845,0.908-2.268c0.42,0.456,0.979,0.502,1.549,0.518c-0.238,3.441,0.56,6.933-0.496,10.334
			C136.399,45.654,135.735,45.461,135.071,45.27z"/>
		<path fill-rule="evenodd" clip-rule="evenodd" fill="#FED748" d="M174.521,56.657c1.07-0.521,2.26-0.856,3.011-1.888
			c0.957-0.483,1.859-1.036,2.456-1.969c1.296-0.711,1.833-2.131,2.879-3.078c3.492,1.769,4.073,4.996,1.518,7.761
			c-4.034,4.364-9.446,5.833-14.907,6.968c-8.715,1.811-17.43,1.359-26.044-0.861c-2.79-0.719-5.496-1.668-7.845-3.416
			c0.646,0.01,1.292,0.02,1.938,0.029c0.898,0.666,1.979,0.375,2.969,0.566c1.662,0.244,3.323,0.487,4.984,0.732
			c0.802,0.021,1.602,0.04,2.402,0.061c1.663-0.002,3.325-0.004,4.987-0.007c0.967-0.016,1.933-0.033,2.899-0.05
			c1.659-0.239,3.318-0.479,4.978-0.719c0.806-0.085,1.611-0.169,2.417-0.253c1.364-0.235,2.76-0.366,3.952-1.182
			c0.823-0.236,1.647-0.474,2.473-0.711c0.9-0.122,1.771-0.321,2.474-0.957C172.881,57.342,173.7,57,174.521,56.657z"/>
		<path fill-rule="evenodd" clip-rule="evenodd" fill="#E2AE18" d="M145.411,79.632c-1.294-0.312-2.588-0.624-3.882-0.936
			c0.208-3.218-0.571-6.479,0.431-9.661c1.175-0.16,2.35-0.199,3.52,0.047C145.457,72.599,145.434,76.115,145.411,79.632z"/>
		<path fill-rule="evenodd" clip-rule="evenodd" fill="#E1AC18" d="M128.147,71.518c-2.085-1.807-3.043-4.15-3.107-6.849
			c-0.052-2.183,0.041-4.37,0.069-6.556c0.206-0.304,0.413-0.607,0.619-0.91c0.989,1.481,1.977,2.965,2.966,4.445
			C128.394,64.932,129.297,68.281,128.147,71.518z"/>
		<path fill-rule="evenodd" clip-rule="evenodd" fill="#E3AE18" d="M137.525,60.203c-0.646-0.01-1.292-0.02-1.938-0.029
			c-0.498-0.177-0.995-0.354-1.492-0.531c-0.007-3.416-0.013-6.83-0.02-10.246c1.207,0.184,2.411,0.377,3.506,0.963
			C137.563,53.641,137.545,56.922,137.525,60.203z"/>
		<path fill-rule="evenodd" clip-rule="evenodd" fill="#E2AE18" d="M174.509,78.716c-1.137,0.255-2.272,0.509-3.409,0.763
			c-0.005-3.322-0.01-6.644-0.014-9.965c0.965-0.901,2.357-0.38,3.403-1.018C174.496,71.902,174.502,75.309,174.509,78.716z"/>
		<path fill-rule="evenodd" clip-rule="evenodd" fill="#CD9912" d="M174.509,78.716c-0.007-3.407-0.013-6.813-0.02-10.22
			c0.897-0.613,1.884-0.939,2.978-0.913c0.004,0.978-0.072,1.962,0.024,2.931c0.232,2.311-0.638,4.711,0.563,6.94
			C177.023,78.297,175.792,78.58,174.509,78.716z"/>
		<path fill-rule="evenodd" clip-rule="evenodd" fill="#CD9912" d="M171.086,69.514c0.004,3.321,0.009,6.643,0.014,9.965
			c-0.915,0.579-1.936,0.547-2.956,0.5c-0.004-2.486,0.003-4.975-0.018-7.461c-0.008-0.865,0.172-1.785-0.523-2.514
			C168.679,69.248,169.889,69.426,171.086,69.514z"/>
		<path fill-rule="evenodd" clip-rule="evenodd" fill="#E1AC18" d="M133.554,75.469c-0.92-0.291-1.738-0.76-2.451-1.41
			c0.019-1.207-0.037-2.421,0.07-3.621c0.191-2.122-0.588-4.333,0.553-6.371c0.628,0.318,1.257,0.637,1.887,0.955
			c0.169,0.184,0.339,0.365,0.509,0.547l0.005-0.016c-0.009,0.898,0.05,1.805-0.04,2.695
			C133.845,70.65,134.706,73.137,133.554,75.469z"/>
		<path fill-rule="evenodd" clip-rule="evenodd" fill="#CF9B13" d="M134.076,49.396c0.007,3.416,0.013,6.83,0.02,10.246
			c-1.093,0.012-2.079-0.317-2.971-0.94c0.011-3.341,0.021-6.681,0.031-10.022C132.131,48.919,133.104,49.158,134.076,49.396z"/>
		<path fill-rule="evenodd" clip-rule="evenodd" fill="#BF8F11" d="M125.729,57.203c-0.206,0.303-0.413,0.606-0.619,0.91
			c-0.051-0.648-0.1-1.295-0.149-1.941c1.308-0.027,1.276-0.963,1.274-1.88c-0.007-2.664-0.013-5.327-0.02-7.991
			c0.957,0.285,1.865,0.664,2.583,1.395c-0.042,3.323-0.083,6.646-0.123,9.967C127.61,58.035,126.865,56.365,125.729,57.203z"/>
		<path fill-rule="evenodd" clip-rule="evenodd" fill="#CD9912" d="M131.726,64.066c-1.141,2.038-0.361,4.249-0.553,6.371
			c-0.107,1.2-0.052,2.414-0.07,3.621c-1.269-0.518-2.196-1.433-2.955-2.542c1.149-3.235,0.246-6.585,0.547-9.868
			C129.924,62.18,130.958,62.955,131.726,64.066z"/>
		<path fill-rule="evenodd" clip-rule="evenodd" fill="#CB9712" d="M187.34,61.563c0.024,3.543,0.049,7.087,0.073,10.631
			c-0.624,0.975-1.521,1.62-2.552,2.103c-0.249-3.396,0.629-6.85-0.509-10.202C185.349,63.25,186.345,62.404,187.34,61.563z"/>
		<path fill-rule="evenodd" clip-rule="evenodd" fill="#CB9712" d="M141.96,69.035c-1.002,3.182-0.223,6.443-0.431,9.661
			c-1.136-0.169-2.261-0.368-3.18-1.142c0.775-0.679,0.686-1.601,0.686-2.489c0.002-2.521-0.007-5.04-0.012-7.56
			C140.125,67.78,141.489,67.551,141.96,69.035z"/>
		<path fill-rule="evenodd" clip-rule="evenodd" fill="#CB9712" d="M182.46,75.59c-0.663,0.773-1.552,1.089-2.521,1.24
			c0.004-2.545,0.014-5.092,0.007-7.637c-0.003-0.896,0.129-1.879-1.102-2.156c1.193-0.66,2.387-1.32,3.58-1.982
			C182.437,68.566,182.448,72.078,182.46,75.59z"/>
		<path fill-rule="evenodd" clip-rule="evenodd" fill="#CD9912" d="M133.554,75.469c1.152-2.332,0.291-4.818,0.532-7.221
			c0.09-0.891,0.031-1.797,0.04-2.695c1.069,0.08,2.137,0.165,2.465,1.48c-0.004,3.278-0.009,6.557-0.013,9.836
			C135.398,76.775,134.402,76.281,133.554,75.469z"/>
		<path fill-rule="evenodd" clip-rule="evenodd" fill="#E2AE18" d="M182.46,75.59c-0.012-3.512-0.023-7.023-0.035-10.535
			c0.643-0.32,1.286-0.641,1.929-0.961c1.137,3.353,0.259,6.806,0.508,10.202C184.062,74.727,183.261,75.158,182.46,75.59z"/>
		<path fill-rule="evenodd" clip-rule="evenodd" fill="#CB9712" d="M145.411,79.632c0.022-3.517,0.046-7.033,0.068-10.55
			c0.892,0.639,2.14,0.115,2.983,0.913c-1.152,2.207-0.321,4.573-0.54,6.856c-0.099,1.039-0.032,2.093-0.041,3.139
			C147.059,79.871,146.234,79.752,145.411,79.632z"/>
		<path fill-rule="evenodd" clip-rule="evenodd" fill="#E1AC18" d="M128.675,57.662c0.04-3.321,0.081-6.644,0.123-9.967
			c0.87,0.131,1.798,0.123,2.358,0.986c-0.01,3.34-0.021,6.68-0.031,10.021C130.181,58.656,129.314,58.428,128.675,57.662z"/>
		<path fill-rule="evenodd" clip-rule="evenodd" fill="#E2AE18" d="M136.578,76.869c0.004-3.279,0.009-6.558,0.013-9.836
			c0.821,0.104,1.718-0.176,2.433,0.473c0.005,2.52,0.014,5.039,0.012,7.56c0,0.889,0.09,1.811-0.686,2.489
			C137.76,77.326,137.168,77.098,136.578,76.869z"/>
		<path fill-rule="evenodd" clip-rule="evenodd" fill="#E2AE18" d="M178.845,67.037c1.23,0.277,1.099,1.261,1.102,2.156
			c0.007,2.545-0.003,5.092-0.007,7.637c-0.627,0.207-1.256,0.416-1.885,0.624c-1.201-2.229-0.331-4.63-0.563-6.94
			c-0.097-0.969-0.021-1.953-0.024-2.931C177.926,67.401,178.386,67.221,178.845,67.037z"/>
		<path fill-rule="evenodd" clip-rule="evenodd" fill="#CD9912" d="M134.121,65.568c-0.17-0.182-0.34-0.363-0.509-0.547
			C133.781,65.204,133.951,65.387,134.121,65.568z"/>
		<path fill-rule="evenodd" clip-rule="evenodd" fill="#CD9912" d="M120.814,52.75c0.983-2.004,0.257-4.139,0.47-6.201
			c0.112-1.102-0.268-2.286,0.567-3.263c0.655,0.505,1.311,1.011,1.966,1.517c-0.019,3.451-0.036,6.904-0.054,10.355
			C122.583,54.599,121.522,53.889,120.814,52.75z"/>
		<path fill-rule="evenodd" clip-rule="evenodd" fill="#E3AE18" d="M123.764,55.158c0.018-3.451,0.035-6.904,0.054-10.355
			c0.926,0.299,1.84,0.613,2.397,1.498c0.007,2.664,0.013,5.327,0.02,7.991c0.002,0.917,0.033,1.853-1.274,1.88
			C124.561,55.834,124.162,55.496,123.764,55.158z"/>
		<path fill-rule="evenodd" clip-rule="evenodd" fill="#E3AE18" d="M145.479,61.502c-1.661-0.245-3.322-0.488-4.983-0.733
			c-0.001-3.31-0.001-6.618-0.002-9.927c1.717-0.225,3.318,0.53,5.002,0.584C145.49,54.783,145.485,58.143,145.479,61.502z"/>
		<path fill-rule="evenodd" clip-rule="evenodd" fill="#E3AE18" d="M160.746,60.789c-1.659,0.238-3.318,0.478-4.978,0.718
			c0.005-3.396,0.01-6.791,0.015-10.187c1.622-0.199,3.242-0.398,4.864-0.598C160.681,54.078,160.713,57.434,160.746,60.789z"/>
		<path fill-rule="evenodd" clip-rule="evenodd" fill="#E3AE18" d="M152.869,61.556c-1.662,0.003-3.324,0.005-4.987,0.007
			c0.011-3.263,0.02-6.525,0.031-9.788c1.682,0.236,3.259-0.768,4.95-0.42C152.865,54.756,152.867,58.156,152.869,61.556z"/>
		<path fill-rule="evenodd" clip-rule="evenodd" fill="#E2AE18" d="M167.115,59.353c-1.192,0.815-2.588,0.946-3.952,1.182
			c0.001-3.391,0.001-6.783,0.001-10.176c1.3-0.369,2.601-0.74,3.898-1.11C167.079,52.616,167.097,55.984,167.115,59.353z"/>
		<path fill-rule="evenodd" clip-rule="evenodd" fill="#CF9B13" d="M152.869,61.556c-0.002-3.399-0.004-6.8-0.006-10.201
			c0.974-0.011,1.947-0.022,2.921-0.034c-0.006,3.396-0.011,6.791-0.016,10.187C154.802,61.522,153.836,61.54,152.869,61.556z"/>
		<path fill-rule="evenodd" clip-rule="evenodd" fill="#CF9B13" d="M140.494,50.842c0.001,3.309,0.001,6.617,0.002,9.927
			c-0.99-0.19-2.071,0.101-2.97-0.565c0.019-3.281,0.037-6.563,0.056-9.844c0.659,0.031,1.317,0.061,1.976,0.09
			c0.159,0.103,0.32,0.208,0.481,0.313C140.193,50.772,140.346,50.799,140.494,50.842z"/>
		<path fill-rule="evenodd" clip-rule="evenodd" fill="#CD9912" d="M163.164,50.358c0,3.393,0,6.785-0.001,10.176
			c-0.806,0.084-1.611,0.168-2.417,0.253c-0.033-3.354-0.065-6.709-0.099-10.064C161.424,50.17,162.298,50.287,163.164,50.358z"/>
		<path fill-rule="evenodd" clip-rule="evenodd" fill="#CD9912" d="M147.913,51.774c-0.012,3.263-0.021,6.525-0.031,9.788
			c-0.801-0.021-1.601-0.039-2.402-0.061c0.006-3.359,0.011-6.719,0.017-10.076C146.328,51.358,147.178,51.166,147.913,51.774z"/>
		<path fill-rule="evenodd" clip-rule="evenodd" fill="#E3AE18" d="M140.039,50.762c-0.161-0.104-0.322-0.21-0.481-0.313
			C139.719,50.555,139.879,50.658,140.039,50.762z"/>
	</g>
	<g>
		<g>
			
				<rect x="73.953" y="128.505" transform="matrix(0.628 -0.7782 0.7782 0.628 -85.3217 132.5224)" fill="#FFFFFF" stroke="#1C1C1B" stroke-miterlimit="10" width="44.001" height="54"/>
			<text transform="matrix(0.628 -0.7782 0.7782 0.628 78.3057 164.4385)" font-family="'Roboto-Light'" font-size="15.3525">5</text>
			<path fill="#1C1C1B" d="M97.22,150.982c-1.323,2.942,0.802,6.44,4.114,6.752c0.635,0.063,1.486-0.044,2.063-0.267
				c0.565-0.214,1.127-0.238,1.978-0.061c0.507,0.096,1.388,0.359,1.476,0.43c0.022,0.018-0.229,0-0.561-0.027
				c-2.623-0.263-4.824,1.645-4.903,4.245c-0.027,0.919,0.309,2.032,0.878,2.866c0.236,0.348,0.414,0.527,0.955,0.973
				c0.704,0.568,1.038,0.753,1.745,0.969c0.997,0.301,2.272,0.236,3.192-0.157c1.942-0.843,2.998-2.929,2.527-5.003
				c-0.063-0.283-0.166-0.628-0.233-0.775c-0.162-0.379-0.048-0.27,0.244,0.234c0.368,0.615,0.677,1.375,0.802,1.96
				c0.295,1.307,0.035,2.877-0.647,3.99c-0.138,0.21-0.239,0.401-0.237,0.421c0.002,0.018,1.584-1.932,3.52-4.33
				c1.932-2.396,3.479-4.344,3.434-4.332c-0.051,0.02-0.148,0.102-0.219,0.189c-0.217,0.267-1.088,0.844-1.65,1.086
				c-0.941,0.41-2.118,0.555-3.146,0.38c-0.469-0.073-1.461-0.347-1.461-0.397c-0.004-0.02,0.221-0.01,0.498,0.021
				c0.908,0.087,1.923-0.163,2.778-0.677c0.399-0.241,0.501-0.336,1.001-0.957c0.504-0.624,0.574-0.742,0.725-1.182
				c0.516-1.502,0.285-3.046-0.662-4.387c-0.252-0.357-0.426-0.533-0.975-0.977c-0.611-0.482-0.73-0.555-1.293-0.762
				c-1.775-0.659-3.578-0.322-4.911,0.92c-1.143,1.07-1.575,2.869-1.071,4.494c0.086,0.272,0.142,0.488,0.125,0.475
				c-0.066-0.053-0.423-0.714-0.607-1.117c-0.288-0.631-0.459-1.326-0.469-1.921c-0.024-1.149-0.154-1.986-0.408-2.554
				c-0.35-0.801-0.753-1.311-1.466-1.895c-0.923-0.762-1.882-1.12-3.049-1.137c-0.705-0.008-1.167,0.082-1.842,0.362
				C98.463,149.252,97.65,150.038,97.22,150.982z"/>
		</g>
		<g>
			
				<rect x="87.972" y="110.809" transform="matrix(0.8113 -0.5846 0.5846 0.8113 -60.0137 90.6861)" fill="#FFFFFF" stroke="#1C1C1B" stroke-miterlimit="10" width="45" height="54.999"/>
			<text transform="matrix(0.8113 -0.5846 0.5846 0.8113 90.0703 141.9448)" font-family="'Roboto-Light'" font-size="15.3525">6</text>
			<path fill="#FF0909" d="M110.248,138.056c-1.043,1.256-1.275,2.976-0.661,4.788c0.141,0.423,0.251,0.612,0.727,1.271
				c0.528,0.732,0.584,0.799,1.083,1.148c1.352,0.951,2.58,1.38,6.496,2.26c2.469,0.559,3.469,0.829,4.625,1.26
				c1.779,0.662,3.268,1.641,4.027,2.662c0.206,0.275,0.249,0.31,0.192,0.165c-0.044-0.107-0.164-0.315-0.261-0.466
				c-0.397-0.584-0.814-1.848-0.962-2.972c-0.212-1.521-0.167-2.692,0.266-6.827c0.26-2.506,0.294-3.795,0.118-4.93
				c-0.182-1.189-0.452-1.89-1.058-2.73c-0.93-1.291-2.167-2.037-3.692-2.231c-1.916-0.245-3.729,0.831-4.407,2.616
				c-0.149,0.4-0.294,1.229-0.308,1.727c-0.008,0.436,0.163,1.347,0.344,1.824l0.165,0.43l-0.358-0.294
				c-0.198-0.159-0.596-0.417-0.884-0.569C113.764,136.157,111.509,136.521,110.248,138.056z"/>
		</g>
		<g>
			
				<rect x="113.55" y="101.107" transform="matrix(0.9865 -0.1636 0.1636 0.9865 -19.1201 23.9759)" fill="#FFFFFF" stroke="#1C1C1B" stroke-miterlimit="10" width="44.997" height="53.999"/>
			<path fill="#050703" d="M141.229,127.757c-0.616,1.412-1.811,3.893-2.329,4.816c-0.619,1.111-2.251,3.377-4.025,5.592
				l-0.343,0.428l1.363,0.881c1.815,1.182,3.805,2.604,4.558,3.27c0.762,0.672,2.351,2.269,3.63,3.65
				c0.537,0.574,0.991,1.047,1.009,1.043c0.021-0.004,0.322-0.642,0.683-1.433c0.726-1.604,1.566-3.338,2.059-4.249
				c0.432-0.794,1.756-2.688,2.977-4.258c0.528-0.675,1.069-1.373,1.203-1.543l0.233-0.309l-1.285-0.824
				c-2.021-1.295-4.099-2.799-4.938-3.581c-0.896-0.839-2.512-2.478-3.56-3.622c-0.417-0.455-0.771-0.822-0.792-0.82
				C141.651,126.802,141.455,127.229,141.229,127.757z"/>
			<text transform="matrix(0.9865 -0.1635 0.1635 0.9865 116.4668 121.5264)" font-family="'Roboto-Light'" font-size="15.3525">7</text>
		</g>
		<g>
			
				<rect x="135.483" y="102.886" transform="matrix(0.9724 0.2331 -0.2331 0.9724 34.7533 -33.2401)" fill="#FFFFFF" stroke="#1C1C1B" stroke-miterlimit="10" width="44.998" height="55.001"/>
			<text transform="matrix(0.9724 0.2332 -0.2332 0.9724 142.7827 119.0537)" font-family="'Roboto-Light'" font-size="15.3525">8</text>
			<path fill="#1C1C1B" d="M163.018,130.318c-3.227,0.066-5.473,3.488-4.334,6.615c0.217,0.601,0.68,1.321,1.127,1.75
				c0.438,0.415,0.699,0.915,0.904,1.757c0.129,0.498,0.271,1.407,0.246,1.52c-0.009,0.025-0.099-0.208-0.216-0.521
				c-0.891-2.48-3.558-3.649-5.94-2.604c-0.842,0.365-1.703,1.152-2.211,2.021c-0.215,0.366-0.3,0.602-0.469,1.279
				c-0.212,0.879-0.233,1.264-0.125,1.994c0.154,1.028,0.762,2.15,1.51,2.814c1.597,1.393,3.932,1.452,5.604,0.134
				c0.228-0.176,0.495-0.417,0.602-0.542c0.271-0.307,0.221-0.158-0.105,0.32c-0.401,0.601-0.954,1.203-1.427,1.565
				c-1.055,0.83-2.587,1.269-3.884,1.128c-0.25-0.031-0.466-0.042-0.479-0.033c-0.02,0.012,2.42,0.602,5.42,1.32
				c2.991,0.717,5.419,1.277,5.386,1.244c-0.039-0.037-0.157-0.092-0.265-0.119c-0.334-0.08-1.229-0.621-1.69-1.023
				c-0.775-0.673-1.411-1.677-1.694-2.681c-0.133-0.452-0.311-1.467-0.266-1.489c0.016-0.011,0.104,0.193,0.194,0.463
				c0.312,0.853,0.972,1.663,1.806,2.217c0.387,0.256,0.517,0.306,1.291,0.49c0.781,0.188,0.919,0.203,1.381,0.15
				c1.576-0.179,2.871-1.051,3.675-2.48c0.216-0.383,0.3-0.614,0.464-1.303c0.174-0.758,0.188-0.896,0.136-1.494
				c-0.167-1.886-1.247-3.367-2.938-4.041c-1.458-0.57-3.268-0.188-4.521,0.963c-0.209,0.193-0.379,0.336-0.375,0.314
				c0.02-0.08,0.464-0.688,0.747-1.028c0.448-0.531,1.004-0.981,1.536-1.245c1.027-0.516,1.727-0.991,2.13-1.466
				c0.573-0.655,0.861-1.241,1.082-2.139c0.295-1.157,0.206-2.177-0.28-3.239c-0.297-0.642-0.574-1.02-1.117-1.51
				C165.113,130.699,164.056,130.299,163.018,130.318z"/>
		</g>
		<g>
			
				<rect x="165.799" y="117.571" transform="matrix(0.7914 0.6113 -0.6113 0.7914 127.6623 -84.9514)" fill="#FFFFFF" stroke="#1C1C1B" stroke-miterlimit="10" width="45" height="53.999"/>
			<text transform="matrix(0.7914 0.6113 -0.6113 0.7914 178.6758 126.6191)" font-family="'Roboto-Light'" font-size="15.3525">9</text>
			<path fill="#FF0909" d="M188.127,144.83c-1.502-0.644-3.218-0.374-4.781,0.729c-0.365,0.252-0.513,0.414-1.01,1.057
				c-0.552,0.717-0.6,0.789-0.794,1.365c-0.527,1.567-0.587,2.864-0.317,6.872c0.168,2.524,0.196,3.562,0.113,4.79
				c-0.131,1.896-0.645,3.602-1.41,4.62c-0.203,0.277-0.225,0.326-0.101,0.231c0.091-0.076,0.253-0.248,0.368-0.385
				c0.448-0.547,1.541-1.305,2.574-1.764c1.402-0.635,2.538-0.93,6.624-1.693c2.478-0.465,3.72-0.798,4.759-1.289
				c1.087-0.512,1.683-0.971,2.313-1.79c0.977-1.261,1.339-2.657,1.092-4.175c-0.31-1.906-1.86-3.338-3.762-3.481
				c-0.428-0.03-1.263,0.067-1.743,0.198c-0.417,0.116-1.243,0.54-1.655,0.85l-0.36,0.279l0.179-0.429
				c0.098-0.235,0.232-0.69,0.296-1.007C190.943,147.658,189.954,145.603,188.127,144.83z"/>
		</g>
	</g>
	<g>
		<g>
			<path fill-rule="evenodd" clip-rule="evenodd" fill="#FE6565" d="M45.465,125.302c-1.429,0-2.759-0.77-3.471-2.009l-25.871-45.11
				c-0.533-0.93-0.67-2.009-0.389-3.042c0.282-1.031,0.948-1.89,1.877-2.419l26.015-14.924c0.608-0.348,1.295-0.53,1.989-0.53
				c1.429,0,2.758,0.769,3.47,2.007l25.872,45.11c1.096,1.914,0.433,4.363-1.479,5.46l-26.024,14.925
				C46.847,125.119,46.16,125.302,45.465,125.302z"/>
			<path fill="#EFE3D2" d="M45.615,59.268c0.693,0,1.366,0.36,1.736,1.004l25.871,45.108c0.549,0.958,0.218,2.181-0.74,2.73
				l-26.023,14.925c-0.314,0.18-0.657,0.266-0.994,0.266c-0.693,0-1.366-0.36-1.737-1.006l-25.87-45.108
				c-0.549-0.958-0.219-2.18,0.743-2.728l26.021-14.927C44.936,59.354,45.278,59.268,45.615,59.268 M45.615,55.268L45.615,55.268
				c-1.042,0-2.072,0.274-2.979,0.792L16.61,70.99c-1.384,0.788-2.384,2.077-2.806,3.625c-0.422,1.548-0.216,3.168,0.583,4.561
				l25.871,45.11c1.07,1.861,3.064,3.016,5.207,3.016c1.043,0,2.074-0.275,2.981-0.794l26.027-14.927
				c2.869-1.646,3.864-5.319,2.221-8.188l-25.872-45.11C49.751,56.422,47.757,55.268,45.615,55.268L45.615,55.268z"/>
		</g>
		
			<rect x="36.979" y="82.077" transform="matrix(0.2615 -0.9652 0.9652 0.2615 -53.6548 109.4027)" fill-rule="evenodd" clip-rule="evenodd" fill="#F7E6D5" width="15.38" height="15.378"/>
	</g>
</g>
</svg>
