<?xml version="1.0" encoding="utf-8"?>
<!-- Generator: Adobe Illustrator 16.0.0, SVG Export Plug-In . SVG Version: 6.00 Build 0)  -->
<!DOCTYPE svg PUBLIC "-//W3C//DTD SVG 1.1//EN" "http://www.w3.org/Graphics/SVG/1.1/DTD/svg11.dtd">
<svg version="1.1" id="Capa_1" xmlns="http://www.w3.org/2000/svg" xmlns:xlink="http://www.w3.org/1999/xlink" x="0px" y="0px"
	 width="257px" height="56px" viewBox="0 0 257 56" enable-background="new 0 0 257 56" xml:space="preserve">
<g>
	<rect x="0.5" y="0.5" fill="#FFFFFF" stroke="#1C1C1B" stroke-miterlimit="10" width="46" height="55"/>
	<text transform="matrix(1 0 0 1 5.5 18.3965)" font-family="'Roboto-Light'" font-size="15.5269">2</text>
	<rect x="53.5" y="0.5" fill="#FFFFFF" stroke="#1C1C1B" stroke-miterlimit="10" width="46" height="55"/>
	<text transform="matrix(1 0 0 1 58 18.3965)" font-family="'Roboto-Light'" font-size="15.5269">7</text>
	<rect x="105.5" y="0.5" fill="#FFFFFF" stroke="#1C1C1B" stroke-miterlimit="10" width="46" height="55"/>
	<text transform="matrix(1 0 0 1 110.5 18.3965)" font-family="'Roboto-Light'" font-size="15.5269">J</text>
	<rect x="158.5" y="0.5" fill="#FFFFFF" stroke="#1C1C1B" stroke-miterlimit="10" width="46" height="55"/>
	<text transform="matrix(1 0 0 1 163 18.3965)" font-family="'Roboto-Light'" font-size="15.5269">A</text>
	<rect x="210.5" y="0.5" fill="#FFFFFF" stroke="#1C1C1B" stroke-miterlimit="10" width="46" height="55"/>
	<text transform="matrix(1 0 0 1 215.5 18.3965)" font-family="'Roboto-Light'" font-size="15.5269">4</text>
	<path fill="#FF0909" d="M129.193,27.888c-1.597,0.414-2.805,1.689-3.372,3.539c-0.135,0.428-0.154,0.648-0.154,1.47
		c0,0.915,0.008,1.002,0.207,1.583c0.548,1.582,1.303,2.658,3.994,5.697c1.695,1.916,2.357,2.73,3.052,3.766
		c1.068,1.597,1.71,3.279,1.729,4.568c0.007,0.348,0.021,0.4,0.06,0.247c0.027-0.114,0.054-0.354,0.061-0.534
		c0.021-0.715,0.427-1.998,0.969-3.006c0.728-1.375,1.456-2.311,4.254-5.449c1.695-1.902,2.484-2.938,3.012-3.973
		c0.555-1.082,0.748-1.817,0.748-2.865c0-1.609-0.574-2.952-1.71-4.015c-1.429-1.335-3.553-1.522-5.162-0.46
		c-0.36,0.24-0.969,0.834-1.275,1.235c-0.26,0.354-0.661,1.202-0.795,1.702l-0.119,0.447l-0.122-0.453
		c-0.066-0.248-0.239-0.695-0.387-0.988C133.2,28.409,131.137,27.374,129.193,27.888z"/>
	<path fill="#FF0909" d="M78.026,27.888c-1.597,0.414-2.805,1.689-3.372,3.539c-0.135,0.428-0.154,0.648-0.154,1.47
		c0,0.915,0.008,1.002,0.207,1.583c0.548,1.582,1.303,2.658,3.994,5.697c1.695,1.916,2.357,2.73,3.052,3.766
		c1.068,1.597,1.71,3.279,1.729,4.568c0.007,0.348,0.021,0.4,0.06,0.247c0.027-0.114,0.054-0.354,0.061-0.534
		c0.021-0.715,0.427-1.998,0.969-3.006c0.728-1.375,1.456-2.311,4.254-5.449c1.695-1.902,2.484-2.938,3.012-3.973
		c0.555-1.082,0.748-1.817,0.748-2.865c0-1.609-0.574-2.952-1.71-4.015c-1.429-1.335-3.553-1.522-5.162-0.46
		c-0.36,0.24-0.969,0.834-1.275,1.235c-0.26,0.354-0.661,1.202-0.795,1.702l-0.119,0.447l-0.122-0.453
		c-0.066-0.248-0.239-0.695-0.387-0.988C82.033,28.409,79.97,27.374,78.026,27.888z"/>
	<path fill="#FF0909" d="M23.662,27.888c-1.597,0.414-2.805,1.689-3.372,3.539c-0.135,0.428-0.154,0.648-0.154,1.47
		c0,0.915,0.008,1.002,0.207,1.583c0.548,1.582,1.303,2.658,3.994,5.697c1.695,1.916,2.357,2.73,3.052,3.766
		c1.068,1.597,1.71,3.279,1.729,4.568c0.007,0.348,0.021,0.4,0.06,0.247c0.027-0.114,0.054-0.354,0.061-0.534
		c0.021-0.715,0.427-1.998,0.969-3.006c0.728-1.375,1.456-2.311,4.254-5.449c1.695-1.902,2.484-2.938,3.012-3.973
		c0.555-1.082,0.748-1.817,0.748-2.865c0-1.609-0.574-2.952-1.71-4.015c-1.429-1.335-3.553-1.522-5.162-0.46
		c-0.36,0.24-0.969,0.834-1.275,1.235c-0.26,0.354-0.661,1.202-0.795,1.702l-0.119,0.447l-0.122-0.453
		c-0.066-0.248-0.239-0.695-0.387-0.988C27.669,28.409,25.605,27.374,23.662,27.888z"/>
	<path fill="#FF0909" d="M182.639,27.888c-1.597,0.414-2.805,1.689-3.372,3.539c-0.135,0.428-0.154,0.648-0.154,1.47
		c0,0.915,0.008,1.002,0.207,1.583c0.548,1.582,1.303,2.658,3.994,5.697c1.695,1.916,2.357,2.73,3.052,3.766
		c1.068,1.597,1.71,3.279,1.729,4.568c0.007,0.348,0.021,0.4,0.06,0.247c0.027-0.114,0.054-0.354,0.061-0.534
		c0.021-0.715,0.427-1.998,0.969-3.006c0.728-1.375,1.456-2.311,4.254-5.449c1.695-1.902,2.484-2.938,3.012-3.973
		c0.555-1.082,0.748-1.817,0.748-2.865c0-1.609-0.574-2.952-1.71-4.015c-1.429-1.335-3.553-1.522-5.162-0.46
		c-0.36,0.24-0.969,0.834-1.275,1.235c-0.26,0.354-0.661,1.202-0.795,1.702l-0.119,0.447l-0.122-0.453
		c-0.066-0.248-0.239-0.695-0.387-0.988C186.646,28.409,184.582,27.374,182.639,27.888z"/>
	<path fill="#FF0909" d="M232.639,27.888c-1.597,0.414-2.805,1.689-3.372,3.539c-0.135,0.428-0.154,0.648-0.154,1.47
		c0,0.915,0.008,1.002,0.207,1.583c0.548,1.582,1.303,2.658,3.994,5.697c1.695,1.916,2.357,2.73,3.052,3.766
		c1.068,1.597,1.71,3.279,1.729,4.568c0.007,0.348,0.021,0.4,0.06,0.247c0.027-0.114,0.054-0.354,0.061-0.534
		c0.021-0.715,0.427-1.998,0.969-3.006c0.728-1.375,1.456-2.311,4.254-5.449c1.695-1.902,2.484-2.938,3.012-3.973
		c0.555-1.082,0.748-1.817,0.748-2.865c0-1.609-0.574-2.952-1.71-4.015c-1.429-1.335-3.553-1.522-5.162-0.46
		c-0.36,0.24-0.969,0.834-1.275,1.235c-0.26,0.354-0.661,1.202-0.795,1.702l-0.119,0.447l-0.122-0.453
		c-0.066-0.248-0.239-0.695-0.387-0.988C236.646,28.409,234.582,27.374,232.639,27.888z"/>
</g>
</svg>
