<?xml version="1.0" encoding="utf-8"?>
<!-- Generator: Adobe Illustrator 16.0.0, SVG Export Plug-In . SVG Version: 6.00 Build 0)  -->
<!DOCTYPE svg PUBLIC "-//W3C//DTD SVG 1.1//EN" "http://www.w3.org/Graphics/SVG/1.1/DTD/svg11.dtd">
<svg version="1.1" id="Capa_1" xmlns="http://www.w3.org/2000/svg" xmlns:xlink="http://www.w3.org/1999/xlink" x="0px" y="0px"
	 width="117px" height="73px" viewBox="0 0 117 73" enable-background="new 0 0 117 73" xml:space="preserve">
<g>
	<g>
		<rect x="70.5" y="17.5" fill="#FFFFFF" stroke="#1C1C1B" stroke-miterlimit="10" width="46" height="55"/>
		<text transform="matrix(1 0 0 1 75.5 35.8965)" font-family="'Roboto-Light'" font-size="15.5269">Q</text>
		<path fill="#1C1C1B" d="M98.059,42.271c-3.158,0.828-4.561,4.722-2.703,7.527c0.354,0.541,0.98,1.142,1.521,1.455
			c0.527,0.307,0.902,0.734,1.303,1.516c0.246,0.461,0.6,1.322,0.6,1.437c0,0.026-0.145-0.181-0.334-0.461
			c-1.461-2.23-4.359-2.751-6.457-1.162c-0.74,0.562-1.402,1.536-1.697,2.511c-0.125,0.408-0.152,0.662-0.158,1.369
			c0,0.915,0.066,1.296,0.346,1.99c0.395,0.975,1.256,1.938,2.15,2.411c1.898,0.995,4.209,0.501,5.543-1.188
			c0.182-0.228,0.389-0.527,0.463-0.676c0.193-0.366,0.18-0.206-0.027,0.342c-0.254,0.681-0.654,1.408-1.035,1.876
			c-0.842,1.063-2.244,1.856-3.553,2.024c-0.254,0.025-0.469,0.066-0.482,0.08c-0.012,0.014,2.525,0.02,5.645,0.02
			c3.111,0,5.629-0.02,5.59-0.047c-0.047-0.027-0.176-0.053-0.287-0.053c-0.348,0-1.357-0.321-1.904-0.608
			c-0.922-0.48-1.783-1.315-2.297-2.237c-0.24-0.414-0.654-1.369-0.615-1.402c0.014-0.014,0.148,0.167,0.301,0.408
			c0.508,0.768,1.35,1.408,2.297,1.756c0.441,0.16,0.582,0.18,1.389,0.18c0.811,0,0.949-0.02,1.391-0.18
			c1.51-0.549,2.578-1.71,3.031-3.307c0.121-0.427,0.148-0.674,0.148-1.389c-0.008-0.787-0.027-0.928-0.221-1.502
			c-0.607-1.816-2.018-3.02-3.842-3.279c-1.568-0.221-3.258,0.581-4.221,2.01c-0.158,0.24-0.293,0.421-0.293,0.4
			c0-0.086,0.293-0.787,0.494-1.188c0.314-0.628,0.754-1.202,1.215-1.589c0.889-0.748,1.465-1.383,1.75-1.943
			c0.408-0.781,0.555-1.424,0.561-2.357c0.016-1.209-0.313-2.191-1.041-3.119c-0.441-0.561-0.807-0.869-1.455-1.223
			C100.209,42.151,99.074,42.011,98.059,42.271z"/>
	</g>
	<g>
		<rect x="0.5" y="0.5" fill="#FFFFFF" stroke="#1C1C1B" stroke-miterlimit="10" width="60" height="72"/>
		<text transform="matrix(1 0 0 1 6.3706 24.6465)" font-family="'Roboto-Light'" font-size="20.2524">Q</text>
		<path fill="#FF0909" d="M30.879,36.04c-2.082,0.54-3.658,2.204-4.398,4.616c-0.176,0.559-0.201,0.846-0.201,1.917
			c0,1.193,0.01,1.308,0.27,2.065c0.715,2.063,1.699,3.467,5.211,7.431c2.211,2.499,3.074,3.562,3.98,4.911
			c1.393,2.083,2.23,4.277,2.256,5.959c0.008,0.453,0.026,0.522,0.077,0.322c0.036-0.148,0.07-0.462,0.079-0.696
			c0.026-0.933,0.557-2.606,1.264-3.921c0.949-1.793,1.898-3.014,5.549-7.107c2.211-2.481,3.24-3.833,3.928-5.182
			c0.724-1.412,0.976-2.371,0.976-3.738c0-2.099-0.749-3.85-2.229-5.236c-1.864-1.74-4.635-1.985-6.734-0.6
			c-0.47,0.313-1.264,1.088-1.663,1.611c-0.339,0.461-0.862,1.568-1.036,2.221l-0.156,0.583l-0.159-0.591
			c-0.087-0.324-0.312-0.907-0.505-1.289C36.105,36.721,33.414,35.37,30.879,36.04z"/>
	</g>
</g>
</svg>
