<?xml version="1.0" encoding="utf-8"?>
<!-- Generator: Adobe Illustrator 16.0.0, SVG Export Plug-In . SVG Version: 6.00 Build 0)  -->
<!DOCTYPE svg PUBLIC "-//W3C//DTD SVG 1.1//EN" "http://www.w3.org/Graphics/SVG/1.1/DTD/svg11.dtd">
<svg version="1.1" id="Capa_1" xmlns="http://www.w3.org/2000/svg" xmlns:xlink="http://www.w3.org/1999/xlink" x="0px" y="0px"
	 width="119px" height="72px" viewBox="0 0 119 72" enable-background="new 0 0 119 72" xml:space="preserve">
<g>
	<g>
		<rect x="77.5" y="22.5" fill="#FFFFFF" stroke="#1C1C1B" stroke-miterlimit="10" width="41" height="49"/>
		<path fill="#050703" d="M102.599,47.076c-0.759,1.17-2.19,3.205-2.786,3.95c-0.717,0.901-2.506,2.678-4.416,4.392l-0.369,0.328
			l1.086,0.988c1.443,1.319,3.007,2.883,3.579,3.586c0.579,0.71,1.76,2.369,2.696,3.789c0.395,0.59,0.729,1.08,0.746,1.08
			c0.019,0,0.383-0.524,0.817-1.176c0.884-1.324,1.891-2.744,2.464-3.484c0.502-0.644,1.963-2.135,3.281-3.354
			c0.572-0.523,1.157-1.067,1.301-1.198l0.256-0.239l-1.025-0.924c-1.611-1.455-3.239-3.103-3.872-3.926
			c-0.675-0.876-1.873-2.577-2.638-3.752c-0.304-0.466-0.565-0.848-0.584-0.848C103.117,46.289,102.879,46.642,102.599,47.076z"/>
		<text transform="matrix(1 0 0 1 81.4277 37.8545)" font-family="'Roboto-Light'" font-size="13.8702">K</text>
	</g>
	<g>
		<rect x="0.5" y="0.5" fill="#FFFFFF" stroke="#1C1C1B" stroke-miterlimit="10" width="59" height="70"/>
		<text transform="matrix(1 0 0 1 6.4736 23.8682)" font-family="'Roboto-Light'" font-size="19.8398">K</text>
		<path fill="#FF0909" d="M30.482,35.029c-2.04,0.528-3.584,2.158-4.309,4.521c-0.172,0.547-0.197,0.828-0.197,1.878
			c0,1.169,0.01,1.28,0.265,2.022c0.7,2.021,1.665,3.396,5.104,7.28c2.166,2.448,3.013,3.489,3.899,4.812
			c1.365,2.04,2.186,4.189,2.21,5.838c0.009,0.443,0.026,0.511,0.076,0.314c0.034-0.146,0.068-0.452,0.077-0.682
			c0.026-0.914,0.545-2.553,1.238-3.842c0.93-1.756,1.86-2.951,5.436-6.963c2.166-2.43,3.174-3.754,3.848-5.076
			c0.709-1.381,0.956-2.321,0.956-3.66c0-2.057-0.733-3.772-2.185-5.13c-1.826-1.706-4.54-1.945-6.596-0.588
			c-0.461,0.308-1.238,1.065-1.631,1.579c-0.332,0.451-0.844,1.535-1.016,2.174l-0.152,0.572l-0.155-0.578
			c-0.085-0.318-0.306-0.89-0.494-1.264C35.602,35.695,32.966,34.372,30.482,35.029z"/>
	</g>
</g>
</svg>
