<?xml version="1.0" encoding="utf-8"?>
<!-- Generator: Adobe Illustrator 16.0.0, SVG Export Plug-In . SVG Version: 6.00 Build 0)  -->
<!DOCTYPE svg PUBLIC "-//W3C//DTD SVG 1.1//EN" "http://www.w3.org/Graphics/SVG/1.1/DTD/svg11.dtd">
<svg version="1.1" id="Capa_1" xmlns="http://www.w3.org/2000/svg" xmlns:xlink="http://www.w3.org/1999/xlink" x="0px" y="0px"
	 width="216px" height="168px" viewBox="0 0 216 168" enable-background="new 0 0 216 168" xml:space="preserve">
<g>
	<g>
		<g>
			<rect x="186.5" y="66.5" fill="#FFFFFF" stroke="#1C1C1B" stroke-miterlimit="10" width="29" height="35"/>
			<text transform="matrix(1 0 0 1 189.3545 78.0518)" font-family="'Roboto-Light'" font-size="9.902">3</text>
			<path fill="#1C1C1B" d="M203.739,82.116c-2.014,0.528-2.908,3.012-1.724,4.801c0.226,0.345,0.625,0.728,0.97,0.928
				c0.337,0.195,0.576,0.469,0.831,0.967c0.157,0.294,0.383,0.843,0.383,0.916c0,0.017-0.093-0.115-0.213-0.294
				c-0.932-1.423-2.78-1.754-4.118-0.741c-0.472,0.358-0.895,0.979-1.083,1.602c-0.079,0.26-0.097,0.422-0.101,0.873
				c0,0.583,0.043,0.826,0.221,1.269c0.252,0.622,0.801,1.236,1.371,1.538c1.211,0.635,2.685,0.319,3.535-0.758
				c0.116-0.146,0.248-0.337,0.295-0.431c0.124-0.234,0.115-0.132-0.018,0.218c-0.161,0.434-0.417,0.897-0.66,1.196
				c-0.536,0.678-1.431,1.184-2.266,1.291c-0.161,0.016-0.299,0.042-0.308,0.051c-0.007,0.009,1.611,0.013,3.6,0.013
				c1.984,0,3.59-0.013,3.565-0.03c-0.03-0.018-0.112-0.033-0.184-0.033c-0.222,0-0.865-0.205-1.214-0.389
				c-0.588-0.306-1.138-0.838-1.465-1.426c-0.153-0.265-0.418-0.873-0.393-0.895c0.009-0.009,0.095,0.106,0.191,0.26
				c0.324,0.49,0.861,0.898,1.465,1.12c0.282,0.103,0.371,0.114,0.886,0.114c0.518,0,0.605-0.012,0.887-0.114
				c0.963-0.351,1.645-1.091,1.934-2.108c0.077-0.272,0.095-0.43,0.095-0.886c-0.005-0.502-0.018-0.592-0.141-0.958
				c-0.388-1.158-1.287-1.926-2.45-2.092c-1-0.141-2.078,0.371-2.691,1.282c-0.102,0.153-0.188,0.269-0.188,0.255
				c0-0.055,0.188-0.502,0.315-0.758c0.2-0.4,0.48-0.767,0.774-1.014c0.567-0.477,0.935-0.881,1.116-1.238
				c0.261-0.499,0.354-0.908,0.357-1.504c0.01-0.771-0.199-1.397-0.664-1.989c-0.281-0.357-0.514-0.554-0.928-0.779
				C205.11,82.04,204.387,81.95,203.739,82.116z"/>
		</g>
		<g>
			<rect x="165.5" y="84.5" fill="#FFFFFF" stroke="#1C1C1B" stroke-miterlimit="10" width="29" height="35"/>
			<text transform="matrix(1 0 0 1 167.9902 95.9082)" font-family="'Roboto-Light'" font-size="9.902">4</text>
			<path fill="#FF0909" d="M179.973,101.478c-1.02,0.265-1.789,1.077-2.151,2.257c-0.086,0.273-0.099,0.414-0.099,0.938
				c0,0.584,0.005,0.639,0.133,1.01c0.35,1.009,0.83,1.695,2.547,3.633c1.081,1.223,1.503,1.742,1.946,2.402
				c0.682,1.018,1.09,2.091,1.103,2.913c0.005,0.222,0.014,0.255,0.039,0.157c0.018-0.072,0.033-0.227,0.038-0.341
				c0.013-0.456,0.271-1.274,0.618-1.917c0.463-0.877,0.928-1.473,2.713-3.475c1.081-1.213,1.584-1.874,1.921-2.533
				c0.354-0.69,0.477-1.159,0.477-1.828c0-1.026-0.366-1.883-1.091-2.561c-0.91-0.851-2.266-0.971-3.292-0.293
				c-0.229,0.153-0.618,0.532-0.813,0.788c-0.166,0.226-0.421,0.767-0.507,1.085l-0.076,0.286l-0.077-0.289
				c-0.043-0.158-0.153-0.443-0.247-0.631C182.527,101.811,181.212,101.15,179.973,101.478z"/>
		</g>
		<g>
			<rect x="145.5" y="98.5" fill="#FFFFFF" stroke="#1C1C1B" stroke-miterlimit="10" width="29" height="35"/>
			<path fill="#050703" d="M163.333,115.883c-0.541,0.835-1.563,2.288-1.989,2.82c-0.512,0.643-1.789,1.912-3.152,3.134
				l-0.263,0.235l0.774,0.706c1.03,0.941,2.146,2.058,2.555,2.56c0.414,0.507,1.257,1.691,1.926,2.705
				c0.281,0.422,0.52,0.771,0.532,0.771s0.272-0.375,0.584-0.84c0.631-0.945,1.35-1.959,1.759-2.487
				c0.357-0.46,1.4-1.524,2.343-2.394c0.408-0.375,0.825-0.763,0.928-0.856l0.183-0.171l-0.732-0.66
				c-1.149-1.038-2.313-2.214-2.764-2.801c-0.481-0.627-1.337-1.841-1.883-2.68c-0.217-0.332-0.404-0.604-0.417-0.604
				S163.533,115.572,163.333,115.883z"/>
			<text transform="matrix(1 0 0 1 148.2207 109.3008)" font-family="'Roboto-Light'" font-size="9.902">5</text>
		</g>
		<g>
			<rect x="125.5" y="116.5" fill="#FFFFFF" stroke="#1C1C1B" stroke-miterlimit="10" width="29" height="35"/>
			<text transform="matrix(1 0 0 1 128.7695 128.4336)" font-family="'Roboto-Light'" font-size="9.902">6</text>
			<path fill="#1C1C1B" d="M143.154,132.498c-2.014,0.527-2.908,3.011-1.724,4.8c0.226,0.345,0.625,0.728,0.971,0.928
				c0.336,0.196,0.575,0.469,0.83,0.967c0.157,0.294,0.383,0.843,0.383,0.916c0,0.017-0.093-0.115-0.213-0.294
				c-0.932-1.422-2.78-1.754-4.118-0.741c-0.472,0.358-0.895,0.979-1.082,1.602c-0.08,0.261-0.098,0.422-0.102,0.873
				c0,0.583,0.043,0.826,0.221,1.27c0.252,0.621,0.801,1.235,1.371,1.537c1.211,0.635,2.685,0.319,3.535-0.758
				c0.116-0.146,0.248-0.336,0.295-0.431c0.124-0.233,0.115-0.132-0.017,0.218c-0.162,0.435-0.418,0.897-0.66,1.196
				c-0.537,0.678-1.432,1.184-2.267,1.291c-0.161,0.017-0.299,0.043-0.307,0.051c-0.008,0.009,1.61,0.013,3.6,0.013
				c1.983,0,3.59-0.013,3.564-0.03c-0.03-0.017-0.112-0.033-0.184-0.033c-0.222,0-0.865-0.205-1.214-0.388
				c-0.588-0.307-1.138-0.839-1.465-1.427c-0.153-0.265-0.417-0.873-0.393-0.895c0.009-0.009,0.095,0.106,0.192,0.26
				c0.323,0.49,0.86,0.898,1.465,1.12c0.281,0.103,0.371,0.114,0.885,0.114c0.518,0,0.605-0.012,0.888-0.114
				c0.962-0.35,1.644-1.091,1.933-2.108c0.077-0.272,0.095-0.43,0.095-0.886c-0.005-0.502-0.018-0.592-0.141-0.958
				c-0.388-1.158-1.287-1.926-2.45-2.092c-1-0.141-2.077,0.371-2.691,1.282c-0.102,0.153-0.188,0.269-0.188,0.255
				c0-0.055,0.188-0.502,0.315-0.758c0.2-0.4,0.48-0.767,0.774-1.013c0.567-0.478,0.935-0.882,1.116-1.239
				c0.261-0.498,0.354-0.908,0.357-1.504c0.011-0.771-0.199-1.397-0.663-1.989c-0.282-0.357-0.515-0.554-0.929-0.779
				C144.525,132.421,143.802,132.331,143.154,132.498z"/>
		</g>
		<g>
			<rect x="105.5" y="132.5" fill="#FFFFFF" stroke="#1C1C1B" stroke-miterlimit="10" width="29" height="35"/>
			<text transform="matrix(1 0 0 1 108.043 144.377)" font-family="'Roboto-Light'" font-size="9.902">7</text>
			<path fill="#FF0909" d="M120.025,149.945c-1.019,0.264-1.789,1.078-2.151,2.257c-0.086,0.273-0.099,0.414-0.099,0.938
				c0,0.584,0.006,0.64,0.133,1.01c0.35,1.009,0.83,1.695,2.547,3.634c1.081,1.222,1.504,1.74,1.947,2.4
				c0.681,1.019,1.09,2.092,1.102,2.914c0.006,0.222,0.014,0.255,0.039,0.157c0.018-0.073,0.033-0.226,0.038-0.341
				c0.013-0.455,0.272-1.273,0.618-1.916c0.464-0.877,0.928-1.475,2.713-3.476c1.081-1.214,1.584-1.874,1.921-2.534
				c0.354-0.689,0.477-1.158,0.477-1.826c0-1.027-0.366-1.883-1.091-2.561c-0.91-0.852-2.266-0.971-3.292-0.294
				c-0.229,0.153-0.618,0.532-0.813,0.788c-0.166,0.226-0.421,0.767-0.507,1.086l-0.076,0.285l-0.077-0.289
				c-0.042-0.158-0.153-0.443-0.246-0.631C122.58,150.278,121.265,149.618,120.025,149.945z"/>
		</g>
	</g>
	<g>
		<g>
			<rect x="125.5" y="0.5" fill="#FFFFFF" stroke="#1C1C1B" stroke-miterlimit="10" width="46" height="55"/>
			<text transform="matrix(1 0 0 1 130.5 18.8965)" font-family="'Roboto-Light'" font-size="15.5269">5</text>
			<path fill="#1C1C1B" d="M153.059,25.271c-3.158,0.828-4.561,4.722-2.703,7.527c0.354,0.541,0.98,1.142,1.521,1.455
				c0.527,0.307,0.902,0.734,1.303,1.516c0.246,0.461,0.6,1.322,0.6,1.437c0,0.026-0.145-0.181-0.334-0.461
				c-1.461-2.23-4.359-2.751-6.457-1.162c-0.74,0.562-1.402,1.536-1.697,2.511c-0.125,0.408-0.152,0.662-0.158,1.369
				c0,0.915,0.066,1.296,0.346,1.99c0.395,0.975,1.256,1.938,2.15,2.411c1.898,0.995,4.209,0.501,5.543-1.188
				c0.182-0.228,0.389-0.527,0.463-0.676c0.193-0.366,0.18-0.206-0.027,0.342c-0.254,0.681-0.654,1.408-1.035,1.876
				c-0.842,1.063-2.244,1.856-3.553,2.024c-0.254,0.025-0.469,0.066-0.482,0.08c-0.012,0.014,2.525,0.02,5.645,0.02
				c3.111,0,5.629-0.02,5.59-0.047c-0.047-0.027-0.176-0.053-0.287-0.053c-0.348,0-1.357-0.321-1.904-0.608
				c-0.922-0.48-1.783-1.315-2.297-2.237c-0.24-0.414-0.654-1.369-0.615-1.402c0.014-0.014,0.148,0.167,0.301,0.408
				c0.508,0.768,1.35,1.408,2.297,1.756c0.441,0.16,0.582,0.18,1.389,0.18c0.811,0,0.949-0.02,1.391-0.18
				c1.51-0.549,2.578-1.71,3.031-3.307c0.121-0.427,0.148-0.674,0.148-1.389c-0.008-0.787-0.027-0.928-0.221-1.502
				c-0.607-1.816-2.018-3.02-3.842-3.279c-1.568-0.221-3.258,0.581-4.221,2.01c-0.158,0.24-0.293,0.421-0.293,0.4
				c0-0.086,0.293-0.787,0.494-1.188c0.314-0.628,0.754-1.202,1.215-1.589c0.889-0.748,1.465-1.383,1.75-1.943
				c0.408-0.781,0.555-1.424,0.561-2.357c0.016-1.209-0.313-2.191-1.041-3.119c-0.441-0.561-0.807-0.869-1.455-1.223
				C155.209,25.151,154.074,25.011,153.059,25.271z"/>
		</g>
		<g>
			<rect x="93.5" y="27.5" fill="#FFFFFF" stroke="#1C1C1B" stroke-miterlimit="10" width="46" height="55"/>
			<text transform="matrix(1 0 0 1 98.5 45.8965)" font-family="'Roboto-Light'" font-size="15.5269">6</text>
			<path fill="#1C1C1B" d="M121.059,52.271c-3.158,0.828-4.561,4.722-2.703,7.527c0.354,0.541,0.98,1.142,1.521,1.455
				c0.527,0.307,0.902,0.734,1.303,1.516c0.246,0.461,0.6,1.322,0.6,1.437c0,0.026-0.145-0.181-0.334-0.461
				c-1.461-2.23-4.359-2.751-6.457-1.162c-0.74,0.562-1.402,1.536-1.697,2.511c-0.125,0.408-0.152,0.662-0.158,1.369
				c0,0.915,0.066,1.296,0.346,1.99c0.395,0.975,1.256,1.938,2.15,2.411c1.898,0.995,4.209,0.501,5.543-1.188
				c0.182-0.228,0.389-0.527,0.463-0.676c0.193-0.366,0.18-0.206-0.027,0.342c-0.254,0.681-0.654,1.408-1.035,1.876
				c-0.842,1.063-2.244,1.856-3.553,2.024c-0.254,0.025-0.469,0.066-0.482,0.08c-0.012,0.014,2.525,0.02,5.645,0.02
				c3.111,0,5.629-0.02,5.59-0.047c-0.047-0.027-0.176-0.053-0.287-0.053c-0.348,0-1.357-0.321-1.904-0.608
				c-0.922-0.48-1.783-1.315-2.297-2.237c-0.24-0.414-0.654-1.369-0.615-1.402c0.014-0.014,0.148,0.167,0.301,0.408
				c0.508,0.768,1.35,1.408,2.297,1.756c0.441,0.16,0.582,0.18,1.389,0.18c0.811,0,0.949-0.02,1.391-0.18
				c1.51-0.549,2.578-1.71,3.031-3.307c0.121-0.427,0.148-0.674,0.148-1.389c-0.008-0.787-0.027-0.928-0.221-1.502
				c-0.607-1.816-2.018-3.02-3.842-3.279c-1.568-0.221-3.258,0.581-4.221,2.01c-0.158,0.24-0.293,0.421-0.293,0.4
				c0-0.086,0.293-0.787,0.494-1.188c0.314-0.628,0.754-1.202,1.215-1.589c0.889-0.748,1.465-1.383,1.75-1.943
				c0.408-0.781,0.555-1.424,0.561-2.357c0.016-1.209-0.313-2.191-1.041-3.119c-0.441-0.561-0.807-0.869-1.455-1.223
				C123.209,52.151,122.074,52.011,121.059,52.271z"/>
		</g>
		<g>
			<rect x="62.5" y="55.5" fill="#FFFFFF" stroke="#1C1C1B" stroke-miterlimit="10" width="46" height="55"/>
			<text transform="matrix(1 0 0 1 67 73.8965)" font-family="'Roboto-Light'" font-size="15.5269">7</text>
			<path fill="#FF0909" d="M85.791,82.631c-1.598,0.414-2.805,1.689-3.373,3.539c-0.135,0.428-0.154,0.648-0.154,1.47
				c0,0.915,0.008,1.002,0.207,1.583c0.549,1.582,1.303,2.658,3.994,5.697c1.695,1.916,2.357,2.73,3.053,3.766
				c1.068,1.597,1.709,3.279,1.729,4.568c0.008,0.348,0.021,0.4,0.061,0.247c0.027-0.114,0.053-0.354,0.061-0.534
				c0.02-0.715,0.426-1.998,0.969-3.006c0.727-1.375,1.455-2.311,4.254-5.449c1.695-1.902,2.484-2.938,3.012-3.973
				c0.555-1.082,0.748-1.817,0.748-2.865c0-1.609-0.574-2.952-1.711-4.015c-1.428-1.335-3.553-1.522-5.162-0.46
				c-0.359,0.24-0.969,0.834-1.275,1.235c-0.26,0.354-0.66,1.202-0.795,1.702l-0.119,0.447l-0.121-0.453
				c-0.066-0.248-0.24-0.695-0.387-0.988C89.797,83.152,87.734,82.117,85.791,82.631z"/>
		</g>
		<g>
			<rect x="30.5" y="79.5" fill="#FFFFFF" stroke="#1C1C1B" stroke-miterlimit="10" width="46" height="55"/>
			<text transform="matrix(1 0 0 1 35.5 97.8965)" font-family="'Roboto-Light'" font-size="15.5269">8</text>
			<path fill="#1C1C1B" d="M58.059,104.271c-3.158,0.828-4.561,4.722-2.703,7.527c0.354,0.541,0.98,1.142,1.521,1.455
				c0.527,0.307,0.902,0.734,1.303,1.516c0.246,0.461,0.6,1.322,0.6,1.437c0,0.026-0.145-0.181-0.334-0.461
				c-1.461-2.23-4.359-2.751-6.457-1.162c-0.74,0.562-1.402,1.536-1.697,2.511c-0.125,0.408-0.152,0.662-0.158,1.369
				c0,0.915,0.066,1.296,0.346,1.99c0.395,0.975,1.256,1.938,2.15,2.411c1.898,0.995,4.209,0.501,5.543-1.188
				c0.182-0.228,0.389-0.527,0.463-0.676c0.193-0.366,0.18-0.206-0.027,0.342c-0.254,0.681-0.654,1.408-1.035,1.876
				c-0.842,1.063-2.244,1.856-3.553,2.024c-0.254,0.025-0.469,0.066-0.482,0.08c-0.012,0.014,2.525,0.02,5.645,0.02
				c3.111,0,5.629-0.02,5.59-0.047c-0.047-0.027-0.176-0.053-0.287-0.053c-0.348,0-1.357-0.321-1.904-0.608
				c-0.922-0.48-1.783-1.315-2.297-2.237c-0.24-0.414-0.654-1.369-0.615-1.402c0.014-0.014,0.148,0.167,0.301,0.408
				c0.508,0.768,1.35,1.408,2.297,1.756c0.441,0.16,0.582,0.18,1.389,0.18c0.811,0,0.949-0.02,1.391-0.18
				c1.51-0.549,2.578-1.71,3.031-3.307c0.121-0.427,0.148-0.674,0.148-1.389c-0.008-0.787-0.027-0.928-0.221-1.502
				c-0.607-1.816-2.018-3.02-3.842-3.279c-1.568-0.221-3.258,0.581-4.221,2.01c-0.158,0.24-0.293,0.421-0.293,0.4
				c0-0.086,0.293-0.787,0.494-1.188c0.314-0.628,0.754-1.202,1.215-1.589c0.889-0.748,1.465-1.383,1.75-1.943
				c0.408-0.781,0.555-1.424,0.561-2.357c0.016-1.209-0.313-2.191-1.041-3.119c-0.441-0.561-0.807-0.869-1.455-1.223
				C60.209,104.151,59.074,104.011,58.059,104.271z"/>
		</g>
		<g>
			<rect x="0.5" y="102.5" fill="#FFFFFF" stroke="#1C1C1B" stroke-miterlimit="10" width="46" height="55"/>
			<path fill="#050703" d="M28.699,130.219c-0.849,1.31-2.451,3.588-3.119,4.422c-0.802,1.009-2.805,2.998-4.942,4.915l-0.413,0.368
				l1.215,1.107c1.616,1.477,3.366,3.227,4.007,4.014c0.648,0.795,1.97,2.652,3.019,4.241c0.441,0.661,0.814,1.21,0.835,1.21
				s0.428-0.588,0.915-1.316c0.989-1.482,2.116-3.072,2.758-3.9c0.562-0.721,2.197-2.391,3.674-3.754
				c0.641-0.587,1.295-1.195,1.455-1.342l0.287-0.268l-1.148-1.035c-1.804-1.629-3.626-3.473-4.334-4.394
				c-0.755-0.981-2.097-2.886-2.952-4.2c-0.341-0.521-0.634-0.949-0.654-0.949S29.013,129.732,28.699,130.219z"/>
			<text transform="matrix(1 0 0 1 5 119.8965)" font-family="'Roboto-Light'" font-size="15.5269">9</text>
		</g>
	</g>
</g>
</svg>
