<?xml version="1.0" encoding="utf-8"?>
<!-- Generator: Adobe Illustrator 16.0.0, SVG Export Plug-In . SVG Version: 6.00 Build 0)  -->
<!DOCTYPE svg PUBLIC "-//W3C//DTD SVG 1.1//EN" "http://www.w3.org/Graphics/SVG/1.1/DTD/svg11.dtd">
<svg version="1.1" id="Capa_1" xmlns="http://www.w3.org/2000/svg" xmlns:xlink="http://www.w3.org/1999/xlink" x="0px" y="0px"
	 width="208px" height="164px" viewBox="0 0 208 164" enable-background="new 0 0 208 164" xml:space="preserve">
<g>
	<g>
		<g>
			<rect x="126.5" y="0.5" fill="#FFFFFF" stroke="#1C1C1B" stroke-miterlimit="10" width="44" height="54"/>
			<text transform="matrix(1 0 0 1 130.5117 18.8447)" font-family="'Roboto-Light'" font-size="15.3525">5</text>
			<path fill="#1C1C1B" d="M152.814,25.146c-3.122,0.818-4.509,4.668-2.672,7.442c0.35,0.534,0.969,1.128,1.503,1.438
				c0.522,0.304,0.894,0.727,1.288,1.499c0.244,0.456,0.594,1.307,0.594,1.42c0,0.026-0.144-0.178-0.33-0.455
				c-1.444-2.206-4.311-2.72-6.385-1.149c-0.731,0.556-1.387,1.518-1.679,2.482c-0.123,0.402-0.15,0.654-0.157,1.354
				c0,0.905,0.067,1.28,0.343,1.968c0.392,0.963,1.242,1.916,2.126,2.385c1.877,0.982,4.162,0.493,5.481-1.176
				c0.18-0.227,0.384-0.522,0.457-0.668c0.192-0.363,0.179-0.205-0.028,0.338c-0.249,0.672-0.646,1.391-1.022,1.854
				c-0.831,1.05-2.218,1.835-3.513,2.001c-0.25,0.025-0.463,0.066-0.477,0.08c-0.012,0.013,2.498,0.02,5.58,0.02
				c3.077,0,5.566-0.02,5.528-0.048c-0.047-0.026-0.174-0.052-0.284-0.052c-0.344,0-1.342-0.316-1.883-0.602
				c-0.911-0.475-1.764-1.3-2.271-2.211c-0.237-0.41-0.647-1.354-0.607-1.387c0.013-0.014,0.146,0.166,0.297,0.402
				c0.502,0.76,1.334,1.393,2.271,1.736c0.438,0.159,0.575,0.178,1.373,0.178c0.803,0,0.938-0.019,1.375-0.178
				c1.493-0.543,2.55-1.691,2.998-3.27c0.12-0.421,0.147-0.666,0.147-1.372c-0.008-0.778-0.027-0.917-0.219-1.485
				c-0.602-1.796-1.996-2.986-3.799-3.244c-1.551-0.217-3.223,0.576-4.173,1.988c-0.157,0.238-0.29,0.417-0.29,0.396
				c0-0.085,0.29-0.777,0.488-1.174c0.311-0.621,0.745-1.19,1.201-1.571c0.879-0.74,1.449-1.367,1.73-1.922
				c0.404-0.773,0.548-1.408,0.554-2.33c0.015-1.197-0.309-2.167-1.029-3.086c-0.437-0.554-0.796-0.857-1.438-1.207
				C154.94,25.027,153.818,24.889,152.814,25.146z"/>
		</g>
		<g>
			<rect x="93.5" y="28.5" fill="#FFFFFF" stroke="#1C1C1B" stroke-miterlimit="10" width="45" height="55"/>
			<text transform="matrix(1 0 0 1 97.3877 46.5283)" font-family="'Roboto-Light'" font-size="15.3525">6</text>
			<path fill="#FF0909" d="M115.965,55.165c-1.58,0.409-2.773,1.669-3.335,3.499c-0.133,0.424-0.153,0.642-0.153,1.453
				c0,0.906,0.008,0.99,0.207,1.565c0.541,1.563,1.287,2.628,3.948,5.633c1.677,1.896,2.33,2.7,3.018,3.725
				c1.057,1.578,1.69,3.241,1.71,4.517c0.007,0.343,0.021,0.395,0.06,0.244c0.028-0.112,0.052-0.352,0.06-0.529
				c0.02-0.707,0.421-1.976,0.959-2.973c0.717-1.358,1.438-2.283,4.206-5.386c1.676-1.881,2.456-2.906,2.978-3.929
				c0.549-1.07,0.739-1.797,0.739-2.834c0-1.592-0.568-2.919-1.691-3.971c-1.411-1.318-3.513-1.504-5.104-0.453
				c-0.355,0.238-0.958,0.824-1.261,1.221c-0.258,0.35-0.653,1.189-0.786,1.682l-0.117,0.445l-0.12-0.449
				c-0.067-0.244-0.237-0.687-0.384-0.978C119.927,55.68,117.887,54.657,115.965,55.165z"/>
		</g>
		<g>
			<rect x="62.5" y="50.5" fill="#FFFFFF" stroke="#1C1C1B" stroke-miterlimit="10" width="45" height="54"/>
			<path fill="#050703" d="M90.167,77.5c-0.839,1.293-2.425,3.546-3.085,4.371c-0.793,0.996-2.773,2.965-4.887,4.859l-0.408,0.365
				l1.201,1.094c1.598,1.461,3.328,3.19,3.961,3.969c0.643,0.787,1.949,2.623,2.986,4.195c0.436,0.654,0.805,1.195,0.824,1.195
				c0.021,0,0.423-0.582,0.906-1.303c0.979-1.465,2.092-3.037,2.727-3.855c0.555-0.713,2.172-2.363,3.633-3.713
				c0.633-0.579,1.279-1.181,1.438-1.326l0.282-0.266l-1.135-1.023c-1.782-1.609-3.586-3.432-4.285-4.342
				c-0.746-0.973-2.072-2.854-2.919-4.154c-0.337-0.516-0.627-0.938-0.647-0.938C90.74,76.629,90.477,77.018,90.167,77.5z"/>
			<text transform="matrix(1 0 0 1 66.7363 67.292)" font-family="'Roboto-Light'" font-size="15.3525">7</text>
		</g>
		<g>
			<rect x="31.5" y="77.5" fill="#FFFFFF" stroke="#1C1C1B" stroke-miterlimit="10" width="45" height="55"/>
			<text transform="matrix(1 0 0 1 36.5781 96.958)" font-family="'Roboto-Light'" font-size="15.3525">8</text>
			<path fill="#1C1C1B" d="M58.881,103.26c-3.122,0.817-4.509,4.668-2.672,7.443c0.35,0.534,0.969,1.127,1.504,1.438
				c0.521,0.304,0.893,0.727,1.287,1.498c0.244,0.457,0.594,1.307,0.594,1.422c0,0.025-0.144-0.18-0.33-0.457
				c-1.444-2.204-4.311-2.72-6.385-1.148c-0.731,0.555-1.387,1.519-1.678,2.482c-0.124,0.405-0.15,0.654-0.158,1.354
				c0,0.904,0.067,1.281,0.343,1.969c0.392,0.963,1.242,1.914,2.126,2.383c1.877,0.984,4.162,0.496,5.481-1.176
				c0.18-0.224,0.384-0.52,0.457-0.667c0.192-0.36,0.179-0.204-0.026,0.337c-0.251,0.676-0.647,1.393-1.023,1.855
				c-0.832,1.051-2.219,1.836-3.514,2.002c-0.25,0.026-0.463,0.067-0.475,0.079c-0.014,0.015,2.496,0.02,5.58,0.02
				c3.075,0,5.566-0.02,5.527-0.046c-0.048-0.026-0.175-0.053-0.285-0.053c-0.344,0-1.342-0.318-1.883-0.602
				c-0.911-0.475-1.764-1.3-2.271-2.212c-0.237-0.409-0.646-1.354-0.607-1.386c0.013-0.015,0.146,0.164,0.298,0.402
				c0.501,0.76,1.333,1.393,2.271,1.736c0.437,0.159,0.576,0.177,1.372,0.177c0.803,0,0.938-0.018,1.377-0.177
				c1.491-0.541,2.548-1.69,2.996-3.27c0.12-0.422,0.147-0.666,0.147-1.373c-0.008-0.777-0.027-0.917-0.219-1.485
				c-0.602-1.796-1.996-2.985-3.799-3.243c-1.551-0.217-3.221,0.576-4.173,1.988c-0.157,0.237-0.29,0.416-0.29,0.395
				c0-0.084,0.29-0.778,0.488-1.175c0.311-0.621,0.745-1.188,1.201-1.569c0.879-0.74,1.449-1.367,1.73-1.922
				c0.404-0.771,0.549-1.407,0.554-2.332c0.017-1.195-0.309-2.166-1.028-3.084c-0.438-0.554-0.797-0.857-1.439-1.208
				C61.007,103.141,59.885,103.001,58.881,103.26z"/>
		</g>
		<g>
			<rect x="0.5" y="103.5" fill="#FFFFFF" stroke="#1C1C1B" stroke-miterlimit="10" width="45" height="54"/>
			<text transform="matrix(1 0 0 1 4.4434 121.6777)" font-family="'Roboto-Light'" font-size="15.3525">9</text>
			<path fill="#FF0909" d="M23.021,130.312c-1.58,0.407-2.774,1.671-3.336,3.499c-0.134,0.423-0.152,0.643-0.152,1.453
				c0,0.906,0.008,0.992,0.205,1.566c0.542,1.563,1.287,2.627,3.949,5.633c1.676,1.895,2.332,2.699,3.019,3.722
				c1.056,1.581,1.69,3.243,1.708,4.519c0.009,0.344,0.021,0.395,0.061,0.244c0.027-0.114,0.051-0.351,0.059-0.528
				c0.02-0.706,0.423-1.976,0.959-2.972c0.719-1.359,1.438-2.285,4.206-5.389c1.677-1.882,2.456-2.904,2.978-3.93
				c0.549-1.068,0.739-1.795,0.739-2.83c0-1.594-0.567-2.92-1.69-3.971c-1.412-1.32-3.514-1.505-5.104-0.456
				c-0.356,0.238-0.958,0.826-1.261,1.223c-0.258,0.349-0.652,1.188-0.787,1.685l-0.117,0.441l-0.12-0.449
				c-0.064-0.245-0.237-0.688-0.381-0.977C26.981,130.827,24.941,129.805,23.021,130.312z"/>
		</g>
	</g>
	<g>
		<g>
			<rect x="178.5" y="64.5" fill="#FFFFFF" stroke="#1C1C1B" stroke-miterlimit="10" width="29" height="35"/>
			<text transform="matrix(1 0 0 1 181.6455 75.916)" font-family="'Roboto-Light'" font-size="9.7912">5</text>
			<path fill="#1C1C1B" d="M195.871,79.937c-1.992,0.522-2.876,2.978-1.705,4.746c0.223,0.342,0.619,0.72,0.96,0.918
				c0.333,0.193,0.569,0.463,0.821,0.956c0.155,0.29,0.378,0.834,0.378,0.905c0,0.017-0.091-0.114-0.21-0.29
				c-0.922-1.407-2.75-1.735-4.072-0.733c-0.467,0.354-0.885,0.969-1.07,1.583c-0.078,0.258-0.096,0.418-0.1,0.863
				c0,0.577,0.042,0.817,0.218,1.256c0.249,0.614,0.792,1.222,1.356,1.52c1.197,0.628,2.654,0.316,3.495-0.749
				c0.114-0.144,0.245-0.332,0.292-0.426c0.121-0.231,0.113-0.13-0.018,0.216c-0.16,0.429-0.412,0.888-0.652,1.183
				c-0.531,0.67-1.416,1.171-2.24,1.276c-0.16,0.016-0.296,0.042-0.305,0.051c-0.008,0.009,1.593,0.012,3.56,0.012
				c1.962,0,3.55-0.012,3.524-0.029c-0.029-0.018-0.11-0.033-0.181-0.033c-0.22,0-0.856-0.202-1.2-0.384
				c-0.582-0.303-1.125-0.829-1.449-1.411c-0.151-0.261-0.412-0.863-0.388-0.884c0.009-0.009,0.094,0.105,0.189,0.257
				c0.32,0.484,0.852,0.889,1.448,1.107c0.279,0.102,0.367,0.113,0.876,0.113c0.511,0,0.599-0.012,0.877-0.113
				c0.952-0.346,1.626-1.078,1.911-2.085c0.076-0.269,0.094-0.425,0.094-0.876c-0.004-0.496-0.018-0.584-0.139-0.946
				c-0.383-1.146-1.272-1.904-2.423-2.068c-0.989-0.14-2.054,0.366-2.661,1.268c-0.1,0.151-0.186,0.266-0.186,0.253
				c0-0.055,0.186-0.497,0.313-0.75c0.197-0.396,0.475-0.758,0.766-1.002c0.561-0.472,0.924-0.872,1.104-1.226
				c0.258-0.492,0.35-0.897,0.354-1.486c0.01-0.763-0.197-1.382-0.656-1.967c-0.279-0.354-0.509-0.548-0.918-0.771
				C197.227,79.86,196.512,79.771,195.871,79.937z"/>
		</g>
		<g>
			<rect x="158.5" y="81.5" fill="#FFFFFF" stroke="#1C1C1B" stroke-miterlimit="10" width="29" height="35"/>
			<text transform="matrix(1 0 0 1 161.4668 92.9414)" font-family="'Roboto-Light'" font-size="9.7912">6</text>
			<path fill="#1C1C1B" d="M175.691,96.963c-1.991,0.521-2.875,2.977-1.704,4.746c0.223,0.342,0.618,0.72,0.96,0.918
				c0.332,0.193,0.568,0.463,0.82,0.955c0.156,0.291,0.379,0.834,0.379,0.906c0,0.017-0.092-0.114-0.211-0.291
				c-0.921-1.406-2.749-1.734-4.072-0.732c-0.467,0.354-0.884,0.969-1.07,1.583c-0.078,0.258-0.096,0.418-0.1,0.863
				c0,0.577,0.043,0.817,0.219,1.255c0.248,0.615,0.791,1.223,1.355,1.521c1.197,0.628,2.654,0.316,3.496-0.749
				c0.114-0.144,0.244-0.332,0.291-0.426c0.123-0.231,0.113-0.131-0.017,0.215c-0.16,0.43-0.413,0.889-0.653,1.184
				c-0.53,0.67-1.415,1.17-2.24,1.276c-0.16,0.016-0.295,0.042-0.304,0.05c-0.008,0.01,1.593,0.013,3.56,0.013
				c1.961,0,3.549-0.013,3.524-0.029c-0.029-0.018-0.11-0.033-0.181-0.033c-0.22,0-0.856-0.202-1.201-0.384
				c-0.581-0.303-1.125-0.83-1.448-1.411c-0.151-0.261-0.413-0.863-0.388-0.884c0.008-0.009,0.094,0.105,0.189,0.257
				c0.32,0.484,0.852,0.889,1.448,1.107c0.278,0.101,0.367,0.113,0.876,0.113c0.511,0,0.598-0.013,0.877-0.113
				c0.951-0.346,1.625-1.078,1.911-2.085c0.077-0.27,0.094-0.425,0.094-0.876c-0.005-0.496-0.017-0.585-0.14-0.946
				c-0.383-1.146-1.271-1.904-2.422-2.068c-0.989-0.14-2.055,0.366-2.662,1.268c-0.1,0.151-0.185,0.266-0.185,0.252
				c0-0.054,0.185-0.496,0.312-0.749c0.198-0.396,0.476-0.759,0.766-1.002c0.561-0.472,0.924-0.872,1.104-1.226
				c0.258-0.493,0.351-0.898,0.354-1.486c0.01-0.763-0.196-1.383-0.656-1.967c-0.277-0.354-0.508-0.549-0.917-0.771
				C177.048,96.887,176.332,96.798,175.691,96.963z"/>
		</g>
		<g>
			<rect x="138.5" y="99.5" fill="#FFFFFF" stroke="#1C1C1B" stroke-miterlimit="10" width="29" height="34"/>
			<text transform="matrix(1 0 0 1 141.6025 110.5986)" font-family="'Roboto-Light'" font-size="9.7912">7</text>
			<path fill="#FF0909" d="M153.452,116.107c-1.007,0.261-1.769,1.064-2.127,2.231c-0.085,0.27-0.097,0.409-0.097,0.927
				c0,0.576,0.004,0.632,0.13,0.998c0.347,0.998,0.821,1.676,2.519,3.593c1.069,1.208,1.486,1.722,1.926,2.374
				c0.674,1.008,1.077,2.068,1.09,2.881c0.004,0.22,0.014,0.253,0.037,0.156c0.018-0.072,0.033-0.224,0.039-0.337
				c0.012-0.451,0.268-1.26,0.611-1.896c0.457-0.867,0.917-1.457,2.682-3.437c1.069-1.199,1.566-1.853,1.899-2.505
				c0.35-0.683,0.472-1.146,0.472-1.807c0-1.016-0.362-1.861-1.079-2.531c-0.9-0.842-2.24-0.961-3.255-0.291
				c-0.227,0.152-0.611,0.526-0.805,0.779c-0.164,0.223-0.416,0.758-0.501,1.073l-0.075,0.282l-0.076-0.285
				c-0.042-0.157-0.151-0.439-0.244-0.624C155.979,116.436,154.678,115.783,153.452,116.107z"/>
		</g>
		<g>
			<rect x="118.5" y="114.5" fill="#FFFFFF" stroke="#1C1C1B" stroke-miterlimit="10" width="29" height="35"/>
			<text transform="matrix(1 0 0 1 121.7383 125.7334)" font-family="'Roboto-Light'" font-size="9.7912">8</text>
			<path fill="#1C1C1B" d="M135.965,129.754c-1.992,0.521-2.877,2.977-1.705,4.746c0.223,0.342,0.618,0.72,0.959,0.918
				c0.333,0.193,0.569,0.463,0.822,0.955c0.154,0.291,0.378,0.834,0.378,0.906c0,0.017-0.091-0.114-0.211-0.291
				c-0.921-1.406-2.749-1.734-4.071-0.732c-0.467,0.354-0.885,0.969-1.07,1.583c-0.079,0.258-0.097,0.418-0.1,0.863
				c0,0.577,0.041,0.817,0.217,1.255c0.25,0.615,0.793,1.223,1.356,1.521c1.197,0.628,2.654,0.316,3.495-0.749
				c0.115-0.144,0.246-0.332,0.293-0.426c0.121-0.231,0.113-0.131-0.018,0.215c-0.16,0.43-0.413,0.889-0.652,1.184
				c-0.531,0.67-1.416,1.17-2.241,1.276c-0.16,0.016-0.296,0.042-0.304,0.05c-0.008,0.01,1.592,0.013,3.559,0.013
				c1.963,0,3.551-0.013,3.525-0.029c-0.029-0.018-0.111-0.033-0.182-0.033c-0.219,0-0.855-0.202-1.2-0.384
				c-0.581-0.303-1.124-0.83-1.448-1.411c-0.151-0.261-0.412-0.863-0.389-0.884c0.01-0.009,0.094,0.105,0.19,0.257
				c0.319,0.484,0.851,0.889,1.448,1.107c0.278,0.101,0.367,0.113,0.875,0.113c0.512,0,0.6-0.013,0.877-0.113
				c0.953-0.346,1.627-1.078,1.912-2.085c0.076-0.27,0.094-0.425,0.094-0.876c-0.005-0.496-0.018-0.585-0.139-0.946
				c-0.384-1.146-1.273-1.904-2.424-2.068c-0.988-0.14-2.054,0.366-2.661,1.268c-0.1,0.151-0.185,0.266-0.185,0.252
				c0-0.054,0.185-0.496,0.312-0.749c0.198-0.396,0.476-0.759,0.767-1.002c0.561-0.472,0.924-0.872,1.104-1.226
				c0.257-0.492,0.35-0.898,0.354-1.486c0.01-0.763-0.197-1.383-0.656-1.967c-0.279-0.354-0.51-0.549-0.918-0.771
				C137.32,129.678,136.604,129.589,135.965,129.754z"/>
		</g>
		<g>
			<rect x="99.5" y="128.5" fill="#FFFFFF" stroke="#1C1C1B" stroke-miterlimit="10" width="29" height="35"/>
			<path fill="#050703" d="M117.45,146.115c-0.535,0.826-1.546,2.263-1.967,2.789c-0.506,0.636-1.769,1.891-3.116,3.1l-0.261,0.231
				l0.766,0.698c1.02,0.932,2.123,2.035,2.526,2.531c0.41,0.502,1.242,1.673,1.904,2.675c0.278,0.417,0.514,0.763,0.526,0.763
				s0.27-0.371,0.577-0.83c0.623-0.935,1.334-1.938,1.738-2.459c0.354-0.455,1.387-1.508,2.317-2.367
				c0.403-0.371,0.816-0.754,0.917-0.847l0.182-0.169l-0.725-0.652c-1.137-1.027-2.286-2.19-2.732-2.771
				c-0.477-0.619-1.322-1.82-1.861-2.649c-0.215-0.328-0.4-0.598-0.413-0.598S117.648,145.809,117.45,146.115z"/>
			<text transform="matrix(1 0 0 1 102.5059 139.6064)" font-family="'Roboto-Light'" font-size="9.7912">9</text>
		</g>
	</g>
</g>
</svg>
