<?xml version="1.0" encoding="utf-8"?>
<!-- Generator: Adobe Illustrator 16.0.0, SVG Export Plug-In . SVG Version: 6.00 Build 0)  -->
<!DOCTYPE svg PUBLIC "-//W3C//DTD SVG 1.1//EN" "http://www.w3.org/Graphics/SVG/1.1/DTD/svg11.dtd">
<svg version="1.1" id="Capa_1" xmlns="http://www.w3.org/2000/svg" xmlns:xlink="http://www.w3.org/1999/xlink" x="0px" y="0px"
	 width="74.145px" height="150.976px" viewBox="0 0 74.145 150.976" enable-background="new 0 0 74.145 150.976"
	 xml:space="preserve">
<g>
	<path fill-rule="evenodd" clip-rule="evenodd" fill="#FFFFFF" d="M57.687,77.132c0.501-18.162,1.284-36.318,1.217-54.491
		c-0.009-2.683,0.021-5.394-0.669-7.994C56.69,8.827,53.876,3.989,47.528,2.368c-5.556-1.419-11.187,0.943-14.097,5.881
		c-1.03,1.749-1.82,3.64-2.722,5.465c-1.352,2.741-2.656,5.52-5.018,7.588c-0.494,0.432-0.616,0.979-0.644,1.582
		c-0.045,0.977-0.311,1.876-0.76,2.761c-0.678,1.335-0.357,2.392,1.076,2.805c2.967,0.853,4.828,2.646,6.053,5.485
		c0.772,1.787,2.432,2.928,4.505,3.262c2.856,0.46,5.7,0.999,8.553,1.483c0.741,0.126,1.32,0.353,1.485,1.204
		c0.175,0.903-0.266,1.373-0.978,1.805c-1.38,0.838-3.097,1.207-3.811,2.99c-0.238,0.597-0.509,1.148-0.563,1.791
		c-0.679,7.902-1.39,15.801-2.018,23.707c-0.148,1.876,0.139,3.738,1.381,5.285c0.861,1.074,0.295,1.396-0.736,1.441
		c-2.998,0.129-5.997,0.232-8.997,0.34c-5.516,0.198-11.033,0.391-16.55,0.59c-0.816,0.029-1.607-0.071-2.361-0.385
		c-2.426-1.007-4.844-2.031-7.274-3.022c-1.009-0.413-1.471-0.987-0.569-1.886c1.97-1.965,2.112-4.305,1.931-6.94
		c-0.443-6.467-0.7-12.951-0.883-19.433c-0.076-2.699-0.975-4.776-3.308-6.166c-0.925-0.549-1.441-1.249-1.137-2.378
		c0.299-1.113,1.277-0.821,1.997-0.921c2.442-0.336,4.891-0.631,7.345-0.854c2.283-0.205,3.934-1.137,4.8-3.383
		c0.915-2.374,2.666-3.797,5.233-4.24c1.767-0.305,2.043-1.178,1.494-2.908c-0.533-1.674-1.328-2.305-3.186-2.129
		c-2.144,0.203-4.269-0.374-6.141-1.552c-2.075-1.306-2.945-3.619-2.259-5.844c0.64-2.073,2.928-3.663,5.206-3.577
		c1.329,0.051,2.414,0.559,2.885,1.904c0.387,1.101-0.003,2.008-0.877,2.705c-0.464,0.371-1.061,0.768-1.573,0.222
		c-0.476-0.507-0.077-0.979,0.391-1.331c0.38-0.29,0.539-0.669,0.366-1.129c-0.197-0.521-0.66-0.672-1.154-0.732
		c-1.305-0.158-3.022,0.808-3.553,2.055c-0.612,1.436-0.388,2.832,0.783,3.82c2.248,1.893,4.947,2.121,7.748,1.718
		c0.651-0.095,0.776-0.646,1.006-1.13c0.808-1.701,1.501-2.001,3.131-1.164c0.745,0.383,1.183,0.177,1.693-0.307
		c1.145-1.086,1.991-2.374,2.681-3.783c1.622-3.318,3.149-6.68,5.402-9.662C38.634-1.381,48.678-1.83,54.436,4.36
		c4.508,4.846,6.431,10.635,6.357,17.035c-0.156,13.504-0.566,27.006-0.89,40.508c-0.579,24.273-1.171,48.545-1.757,72.817
		c-0.011,0.429,0.013,0.86-0.036,1.286c-0.174,1.52,0.395,2.249,2.015,2.33c2.84,0.145,5.649,0.586,8.368,1.477
		c1.483,0.488,2.923,1.076,4.142,2.082c2.004,1.652,2.013,3.63,0.028,5.283c-1.044,0.869-2.248,1.477-3.53,1.878
		c-8.225,2.573-16.455,2.562-24.668-0.05c-1.281-0.407-2.478-1.032-3.505-1.921c-1.823-1.575-1.832-3.5,0.009-5.073
		c1.587-1.357,3.507-2.045,5.501-2.527c2.561-0.621,5.163-0.996,7.79-1.092c1.57-0.057,2.066-0.693,2.099-2.268
		C56.763,116.46,57.233,96.796,57.687,77.132z M28.702,51.931c0.203,0.123,0.405,0.244,0.608,0.367
		c0.1,0.634,0.034,1.347,0.79,1.826c0.442-1.375,0.042-2.718,0.559-3.922c-0.016,1.215-0.067,2.429-0.032,3.642
		c0.029,0.972-0.307,2.036,0.578,2.84c0.03,0.151,0.061,0.302,0.092,0.454c0.019,0.871,0.512,1.229,1.331,1.189
		c0.685-0.033,1.369-0.154,2.052-0.139c1.243,0.026,1.741-0.484,1.397-1.717c0.479-0.363,0.522-0.904,0.555-1.436
		c0.128-2.068,0.23-4.139,0.366-6.206c0.095-1.431-0.502-1.868-1.826-1.345c-0.117-0.011-0.235-0.021-0.354-0.031
		c-0.111,0-0.222,0.002-0.333,0.002c-0.191-0.01-0.383-0.02-0.574-0.029c-2.541-0.573-2.738-0.444-3.051,1.939
		c-0.041,0.309-0.146,0.611-0.22,0.918c-0.023-0.735-0.038-1.469-0.074-2.201c-0.029-0.627-0.217-1.063-0.968-0.684
		c-0.186-0.09-0.373-0.18-0.559-0.271c-0.773,0.011-0.912,0.533-0.982,1.158C27.915,49.569,28.057,50.793,28.702,51.931z
		 M29.048,70.539c1.714,0.071,3.422,0.025,5.125-0.167c0.085-0.035,0.227-0.053,0.243-0.109c0.062-0.202-0.105-0.24-0.254-0.277
		c-0.111-0.219-0.223-0.436-0.333-0.656c1.865,0.461,1.877,0.461,2.028-1.534c0.154-2.021,0.273-4.044,0.435-6.063
		c0.06-0.754-0.007-1.396-0.863-1.65c-4.063-0.434-4.903,0.146-5.465,3.768c-0.116,0.018-0.233,0.036-0.351,0.056
		c-0.652,0.622-0.758,1.438-0.805,2.275c-1.083,0.655-1.631,2.347-1.298,3.696C27.752,70.854,28.518,70.37,29.048,70.539z
		 M17.248,52.772c-0.035,0-0.071,0-0.107,0c0,1.068,0.002,2.139-0.001,3.208c-0.007,2.354-0.004,2.263,2.424,2.403
		c1.732,0.1,2.931-0.282,3.659-2.026c0.572-1.368,1.419-2.638,2.257-3.875c0.824-1.218,1.044-2.522,1.041-3.948
		c-0.001-1.066-0.372-1.611-1.479-1.586c-2.138,0.049-4.275,0.094-6.414,0.113c-0.942,0.01-1.369,0.482-1.376,1.381
		C17.242,49.886,17.248,51.329,17.248,52.772z M21.087,70.819c1.017-0.051,2.032-0.135,3.05-0.144
		c1.021-0.007,1.441-0.485,1.427-1.483c-0.015-0.976-0.112-1.92-0.542-2.814c-0.65-1.351-1.431-2.662-1.895-4.075
		c-0.635-1.937-1.856-2.585-3.763-2.271c-0.313,0.052-0.642,0.035-0.963,0.035c-1.055,0.002-1.557,0.49-1.538,1.58
		c0.028,1.713-0.033,3.428-0.016,5.143C16.896,71.399,16.166,70.946,21.087,70.819z M23.531,59.304
		c0.652,1.805,1.506,3.703,2.505,5.527c0.385,0.703,0.832,0.246,1.074-0.191c0.934-1.68,1.836-3.378,2.732-5.078
		c0.212-0.4,0.159-0.836-0.015-1.244c-0.669-1.572-1.335-3.146-2.029-4.709c-0.436-0.983-0.948-0.893-1.439-0.031
		c-0.61,1.066-1.224,2.131-1.801,3.215C24.162,57.538,23.6,58.22,23.531,59.304z M13.156,52.257c0.005,0,0.009,0,0.014,0
		c0-1.499,0.008-2.998-0.002-4.498c-0.01-1.42-1.119-1.343-2.054-1.465c-1.021-0.137-1.086,0.607-1.176,1.326
		c-0.406,3.246,0.973,6.199,1.547,9.283c0.091,0.484,0.517,0.856,1.085,0.725c0.511-0.121,0.573-0.607,0.579-1.035
		C13.168,55.147,13.156,53.702,13.156,52.257z M5.429,50.463c0.031,0.001,0.063,0.001,0.094,0.003
		c0.096,1.492,0.191,2.984,0.288,4.477c0.041,0.619,0.143,1.219,0.945,1.225c0.76,0.007,0.748-0.656,0.865-1.145
		c0.361-1.506,0.712-3.016,1.015-4.535c0.255-1.277,0.059-2.561-0.187-3.817c-0.251-1.294-1.416-1.187-2.316-1.198
		c-0.992-0.013-0.686,0.881-0.697,1.469C5.412,48.114,5.429,49.289,5.429,50.463z M5.833,63.313c0.062,0,0.124,0,0.186,0
		c0.081,1.6,0.141,3.201,0.25,4.799c0.081,1.201,1.079,1.334,1.958,1.522c0.56,0.12,0.736-0.297,0.783-0.771
		c0.35-3.543-0.678-6.871-1.614-10.211c-0.125-0.449-0.523-0.684-0.999-0.641c-0.621,0.056-0.551,0.575-0.556,0.979
		C5.821,60.432,5.833,61.874,5.833,63.313z M12.838,65.095c-0.061,0-0.122,0-0.184,0c0-1.598,0.006-3.195-0.003-4.794
		c-0.004-0.513-0.157-0.954-0.737-1.083c-0.468-0.105-0.716,0.172-0.828,0.555c-0.922,3.144-1.516,6.331-0.972,9.612
		c0.171,1.036,1.204,1.253,1.986,1.312c0.945,0.073,0.704-0.875,0.723-1.445C12.868,67.868,12.838,66.479,12.838,65.095z
		 M9.102,53.116c-1.289,3.277-1.135,6.133,0.231,9.103C11.235,59.143,10.381,56.31,9.102,53.116z"/>
	<path fill-rule="evenodd" clip-rule="evenodd" fill="#0F253B" d="M34.485,47.456c0.075,3.068-1.176,5.822-2.051,8.665
		c-0.168,0.543-0.566,0.894-1.138,1.017c-0.031-0.152-0.062-0.303-0.092-0.453c1.734-2.203,2.081-4.897,2.624-7.516
		c0.116-0.563,0.059-1.16,0.082-1.742C34.103,47.437,34.294,47.446,34.485,47.456z"/>
	<path fill-rule="evenodd" clip-rule="evenodd" fill="#112840" d="M35.172,47.485c-0.343,2.746,0.508,5.363,0.877,8.032
		c-0.126-0.001-0.254-0.001-0.381-0.003c-0.889-2.623-1.001-5.328-0.85-8.061C34.937,47.464,35.055,47.475,35.172,47.485z"/>
	<path fill-rule="evenodd" clip-rule="evenodd" fill="#0F253B" d="M28.702,51.931c0.547-1.57,0.221-3.201,0.338-4.803
		c0.186,0.092,0.373,0.182,0.559,0.271c0.063,1.643,0.076,3.281-0.288,4.898C29.107,52.175,28.905,52.054,28.702,51.931z"/>
	<path fill-rule="evenodd" clip-rule="evenodd" fill="#0E2338" d="M29.964,63.849c0.02,0.643,0.078,1.286,0.049,1.926
		c-0.066,1.477-0.029,2.871,1.917,3.244c-1.687,0.108-2.375-0.643-2.281-2.222c0.057-0.96-0.019-1.928-0.035-2.893
		C29.73,63.885,29.848,63.866,29.964,63.849z"/>
	<path fill-rule="evenodd" clip-rule="evenodd" fill="#060E16" d="M34.173,70.372c-0.004-0.129-0.007-0.258-0.011-0.387
		c0.148,0.037,0.315,0.075,0.254,0.277C34.399,70.319,34.258,70.337,34.173,70.372z"/>
	<path fill-rule="evenodd" clip-rule="evenodd" fill="#163656" d="M33.523,67.72c0.319,0.502,0.367,1.055,0.317,1.625
		C33.378,68.874,33.621,68.265,33.523,67.72z"/>
	<path fill-rule="evenodd" clip-rule="evenodd" fill="#163656" d="M35.668,55.515c0.127,0.002,0.255,0.002,0.381,0.003
		c0.019,0.323,0.038,0.644,0.057,0.966C35.752,56.255,35.756,55.864,35.668,55.515z"/>
</g>
</svg>
