<?xml version="1.0" encoding="utf-8"?>
<!-- Generator: Adobe Illustrator 16.0.0, SVG Export Plug-In . SVG Version: 6.00 Build 0)  -->
<!DOCTYPE svg PUBLIC "-//W3C//DTD SVG 1.1//EN" "http://www.w3.org/Graphics/SVG/1.1/DTD/svg11.dtd">
<svg version="1.1" id="Capa_1" xmlns="http://www.w3.org/2000/svg" xmlns:xlink="http://www.w3.org/1999/xlink" x="0px" y="0px"
	 width="257px" height="56px" viewBox="0 0 257 56" enable-background="new 0 0 257 56" xml:space="preserve">
<g>
	<rect x="0.5" y="0.5" fill="#FFFFFF" stroke="#1C1C1B" stroke-miterlimit="10" width="46" height="55"/>
	<text transform="matrix(1 0 0 1 5.5 18.3965)" font-family="'Roboto-Light'" font-size="15.5269">A</text>
	<rect x="53.5" y="0.5" fill="#FFFFFF" stroke="#1C1C1B" stroke-miterlimit="10" width="46" height="55"/>
	<text transform="matrix(1 0 0 1 58 18.3965)" font-family="'Roboto-Light'" font-size="15.5269">K</text>
	<rect x="105.5" y="0.5" fill="#FFFFFF" stroke="#1C1C1B" stroke-miterlimit="10" width="46" height="55"/>
	<text transform="matrix(1 0 0 1 110.5 18.3965)" font-family="'Roboto-Light'" font-size="15.5269">Q</text>
	<rect x="158.5" y="0.5" fill="#FFFFFF" stroke="#1C1C1B" stroke-miterlimit="10" width="46" height="55"/>
	<text transform="matrix(1 0 0 1 163 18.3965)" font-family="'Roboto-Light'" font-size="15.5269">J</text>
	<rect x="210.5" y="0.5" fill="#FFFFFF" stroke="#1C1C1B" stroke-miterlimit="10" width="46" height="55"/>
	<text transform="matrix(1 0 0 1 215.5 18.3965)" font-family="'Roboto-Light'" font-size="15.5269">10</text>
	<path fill="#050703" d="M133.59,27.945c-3.158,0.828-4.561,4.723-2.703,7.527c0.354,0.541,0.98,1.143,1.521,1.455
		c0.527,0.307,0.902,0.734,1.303,1.516c0.246,0.461,0.6,1.322,0.6,1.438c0,0.025-0.145-0.182-0.334-0.461
		c-1.461-2.23-4.359-2.752-6.457-1.162c-0.74,0.561-1.402,1.535-1.697,2.51c-0.125,0.408-0.152,0.662-0.158,1.369
		c0,0.916,0.066,1.297,0.346,1.99c0.395,0.975,1.256,1.938,2.15,2.412c1.898,0.994,4.209,0.5,5.543-1.189
		c0.182-0.227,0.389-0.527,0.463-0.676c0.193-0.365,0.18-0.205-0.027,0.342c-0.254,0.682-0.654,1.408-1.035,1.877
		c-0.842,1.063-2.244,1.855-3.553,2.023c-0.254,0.025-0.469,0.066-0.482,0.08c-0.012,0.014,2.525,0.02,5.645,0.02
		c3.111,0,5.629-0.02,5.59-0.047c-0.047-0.027-0.176-0.053-0.287-0.053c-0.348,0-1.357-0.32-1.904-0.607
		c-0.922-0.48-1.783-1.316-2.297-2.238c-0.24-0.414-0.654-1.369-0.615-1.402c0.014-0.014,0.148,0.168,0.301,0.408
		c0.508,0.768,1.35,1.408,2.297,1.756c0.441,0.16,0.582,0.18,1.389,0.18c0.811,0,0.949-0.02,1.391-0.18
		c1.51-0.549,2.578-1.709,3.031-3.307c0.121-0.426,0.148-0.674,0.148-1.389c-0.008-0.787-0.027-0.928-0.221-1.502
		c-0.607-1.816-2.018-3.02-3.842-3.279c-1.568-0.221-3.258,0.582-4.221,2.01c-0.158,0.24-0.293,0.422-0.293,0.4
		c0-0.086,0.293-0.787,0.494-1.188c0.314-0.629,0.754-1.203,1.215-1.59c0.889-0.748,1.465-1.383,1.75-1.943
		c0.408-0.781,0.555-1.424,0.561-2.357c0.016-1.209-0.313-2.191-1.041-3.119c-0.441-0.561-0.807-0.869-1.455-1.223
		C135.74,27.826,134.605,27.686,133.59,27.945z"/>
	<path fill="#050703" d="M187.035,27.945c-3.158,0.828-4.561,4.723-2.703,7.527c0.354,0.541,0.98,1.143,1.521,1.455
		c0.527,0.307,0.902,0.734,1.303,1.516c0.246,0.461,0.6,1.322,0.6,1.438c0,0.025-0.145-0.182-0.334-0.461
		c-1.461-2.23-4.359-2.752-6.457-1.162c-0.74,0.561-1.402,1.535-1.697,2.51c-0.125,0.408-0.152,0.662-0.158,1.369
		c0,0.916,0.066,1.297,0.346,1.99c0.395,0.975,1.256,1.938,2.15,2.412c1.898,0.994,4.209,0.5,5.543-1.189
		c0.182-0.227,0.389-0.527,0.463-0.676c0.193-0.365,0.18-0.205-0.027,0.342c-0.254,0.682-0.654,1.408-1.035,1.877
		c-0.842,1.063-2.244,1.855-3.553,2.023c-0.254,0.025-0.469,0.066-0.482,0.08c-0.012,0.014,2.525,0.02,5.645,0.02
		c3.111,0,5.629-0.02,5.59-0.047c-0.047-0.027-0.176-0.053-0.287-0.053c-0.348,0-1.357-0.32-1.904-0.607
		c-0.922-0.48-1.783-1.316-2.297-2.238c-0.24-0.414-0.654-1.369-0.615-1.402c0.014-0.014,0.148,0.168,0.301,0.408
		c0.508,0.768,1.35,1.408,2.297,1.756c0.441,0.16,0.582,0.18,1.389,0.18c0.811,0,0.949-0.02,1.391-0.18
		c1.51-0.549,2.578-1.709,3.031-3.307c0.121-0.426,0.148-0.674,0.148-1.389c-0.008-0.787-0.027-0.928-0.221-1.502
		c-0.607-1.816-2.018-3.02-3.842-3.279c-1.568-0.221-3.258,0.582-4.221,2.01c-0.158,0.24-0.293,0.422-0.293,0.4
		c0-0.086,0.293-0.787,0.494-1.188c0.314-0.629,0.754-1.203,1.215-1.59c0.889-0.748,1.465-1.383,1.75-1.943
		c0.408-0.781,0.555-1.424,0.561-2.357c0.016-1.209-0.313-2.191-1.041-3.119c-0.441-0.561-0.807-0.869-1.455-1.223
		C189.186,27.826,188.051,27.686,187.035,27.945z"/>
	<path fill="#050703" d="M241.058,27.945c-3.158,0.828-4.561,4.723-2.703,7.527c0.354,0.541,0.98,1.143,1.521,1.455
		c0.527,0.307,0.902,0.734,1.303,1.516c0.246,0.461,0.6,1.322,0.6,1.438c0,0.025-0.145-0.182-0.334-0.461
		c-1.461-2.23-4.359-2.752-6.457-1.162c-0.74,0.561-1.402,1.535-1.697,2.51c-0.125,0.408-0.152,0.662-0.158,1.369
		c0,0.916,0.066,1.297,0.346,1.99c0.395,0.975,1.256,1.938,2.15,2.412c1.898,0.994,4.209,0.5,5.543-1.189
		c0.182-0.227,0.389-0.527,0.463-0.676c0.193-0.365,0.18-0.205-0.027,0.342c-0.254,0.682-0.654,1.408-1.035,1.877
		c-0.842,1.063-2.244,1.855-3.553,2.023c-0.254,0.025-0.469,0.066-0.482,0.08c-0.012,0.014,2.525,0.02,5.645,0.02
		c3.111,0,5.629-0.02,5.59-0.047c-0.047-0.027-0.176-0.053-0.287-0.053c-0.348,0-1.357-0.32-1.904-0.607
		c-0.922-0.48-1.783-1.316-2.297-2.238c-0.24-0.414-0.654-1.369-0.615-1.402c0.014-0.014,0.148,0.168,0.301,0.408
		c0.508,0.768,1.35,1.408,2.297,1.756c0.441,0.16,0.582,0.18,1.389,0.18c0.811,0,0.949-0.02,1.391-0.18
		c1.51-0.549,2.578-1.709,3.031-3.307c0.121-0.426,0.148-0.674,0.148-1.389c-0.008-0.787-0.027-0.928-0.221-1.502
		c-0.607-1.816-2.018-3.02-3.842-3.279c-1.568-0.221-3.258,0.582-4.221,2.01c-0.158,0.24-0.293,0.422-0.293,0.4
		c0-0.086,0.293-0.787,0.494-1.188c0.314-0.629,0.754-1.203,1.215-1.59c0.889-0.748,1.465-1.383,1.75-1.943
		c0.408-0.781,0.555-1.424,0.561-2.357c0.016-1.209-0.313-2.191-1.041-3.119c-0.441-0.561-0.807-0.869-1.455-1.223
		C243.208,27.826,242.073,27.686,241.058,27.945z"/>
	<path fill="#050703" d="M81.093,27.945c-3.158,0.828-4.561,4.723-2.703,7.527c0.354,0.541,0.98,1.143,1.521,1.455
		c0.527,0.307,0.902,0.734,1.303,1.516c0.246,0.461,0.6,1.322,0.6,1.438c0,0.025-0.145-0.182-0.334-0.461
		c-1.461-2.23-4.359-2.752-6.457-1.162c-0.74,0.561-1.402,1.535-1.697,2.51c-0.125,0.408-0.152,0.662-0.158,1.369
		c0,0.916,0.066,1.297,0.346,1.99c0.395,0.975,1.256,1.938,2.15,2.412c1.898,0.994,4.209,0.5,5.543-1.189
		c0.182-0.227,0.389-0.527,0.463-0.676c0.193-0.365,0.18-0.205-0.027,0.342c-0.254,0.682-0.654,1.408-1.035,1.877
		c-0.842,1.063-2.244,1.855-3.553,2.023c-0.254,0.025-0.469,0.066-0.482,0.08c-0.012,0.014,2.525,0.02,5.645,0.02
		c3.111,0,5.629-0.02,5.59-0.047c-0.047-0.027-0.176-0.053-0.287-0.053c-0.348,0-1.357-0.32-1.904-0.607
		c-0.922-0.48-1.783-1.316-2.297-2.238c-0.24-0.414-0.654-1.369-0.615-1.402c0.014-0.014,0.148,0.168,0.301,0.408
		c0.508,0.768,1.35,1.408,2.297,1.756c0.441,0.16,0.582,0.18,1.389,0.18c0.811,0,0.949-0.02,1.391-0.18
		c1.51-0.549,2.578-1.709,3.031-3.307c0.121-0.426,0.148-0.674,0.148-1.389c-0.008-0.787-0.027-0.928-0.221-1.502
		c-0.607-1.816-2.018-3.02-3.842-3.279c-1.568-0.221-3.258,0.582-4.221,2.01c-0.158,0.24-0.293,0.422-0.293,0.4
		c0-0.086,0.293-0.787,0.494-1.188c0.314-0.629,0.754-1.203,1.215-1.59c0.889-0.748,1.465-1.383,1.75-1.943
		c0.408-0.781,0.555-1.424,0.561-2.357c0.016-1.209-0.313-2.191-1.041-3.119c-0.441-0.561-0.807-0.869-1.455-1.223
		C83.243,27.826,82.108,27.686,81.093,27.945z"/>
	<path fill="#050703" d="M28.059,27.945c-3.158,0.828-4.561,4.723-2.703,7.527c0.354,0.541,0.98,1.143,1.521,1.455
		c0.527,0.307,0.902,0.734,1.303,1.516c0.246,0.461,0.6,1.322,0.6,1.438c0,0.025-0.145-0.182-0.334-0.461
		c-1.461-2.23-4.359-2.752-6.457-1.162c-0.74,0.561-1.402,1.535-1.697,2.51c-0.125,0.408-0.152,0.662-0.158,1.369
		c0,0.916,0.066,1.297,0.346,1.99c0.395,0.975,1.256,1.938,2.15,2.412c1.898,0.994,4.209,0.5,5.543-1.189
		c0.182-0.227,0.389-0.527,0.463-0.676c0.193-0.365,0.18-0.205-0.027,0.342c-0.254,0.682-0.654,1.408-1.035,1.877
		c-0.842,1.063-2.244,1.855-3.553,2.023c-0.254,0.025-0.469,0.066-0.482,0.08c-0.012,0.014,2.525,0.02,5.645,0.02
		c3.111,0,5.629-0.02,5.59-0.047c-0.047-0.027-0.176-0.053-0.287-0.053c-0.348,0-1.357-0.32-1.904-0.607
		c-0.922-0.48-1.783-1.316-2.297-2.238c-0.24-0.414-0.654-1.369-0.615-1.402c0.014-0.014,0.148,0.168,0.301,0.408
		c0.508,0.768,1.35,1.408,2.297,1.756c0.441,0.16,0.582,0.18,1.389,0.18c0.811,0,0.949-0.02,1.391-0.18
		c1.51-0.549,2.578-1.709,3.031-3.307c0.121-0.426,0.148-0.674,0.148-1.389c-0.008-0.787-0.027-0.928-0.221-1.502
		c-0.607-1.816-2.018-3.02-3.842-3.279c-1.568-0.221-3.258,0.582-4.221,2.01c-0.158,0.24-0.293,0.422-0.293,0.4
		c0-0.086,0.293-0.787,0.494-1.188c0.314-0.629,0.754-1.203,1.215-1.59c0.889-0.748,1.465-1.383,1.75-1.943
		c0.408-0.781,0.555-1.424,0.561-2.357c0.016-1.209-0.313-2.191-1.041-3.119c-0.441-0.561-0.807-0.869-1.455-1.223
		C30.209,27.826,29.074,27.686,28.059,27.945z"/>
</g>
</svg>
