<?xml version="1.0" encoding="utf-8"?>
<!-- Generator: Adobe Illustrator 16.0.0, SVG Export Plug-In . SVG Version: 6.00 Build 0)  -->
<!DOCTYPE svg PUBLIC "-//W3C//DTD SVG 1.1//EN" "http://www.w3.org/Graphics/SVG/1.1/DTD/svg11.dtd">
<svg version="1.1" id="Capa_1" xmlns="http://www.w3.org/2000/svg" xmlns:xlink="http://www.w3.org/1999/xlink" x="0px" y="0px"
	 width="67.382px" height="67.383px" viewBox="0 0 67.382 67.383" enable-background="new 0 0 67.382 67.383" xml:space="preserve">
<g>
	<g>
		<path fill-rule="evenodd" clip-rule="evenodd" d="M45.162,31.096c0.239-0.627,0.538-1.24,0.442-1.945
			c-0.104-0.77-0.346-1.469-1.022-1.927c-0.322-0.218-0.798-0.009-0.85,0.375c-0.068,0.532-0.396,0.947-0.848,1.019
			c-0.869,0.141-1.559,0.746-2.432,0.825c-0.209,0.017-0.415,0.067-0.621,0.063c-0.37-0.003-0.548,0.106-0.703,0.497
			c0.075,0.034,0.15,0.071,0.228,0.1c0.068,0.025,0.142,0.042,0.161,0.047c-0.075,0.207-0.217,0.415-0.199,0.605
			c0.018,0.204,0.188,0.392,0.298,0.597c-0.081-0.004-0.196-0.011-0.398-0.022c1.263,2.026,1.675,4.206,1.415,6.602
			c0.199-0.06,0.357-0.061,0.443-0.142c0.893-0.841,1.785-1.682,2.645-2.556c0.209-0.214,0.304-0.546,0.432-0.833
			c0.171-0.384-0.026-0.712-0.181-1.054c0.458,0.307,0.615,0.79,0.776,1.391c0.378-0.746,1.006-1.032,1.672-1.285
			c0.203-0.077,0.361-0.276,0.621-0.403c-0.029,0.114-0.032,0.248-0.097,0.336c-0.145,0.203-0.325,0.379-0.484,0.573
			c-0.051,0.062-0.08,0.14-0.119,0.209c0.082,0.031,0.165,0.084,0.251,0.089c0.674,0.039,0.947-0.431,1.015-1.139
			c0.01-0.094,0.057-0.184,0.085-0.276c0.053,0.083,0.107,0.166,0.158,0.249c0.341,0.55,0.051,1-0.248,1.429
			c-0.279,0.403-0.695,0.596-1.187,0.589c-0.361-0.005-0.72-0.039-1.079-0.053c-0.062-0.003-0.122,0.024-0.189,0.04
			c0.233,0.162,0.462,0.292,0.657,0.463c0.194,0.17,0.353,0.38,0.476,0.631c-0.078-0.06-0.159-0.117-0.238-0.18
			c-0.738-0.575-1.396-0.596-2.003,0.113c-0.593,0.691-1.126,1.437-1.708,2.139c-0.476,0.571-0.996,1.106-1.729,1.345
			c-0.149,0.049-0.38,0.027-0.506-0.059c-0.581-0.395-0.896-1.003-1.201-1.609c-0.329-0.656-0.515-1.354-0.559-2.085
			c-0.018-0.31,0.027-0.621,0.043-0.965c-0.596,0.096-1.059,0.418-1.513,0.751c-1.078,0.787-2.142,1.609-2.94,2.682
			c-0.452,0.609-0.749,1.347-1.043,2.056c-0.47,1.116-1.029,2.163-1.998,2.925c-0.41,0.321-0.876,0.573-1.322,0.848
			c-0.049,0.031-0.137-0.002-0.248-0.004c0.692-0.75,1.351-1.459,2.009-2.171c-0.035-0.036-0.071-0.076-0.104-0.115
			c-0.231,0.186-0.474,0.355-0.69,0.557c-1.53,1.427-3.268,2.558-5.072,3.598c-0.32,0.185-0.638,0.454-0.835,0.759
			c-0.901,1.386-2.186,2.323-3.561,3.164c-0.149,0.09-0.269,0.229-0.401,0.346c0.179,0.058,0.354,0.137,0.538,0.171
			c0.192,0.036,0.393,0.015,0.586,0.048c0.064,0.012,0.113,0.112,0.169,0.174c-0.067,0.036-0.13,0.096-0.202,0.104
			c-0.336,0.045-0.673,0.078-1.01,0.109c-0.559,0.055-1.016,0.396-0.635,1.147c0.41,0.804,1.009,1.424,1.832,1.812
			c0.089,0.042,0.18,0.081,0.27,0.12c0.115-0.089,0.222-0.209,0.353-0.27c0.188-0.087,0.356-0.029,0.484,0.151
			c0.148,0.205,0.142,0.414-0.041,0.558c-0.118,0.091-0.375,0.169-0.458,0.105c-0.222-0.165-0.426-0.151-0.671-0.124
			c-0.846,0.094-1.536-0.266-2.062-0.883c-0.411-0.484-0.717-1.058-1.084-1.58c-0.292-0.42-0.587-0.842-0.917-1.232
			c-0.309-0.364-0.338-0.459,0.059-0.701c0.242-0.148,0.529-0.232,0.806-0.318c0.382-0.118,0.752-0.233,0.859-0.69
			c0.021-0.089,0.083-0.166,0.207-0.241c0.016,0.132,0.032,0.263,0.057,0.442c0.214-0.315,0.397-0.604,0.601-0.88
			c0.749-1.018,1.66-1.869,2.697-2.587c0.95-0.656,1.587-1.583,2.181-2.537c0.833-1.339,1.782-2.584,2.897-3.701
			c0.063-0.063,0.115-0.14,0.171-0.208c-0.021-0.022-0.043-0.045-0.067-0.066c-0.262,0.251-0.521,0.501-0.787,0.746
			c-1.029,0.953-2.168,1.762-3.341,2.528c-0.806,0.528-1.589,1.09-2.146,1.895c-0.63,0.91-1.356,1.729-2.205,2.437
			c-0.453,0.377-0.957,0.697-1.398,1.017c0.113,0.008,0.301,0.019,0.488,0.029c0.015,0.036,0.028,0.074,0.043,0.108
			c-0.722,0.112-0.942,0.598-1.054,1.218c-0.045,0.262-0.238,0.51-0.405,0.734c-0.048,0.066-0.301,0.093-0.346,0.038
			c-0.703-0.81-1.733-1.13-2.559-1.748c-0.769-0.574-1.365-1.271-1.367-2.308c0-0.119,0.046-0.24,0.041-0.357
			c-0.006-0.121-0.019-0.257-0.081-0.353c-0.147-0.229-0.148-0.443,0.053-0.611c0.195-0.164,0.409-0.182,0.603,0.044
			c0.196,0.226,0.114,0.41-0.035,0.617c-0.061,0.084-0.123,0.236-0.087,0.313c0.411,0.837,1.002,1.516,1.853,1.932
			c0.632,0.308,0.984,0.152,1.14-0.522c0.084-0.36,0.092-0.739,0.144-1.108c0.01-0.07,0.066-0.135,0.101-0.2
			c0.06,0.054,0.161,0.102,0.17,0.165c0.037,0.246,0.037,0.498,0.068,0.745c0.02,0.146,0.074,0.287,0.139,0.537
			c0.213-0.325,0.379-0.561,0.528-0.807c0.804-1.318,1.741-2.509,3.078-3.334c0.526-0.326,0.772-0.886,1.059-1.393
			c0.844-1.502,1.822-2.907,2.981-4.182c0.241-0.265,0.462-0.547,0.689-0.824c0.035-0.042,0.049-0.103,0.045-0.177
			c-0.828,0.51-1.476,1.222-2.204,1.975c-0.05-0.474,0.205-0.721,0.371-0.989c0.737-1.184,1.805-1.962,3.081-2.486
			c0.614-0.252,1.229-0.508,1.825-0.8c0.745-0.363,1.272-0.988,1.818-1.585c0.69-0.757,1.366-1.526,1.86-2.43
			c0.129-0.235,0.223-0.491,0.35-0.775c-0.422-0.001-0.781,0.031-1.13-0.008c-0.769-0.088-1.517-0.294-2.188-0.682
			c-0.441-0.255-0.858-0.568-1.243-0.906c-0.362-0.32-0.349-0.546-0.119-0.978c0.47-0.881,1.246-1.456,2.011-2.044
			c0.527-0.404,1.032-0.836,1.552-1.25c0.501-0.4,0.47-1.132,0.112-1.646c-0.094-0.132-0.202-0.254-0.285-0.399
			c0.468,0.193,0.726,0.614,1.009,1.01c0.033-0.007,0.065-0.014,0.1-0.021c-0.006-0.252,0.031-0.514-0.024-0.754
			c-0.26-1.141,0.624-1.884,1.529-1.995c0.229-0.028,0.487,0.197,0.825,0.348c-0.388,0.071-0.688,0.096-0.97,0.181
			c-0.511,0.155-0.749,0.786-0.441,1.182c0.165-0.153,0.317-0.325,0.499-0.454c0.168-0.121,0.305-0.366,0.625-0.225
			c-0.124,0.141-0.241,0.249-0.329,0.377c-0.121,0.181-0.29,0.365-0.314,0.563c-0.06,0.493-0.37,0.767-0.733,1.025
			c-0.093,0.067-0.164,0.167-0.284,0.294c0.531,0.143,1.014,0.291,1.388,0.78c-0.13-0.033-0.198-0.032-0.239-0.064
			c-0.446-0.355-0.901-0.211-1.299,0.045c-0.404,0.259-0.776,0.584-1.121,0.923c-0.561,0.552-1.092,1.13-1.62,1.711
			c-0.146,0.159-0.236,0.366-0.353,0.552c0.203,0.029,0.407,0.095,0.609,0.083c1.439-0.082,2.848,0.069,4.198,0.587
			c0.527,0.202,1.015,0.5,1.522,0.754c0.066,0.033,0.137,0.062,0.256,0.115c-0.033-0.164-0.058-0.284-0.098-0.484
			c0.396,0.384,0.764,0.662,1.248,0.125c0.052,0.192,0.086,0.326,0.127,0.48c0.315-0.141,0.482-0.299,0.473-0.708
			c-0.024-0.92,0.349-1.747,0.772-2.548c0.044-0.084,0.06-0.199,0.05-0.296c-0.035-0.343,0.447-0.919,0.855-1.08
			c0.328-0.13,0.628-0.329,0.93-0.492c-0.47-1.305-2.172-2.036-3.885-1.052c0.115,0.498,0.007,0.797-0.339,0.937
			c-0.275,0.111-0.621-0.002-0.774-0.253c-0.163-0.265-0.111-0.591,0.128-0.798c0.269-0.231,0.573-0.216,0.881,0.045
			c0.698-0.544,1.422-1.037,2.28-1.309c1.524-0.486,2.912,0.15,3.609,1.567c0.034,0.068,0.074,0.131,0.117,0.202
			c1.156-0.612,2.332-0.702,3.519-0.179c0.865,0.382,1.541,1.014,2.115,1.756c0.221,0.285,0.417,0.588,0.638,0.904
			c0.29-0.052,0.618-0.111,0.773,0.281c0.105,0.266,0.016,0.491-0.201,0.641c-0.205,0.146-0.453,0.121-0.63-0.049
			c-0.225-0.215-0.232-0.481,0.014-0.804c-0.638-0.338-1.233-0.719-1.878-0.976c-0.864-0.345-1.399-0.19-2.057,0.4
			c0.408,0.537,0.866,1.036,1.204,1.606c0.515,0.869,0.557,1.812,0.229,2.777c-0.263,0.781-0.686,1.452-1.265,2.031
			C45.174,31.119,45.166,31.107,45.162,31.096z"/>
		<path fill-rule="evenodd" clip-rule="evenodd" d="M29.417,8.999c-0.49-0.307-0.55-0.456-0.437-1.022
			c0.062-0.313,0.096-0.632,0.149-0.989c-0.563,0.266-0.843,0.696-0.732,1.033c-0.286-0.284-0.57-0.567-0.855-0.851
			c0.222,0.083,0.368,0.061,0.541-0.132c0.357-0.398,0.753-0.762,1.144-1.127c0.183-0.17,0.269-0.34,0.094-0.574
			c0.026-0.015,0.053-0.03,0.079-0.045c0.416,0.472,0.864,0.923,1.229,1.433c0.104,0.144,0.028,0.49-0.074,0.689
			c-0.125,0.247-0.396,0.329-0.685,0.226c-0.062-0.021-0.124-0.043-0.235-0.082C29.56,8.053,29.486,8.532,29.417,8.999z
			 M29.948,6.046c-0.267,0.269-0.453,0.484-0.671,0.663c-0.172,0.141-0.116,0.273,0.013,0.336c0.174,0.086,0.431,0.197,0.563,0.127
			c0.187-0.098,0.379-0.339,0.408-0.542C30.283,6.464,30.072,6.263,29.948,6.046z"/>
		<path fill-rule="evenodd" clip-rule="evenodd" d="M50.231,31.925c-0.079,0.052-0.152,0.126-0.24,0.154
			c-0.53,0.174-1.071,0.322-1.599,0.508c-0.227,0.08-0.324,0.011-0.391-0.19c-0.107-0.32-0.236-0.635-0.315-0.962
			c-0.021-0.088,0.09-0.278,0.182-0.312c0.543-0.202,1.099-0.369,1.649-0.553c0.188-0.063,0.317-0.012,0.38,0.174
			c0.113,0.333,0.219,0.666,0.323,1.001C50.237,31.796,50.228,31.852,50.231,31.925z"/>
		<path fill-rule="evenodd" clip-rule="evenodd" d="M52.1,29.25c-0.072,0.024-0.177,0.095-0.272,0.084
			c-0.584-0.066-1.166-0.153-1.749-0.227c-0.234-0.03-0.279-0.173-0.251-0.373c0.049-0.314,0.102-0.629,0.147-0.944
			c0.025-0.181,0.107-0.284,0.304-0.253c0.591,0.093,1.186,0.18,1.774,0.29c0.077,0.013,0.197,0.143,0.191,0.212
			C52.217,28.422,52.156,28.802,52.1,29.25z"/>
		<path fill-rule="evenodd" clip-rule="evenodd" d="M42.95,16.591c-0.296-0.159-0.567-0.301-0.835-0.45
			c-0.205-0.115-0.268-0.255-0.13-0.484c0.254-0.419,0.485-0.854,0.718-1.285c0.21-0.387,0.27-0.409,0.658-0.198
			c0.221,0.121,0.46,0.221,0.655,0.375c0.098,0.079,0.198,0.299,0.156,0.385c-0.257,0.517-0.56,1.011-0.836,1.519
			C43.23,16.648,43.112,16.712,42.95,16.591z"/>
		<path fill-rule="evenodd" clip-rule="evenodd" d="M40.771,15.896c-0.002,0.033,0.001,0.141-0.014,0.247
			c-0.047,0.357-0.089,0.716-0.161,1.069c-0.02,0.083-0.158,0.211-0.23,0.203c-0.628-0.067-1.256-0.15-1.878-0.258
			c-0.07-0.013-0.163-0.209-0.154-0.313c0.024-0.338,0.081-0.673,0.149-1.005c0.017-0.078,0.129-0.201,0.186-0.195
			C39.318,15.709,39.966,15.796,40.771,15.896z"/>
		<path fill-rule="evenodd" clip-rule="evenodd" d="M46.104,16.915c-0.076-0.715-0.144-1.332-0.212-1.951
			c-0.02-0.182,0.006-0.324,0.241-0.339c0.348-0.021,0.696-0.047,1.043-0.095c0.198-0.027,0.26,0.069,0.274,0.228
			c0.058,0.573,0.104,1.148,0.16,1.723c0.02,0.201-0.047,0.312-0.262,0.328C46.94,16.837,46.533,16.877,46.104,16.915z"/>
		<path fill-rule="evenodd" clip-rule="evenodd" d="M49.201,17.22c0.083-0.034,0.181-0.113,0.266-0.101
			c0.616,0.09,1.227,0.192,1.838,0.313c0.063,0.012,0.152,0.158,0.146,0.236c-0.031,0.361-0.074,0.723-0.157,1.075
			c-0.02,0.089-0.206,0.209-0.304,0.197c-0.595-0.071-1.188-0.174-1.777-0.282c-0.067-0.013-0.172-0.127-0.169-0.187
			C49.081,18.07,49.141,17.671,49.201,17.22z"/>
		<path fill-rule="evenodd" clip-rule="evenodd" d="M36.948,17.888c-0.216,0.694-0.395,1.304-0.606,1.901
			c-0.034,0.096-0.233,0.214-0.329,0.195c-0.342-0.07-0.671-0.195-1.005-0.296c-0.17-0.051-0.21-0.161-0.159-0.32
			c0.182-0.573,0.358-1.147,0.552-1.716c0.022-0.072,0.146-0.179,0.196-0.166C36.045,17.604,36.487,17.748,36.948,17.888z"/>
		<path fill-rule="evenodd" clip-rule="evenodd" d="M53.068,24.067c0.029,0.145,0.09,0.291,0.077,0.43
			c-0.037,0.482-0.106,0.959-0.153,1.438c-0.033,0.353-0.144,0.45-0.505,0.402c-0.272-0.036-0.545-0.101-0.818-0.11
			c-0.234-0.007-0.289-0.121-0.265-0.31c0.069-0.586,0.141-1.173,0.228-1.756c0.013-0.083,0.122-0.221,0.181-0.218
			C52.207,23.965,52.601,24.017,53.068,24.067z"/>
		<path fill-rule="evenodd" clip-rule="evenodd" d="M53.531,21.519c-0.059,0.038-0.109,0.08-0.165,0.11
			c-0.517,0.262-1.037,0.517-1.549,0.788c-0.207,0.11-0.319,0.06-0.414-0.141c-0.125-0.263-0.27-0.519-0.405-0.776
			c-0.114-0.218-0.099-0.382,0.152-0.503c0.48-0.229,0.954-0.475,1.426-0.724c0.199-0.105,0.36-0.097,0.468,0.112
			c0.152,0.287,0.298,0.579,0.437,0.873C53.516,21.333,53.514,21.427,53.531,21.519z"/>
		<path fill-rule="evenodd" clip-rule="evenodd" d="M38.033,58.494c0.709,0.29,0.459,0.85,0.386,1.36
			c-0.028,0.201-0.054,0.402-0.08,0.602c0.034,0.018,0.073,0.037,0.108,0.055c0.257-0.274,0.515-0.551,0.795-0.854
			c0.173,0.165,0.382,0.362,0.593,0.565c-0.415,0.083-1.749,1.396-1.847,1.872c-0.396-0.432-0.777-0.815-1.122-1.232
			c-0.197-0.239-0.169-0.625,0.029-0.825c0.205-0.204,0.444-0.328,0.741-0.161c0.045,0.026,0.103,0.02,0.193,0.037
			C37.899,59.427,37.968,58.956,38.033,58.494z M38.338,60.605c-0.46-0.44-0.689-0.472-0.981-0.134
			c-0.287,0.332-0.234,0.584,0.202,0.913C37.815,61.125,38.077,60.865,38.338,60.605z"/>
		<path fill-rule="evenodd" clip-rule="evenodd" d="M45.178,31.129c0.026,0.146,0.082,0.295,0.072,0.438
			c-0.018,0.271-0.232,0.444-0.452,0.409c-0.274-0.042-0.433-0.237-0.404-0.489c0.03-0.263,0.247-0.405,0.55-0.369
			c0.07,0.01,0.145-0.014,0.219-0.022C45.166,31.107,45.174,31.119,45.178,31.129z"/>
		<path fill-rule="evenodd" clip-rule="evenodd" fill="#FFFFFF" d="M29.948,6.046c0.124,0.217,0.335,0.417,0.313,0.584
			c-0.028,0.202-0.221,0.443-0.408,0.542c-0.132,0.07-0.389-0.041-0.563-0.127c-0.129-0.063-0.185-0.195-0.013-0.336
			C29.495,6.531,29.681,6.315,29.948,6.046z"/>
		<path fill-rule="evenodd" clip-rule="evenodd" fill="#FFFFFF" d="M38.338,60.605c-0.261,0.26-0.522,0.52-0.779,0.779
			c-0.437-0.329-0.489-0.581-0.202-0.913C37.648,60.134,37.878,60.165,38.338,60.605z"/>
	</g>
	<g>
		<path fill-rule="evenodd" clip-rule="evenodd" fill="#E03D2A" d="M30.993,0c1.755,0,3.51,0,5.265,0
			c0.091,0.114,0.091,0.114,0.28,0.129c1.422,0.111,2.828,0.325,4.221,0.627c4.758,1.034,9.104,2.994,12.99,5.925
			c6.313,4.761,10.486,10.976,12.506,18.624c0.585,2.209,0.912,4.462,1.017,6.747c0.006,0.106-0.079,0.27,0.11,0.323
			c0,0.878,0,1.755,0,2.633c-0.104,0.103-0.106,0.103-0.114,0.291c-0.052,1.294-0.189,2.579-0.403,3.857
			c-1.117,6.68-3.981,12.506-8.578,17.475c-3.178,3.435-6.924,6.078-11.213,7.95c-3.393,1.479-6.933,2.375-10.623,2.682
			c-0.088,0.008-0.243-0.069-0.258,0.12c-1.711,0-3.422,0-5.133,0c-0.018-0.187-0.171-0.109-0.262-0.119
			c-0.512-0.061-1.026-0.093-1.536-0.161c-4.282-0.567-8.325-1.874-12.083-4.007c-6.762-3.839-11.663-9.347-14.686-16.514
			c-1.252-2.967-2.023-6.06-2.371-9.26C0.114,37.249,0.187,37.095,0,37.113c0-2.281,0-4.563,0-6.844
			c0.177-0.01,0.118-0.153,0.127-0.242c0.11-1.048,0.27-2.088,0.485-3.117c1.242-5.933,3.865-11.175,7.912-15.69
			c4.017-4.479,8.895-7.661,14.604-9.556c2.473-0.821,5.016-1.328,7.615-1.542C30.83,0.115,30.983,0.189,30.993,0z M34.221,58.96
			c1.027-0.001,2.64-0.149,4.236-0.464c4.05-0.798,7.689-2.487,10.927-5.051c0.247-0.195,0.213-0.283,0.016-0.48
			c-11.688-11.68-23.373-23.363-35.051-35.053c-0.23-0.23-0.326-0.191-0.504,0.04c-4.902,6.369-6.584,13.512-4.848,21.342
			C11.558,50.829,21.828,58.958,34.221,58.96z M58.895,33.707c-0.003-1.265-0.086-2.522-0.282-3.769
			c-0.935-5.959-3.6-11.021-8.105-15.023c-5.829-5.179-12.68-7.235-20.414-6.233c-4.478,0.58-8.479,2.342-12.043,5.105
			c-0.385,0.299-0.382,0.303-0.038,0.647C29.65,26.071,41.288,37.71,52.927,49.348c0.295,0.296,0.298,0.298,0.559-0.037
			C57.051,44.72,58.835,39.513,58.895,33.707z"/>
	</g>
</g>
</svg>
