<?xml version="1.0" encoding="utf-8"?>
<!-- Generator: Adobe Illustrator 16.0.0, SVG Export Plug-In . SVG Version: 6.00 Build 0)  -->
<!DOCTYPE svg PUBLIC "-//W3C//DTD SVG 1.1//EN" "http://www.w3.org/Graphics/SVG/1.1/DTD/svg11.dtd">
<svg version="1.1" id="Capa_1" xmlns="http://www.w3.org/2000/svg" xmlns:xlink="http://www.w3.org/1999/xlink" x="0px" y="0px"
	 width="255.355px" height="130.537px" viewBox="0 0 255.355 130.537" enable-background="new 0 0 255.355 130.537"
	 xml:space="preserve">
<g>
	<ellipse fill-rule="evenodd" clip-rule="evenodd" fill="#42210B" cx="127.678" cy="79.849" rx="127.678" ry="50.688"/>
	<g>
		<g>
			
				<rect x="46.846" y="33.896" transform="matrix(0.3835 -0.9235 0.9235 0.3835 -13.7963 101.1233)" fill="#FFFFFF" stroke="#1C1C1B" stroke-miterlimit="10" width="44.001" height="53.999"/>
			<text transform="matrix(0.3835 -0.9235 0.9235 0.3835 54.4551 74.3213)" font-family="'Roboto-Light'" font-size="15.3525">5</text>
			<path fill="#1C1C1B" d="M68.789,56.199c-0.441,3.195,2.581,5.955,5.848,5.322c0.628-0.118,1.415-0.461,1.906-0.837
				c0.48-0.366,1.014-0.546,1.879-0.614c0.514-0.053,1.433-0.047,1.538-0.004c0.025,0.01-0.22,0.064-0.547,0.132
				c-2.591,0.486-4.165,2.937-3.51,5.454c0.232,0.887,0.868,1.863,1.649,2.503c0.323,0.267,0.545,0.39,1.189,0.664
				c0.836,0.348,1.209,0.429,1.948,0.438c1.04,0.008,2.247-0.413,3.019-1.05c1.626-1.356,2.053-3.654,1.017-5.512
				c-0.141-0.255-0.336-0.557-0.441-0.677c-0.263-0.32-0.122-0.246,0.3,0.154c0.525,0.488,1.037,1.128,1.322,1.654
				c0.65,1.172,0.843,2.754,0.5,4.012c-0.072,0.242-0.115,0.453-0.109,0.471c0.008,0.017,0.978-2.301,2.158-5.146
				c1.181-2.841,2.117-5.146,2.076-5.123c-0.042,0.035-0.113,0.141-0.157,0.244c-0.132,0.316-0.806,1.117-1.277,1.508
				c-0.788,0.657-1.877,1.129-2.911,1.25c-0.471,0.061-1.499,0.078-1.515,0.027c-0.009-0.016,0.208-0.072,0.483-0.119
				c0.895-0.172,1.799-0.697,2.476-1.432c0.315-0.344,0.386-0.463,0.691-1.199c0.309-0.741,0.342-0.874,0.362-1.338
				c0.072-1.586-0.584-3.002-1.869-4.024c-0.344-0.269-0.559-0.39-1.211-0.663c-0.722-0.29-0.857-0.324-1.455-0.365
				c-1.89-0.133-3.523,0.697-4.455,2.264c-0.794,1.35-0.702,3.197,0.238,4.615c0.16,0.236,0.273,0.429,0.255,0.42
				c-0.08-0.031-0.608-0.564-0.899-0.9c-0.453-0.525-0.813-1.145-0.988-1.711c-0.349-1.098-0.708-1.863-1.113-2.336
				c-0.559-0.67-1.09-1.047-1.938-1.406c-1.102-0.47-2.12-0.545-3.245-0.232c-0.679,0.193-1.098,0.406-1.666,0.865
				C69.494,54.19,68.936,55.173,68.789,56.199z"/>
		</g>
		<g>
			
				<rect x="66.954" y="17.72" transform="matrix(0.8512 -0.5248 0.5248 0.8512 -10.2352 53.3323)" fill="#FFFFFF" stroke="#1C1C1B" stroke-miterlimit="10" width="44" height="54"/>
			<text transform="matrix(0.8512 -0.5248 0.5248 0.8512 69.3887 47.2256)" font-family="'Roboto-Light'" font-size="15.3525">5</text>
			<path fill="#1C1C1B" d="M91.654,40.877c-2.228,2.335-1.389,6.34,1.631,7.736c0.578,0.271,1.417,0.453,2.034,0.436
				c0.604-0.014,1.143,0.15,1.885,0.602c0.446,0.259,1.189,0.8,1.249,0.896c0.015,0.023-0.216-0.076-0.52-0.213
				c-2.387-1.121-5.097-0.055-6.037,2.371c-0.332,0.857-0.386,2.02-0.127,2.994c0.107,0.406,0.215,0.636,0.577,1.235
				c0.475,0.771,0.729,1.056,1.323,1.495c0.84,0.615,2.063,0.979,3.063,0.914c2.112-0.148,3.802-1.764,4.049-3.877
				c0.034-0.287,0.053-0.646,0.038-0.809c-0.027-0.41,0.045-0.27,0.152,0.303c0.142,0.703,0.181,1.521,0.104,2.115
				c-0.157,1.33-0.925,2.725-1.939,3.547c-0.2,0.152-0.358,0.299-0.364,0.318c-0.003,0.017,2.137-1.295,4.761-2.912
				c2.619-1.615,4.728-2.938,4.681-2.941c-0.055,0.002-0.175,0.047-0.27,0.105c-0.293,0.18-1.308,0.434-1.918,0.475
				c-1.025,0.074-2.183-0.182-3.094-0.689c-0.417-0.225-1.262-0.813-1.245-0.861c0.003-0.019,0.212,0.064,0.463,0.186
				c0.827,0.385,1.867,0.486,2.845,0.287c0.457-0.095,0.584-0.15,1.263-0.568c0.683-0.422,0.789-0.51,1.076-0.874
				c0.987-1.245,1.283-2.777,0.837-4.356c-0.119-0.422-0.225-0.645-0.594-1.246c-0.416-0.658-0.505-0.766-0.967-1.148
				c-1.454-1.213-3.267-1.495-4.937-0.768c-1.434,0.629-2.44,2.182-2.507,3.881c-0.009,0.286-0.028,0.508-0.04,0.49
				c-0.045-0.072-0.161-0.814-0.201-1.256c-0.061-0.691,0.01-1.404,0.198-1.968c0.359-1.092,0.516-1.925,0.465-2.544
				c-0.063-0.871-0.273-1.486-0.751-2.274c-0.617-1.026-1.401-1.683-2.497-2.087c-0.662-0.242-1.127-0.312-1.857-0.271
				C93.402,39.659,92.374,40.13,91.654,40.877z"/>
		</g>
		<g>
			
				<rect x="85.87" y="5.838" transform="matrix(0.9596 -0.2812 0.2812 0.9596 -5.0017 31.8199)" fill="#FFFFFF" stroke="#1C1C1B" stroke-miterlimit="10" width="44.999" height="55"/>
			<text transform="matrix(0.9596 -0.2812 0.2812 0.9596 88.0498 29.9717)" font-family="'Roboto-Light'" font-size="15.3525">6</text>
			<path fill="#FF0909" d="M108.242,33.025c-1.401,0.836-2.192,2.381-2.217,4.295c-0.008,0.444,0.032,0.66,0.262,1.439
				c0.255,0.867,0.285,0.947,0.64,1.443c0.957,1.348,1.973,2.16,5.372,4.294c2.143,1.349,2.996,1.937,3.942,2.728
				c1.458,1.217,2.535,2.635,2.911,3.852c0.103,0.328,0.132,0.374,0.127,0.219c-0.006-0.116-0.05-0.352-0.092-0.525
				c-0.18-0.684-0.152-2.014,0.083-3.123c0.307-1.504,0.739-2.594,2.523-6.35c1.079-2.275,1.54-3.48,1.752-4.607
				c0.226-1.184,0.203-1.934-0.088-2.928c-0.446-1.527-1.365-2.643-2.739-3.334c-1.725-0.869-3.793-0.457-5.026,1
				c-0.274,0.328-0.687,1.061-0.865,1.525c-0.151,0.408-0.294,1.324-0.283,1.835l0.013,0.46l-0.24-0.396
				c-0.134-0.216-0.422-0.592-0.644-0.83C112.189,32.404,109.942,31.997,108.242,33.025z"/>
		</g>
		<g>
			
				<rect x="113.385" y="5.234" transform="matrix(0.9847 0.1742 -0.1742 0.9847 7.6942 -23.1817)" fill="#FFFFFF" stroke="#1C1C1B" stroke-miterlimit="10" width="44.998" height="54"/>
			<path fill="#050703" d="M140.885,33.627c-1.052,1.127-3.004,3.068-3.8,3.767c-0.954,0.843-3.247,2.435-5.657,3.933l-0.466,0.289
				l0.992,1.285c1.318,1.719,2.721,3.722,3.209,4.6c0.495,0.887,1.461,2.922,2.208,4.65c0.315,0.721,0.586,1.318,0.604,1.32
				c0.021,0.004,0.518-0.498,1.121-1.124c1.218-1.271,2.588-2.626,3.355-3.321c0.671-0.605,2.551-1.949,4.224-3.023
				c0.724-0.461,1.466-0.939,1.648-1.055l0.323-0.213l-0.938-1.205c-1.475-1.895-2.934-4.004-3.464-5.021
				c-0.565-1.089-1.544-3.172-2.15-4.601c-0.242-0.567-0.453-1.032-0.474-1.036C141.602,32.867,141.273,33.205,140.885,33.627z"/>
			<text transform="matrix(0.9847 0.1742 -0.1742 0.9847 119.625 19.5576)" font-family="'Roboto-Light'" font-size="15.3525">7</text>
		</g>
		<g>
			
				<rect x="133.308" y="14.185" transform="matrix(0.8393 0.5436 -0.5436 0.8393 47.6917 -78.0002)" fill="#FFFFFF" stroke="#1C1C1B" stroke-miterlimit="10" width="44.998" height="55"/>
			<text transform="matrix(0.8393 0.5436 -0.5436 0.8393 145.3008 25.8301)" font-family="'Roboto-Light'" font-size="15.3525">8</text>
			<path fill="#1C1C1B" d="M160.578,43.297c-3.065-1.012-6.322,1.467-6.289,4.795c0.004,0.639,0.201,1.473,0.48,2.025
				c0.273,0.537,0.354,1.095,0.268,1.957c-0.045,0.514-0.213,1.418-0.274,1.516c-0.017,0.021-0.023-0.229-0.029-0.564
				c-0.015-2.635-2.14-4.625-4.735-4.433c-0.915,0.065-1.989,0.521-2.758,1.17c-0.324,0.274-0.482,0.468-0.867,1.051
				c-0.493,0.759-0.642,1.114-0.782,1.839c-0.196,1.021,0.002,2.281,0.487,3.156c1.041,1.846,3.224,2.679,5.239,1.992
				c0.273-0.09,0.605-0.228,0.748-0.311c0.356-0.199,0.261-0.076-0.206,0.268c-0.578,0.432-1.301,0.816-1.867,1
				c-1.271,0.432-2.861,0.336-4.037-0.229c-0.226-0.113-0.426-0.195-0.441-0.191c-0.021,0.004,2.082,1.373,4.672,3.05
				c2.582,1.671,4.684,3.009,4.664,2.966c-0.024-0.048-0.118-0.139-0.21-0.2c-0.288-0.188-0.952-0.995-1.253-1.528
				c-0.508-0.893-0.773-2.051-0.705-3.092c0.024-0.471,0.195-1.486,0.244-1.492c0.019-0.006,0.034,0.217,0.029,0.501
				c0.01,0.907,0.363,1.892,0.965,2.69c0.279,0.37,0.386,0.461,1.055,0.893c0.674,0.438,0.799,0.497,1.252,0.602
				c1.546,0.356,3.058-0.035,4.291-1.115c0.331-0.29,0.487-0.479,0.871-1.073c0.416-0.657,0.475-0.784,0.625-1.364
				c0.471-1.834-0.055-3.591-1.426-4.789c-1.185-1.023-3.019-1.266-4.584-0.598c-0.262,0.113-0.469,0.191-0.458,0.172
				c0.045-0.068,0.666-0.493,1.047-0.721c0.6-0.352,1.273-0.592,1.863-0.663c1.14-0.144,1.958-0.359,2.496-0.673
				c0.759-0.428,1.226-0.884,1.732-1.656c0.663-0.994,0.919-1.984,0.814-3.148c-0.066-0.703-0.202-1.152-0.552-1.796
				C162.428,44.354,161.563,43.624,160.578,43.297z"/>
		</g>
		<g>
			
				<rect x="157.173" y="38.152" transform="matrix(0.5427 0.8399 -0.8399 0.5427 136.8803 -121.1168)" fill="#FFFFFF" stroke="#1C1C1B" stroke-miterlimit="10" width="45" height="54"/>
			<text transform="matrix(0.5427 0.8399 -0.8399 0.5427 176.6523 45.0693)" font-family="'Roboto-Light'" font-size="15.3525">9</text>
			<path fill="#FF0909" d="M179.424,65.34c-1.201-1.107-2.91-1.424-4.751-0.904c-0.429,0.117-0.622,0.221-1.304,0.66
				c-0.76,0.493-0.829,0.545-1.204,1.023c-1.019,1.303-1.507,2.506-2.587,6.374c-0.682,2.437-1.001,3.425-1.487,4.555
				c-0.755,1.745-1.807,3.183-2.868,3.888c-0.284,0.193-0.32,0.232-0.172,0.184c0.111-0.04,0.32-0.148,0.475-0.239
				c0.605-0.366,1.888-0.717,3.016-0.806c1.533-0.133,2.702-0.032,6.81,0.607c2.491,0.387,3.772,0.486,4.916,0.369
				c1.195-0.12,1.91-0.355,2.777-0.918c1.34-0.863,2.146-2.06,2.419-3.572c0.343-1.902-0.643-3.769-2.389-4.536
				c-0.393-0.171-1.213-0.356-1.709-0.394c-0.432-0.029-1.353,0.096-1.844,0.251l-0.433,0.143l0.312-0.345
				c0.17-0.189,0.448-0.574,0.613-0.851C181.139,68.944,180.89,66.676,179.424,65.34z"/>
		</g>
	</g>
</g>
</svg>
