<?xml version="1.0" encoding="utf-8"?>
<!-- Generator: Adobe Illustrator 16.0.0, SVG Export Plug-In . SVG Version: 6.00 Build 0)  -->
<!DOCTYPE svg PUBLIC "-//W3C//DTD SVG 1.1//EN" "http://www.w3.org/Graphics/SVG/1.1/DTD/svg11.dtd">
<svg version="1.1" id="Capa_1" xmlns="http://www.w3.org/2000/svg" xmlns:xlink="http://www.w3.org/1999/xlink" x="0px" y="0px"
	 width="1280px" height="640px" viewBox="0 0 1280 640" enable-background="new 0 0 1280 640" xml:space="preserve">
<g transform="translate(0.000000,640.000000) scale(0.100000,-0.100000)">
	<path fill="#1C1C1B" d="M4630,4657.001C4502.998,4461,4262.998,4120,4162.998,3995c-120-151.001-420-448.999-740-735.996
		l-61.997-55l181.997-166.006c242.002-220.996,504.004-482.998,600-600.996c97.002-119.004,295-397.002,452.002-635
		c65.996-99.004,122.002-181.006,125-181.006s64.004,88.008,137.002,197.002C5005,2040,5174.003,2277.998,5270,2402.002
		C5354.003,2510,5599.003,2760,5820,2964.004c95.996,87.998,194.004,178.994,217.998,200.996l42.998,40l-171.992,155
		c-270,243.999-543.008,520-649.004,657.998C5147.001,4165,4945.996,4450,4817.998,4647.001
		c-50.996,77.998-95,141.997-97.998,141.997S4677.001,4730,4630,4657.001z"/>
	<path fill="#1C1C1B" d="M7912.001,4770c-472.998-123.999-682.998-707.002-405-1127.002C7560,3562.001,7654.003,3472.001,7735,3425
		c79.004-45.996,135-110,195-227.002c37.002-68.994,90-197.998,90-215c0-3.994-22.002,27.002-50,69.004
		c-219.004,333.994-652.998,411.997-967.002,173.994c-110.996-83.994-210-230-253.994-375.996
		c-19.004-60.996-23.008-99.004-24.004-205c0-137.002,10-194.004,52.002-297.998c58.994-146.006,187.998-290,322.002-361.006
		c283.994-148.994,630-75,830,178.008c26.992,33.994,57.998,78.994,68.994,100.996c29.004,55,27.002,30.996-3.994-50.996
		c-38.008-102.002-98.008-211.006-155-281.006C7712.998,1774.004,7502.998,1655,7307.001,1630c-37.998-4.004-70-10-72.002-12.002
		s377.998-2.998,845-2.998c465.996,0,842.998,2.998,837.001,7.002c-7.002,3.994-26.006,7.998-42.998,7.998
		c-52.002,0-203.008,47.998-285,90.996c-138.008,72.002-267.002,197.002-344.004,335c-35.996,62.002-97.998,205-92.001,210
		c2.002,2.002,22.002-25,45-60.996c76.006-115,202.002-210.996,344.004-262.998c65.996-24.004,87.002-27.002,207.998-27.002
		s142.002,2.998,207.998,27.002c226.006,82.002,386.006,255.996,454.004,495c17.998,63.994,22.002,100.996,22.002,207.998
		c-1.006,117.998-4.004,139.004-32.998,225c-91.006,272.002-302.002,452.002-575.01,490.996
		c-235,33.008-487.998-86.992-631.992-300.996C8170,3024.004,8150,2997.002,8150,3000c0,12.998,44.003,117.998,74.003,177.998
		c46.992,94.004,112.998,180,181.992,237.998c133.008,112.002,219.004,207.002,262.002,291.006
		c61.006,116.997,82.998,212.998,84.004,352.998c2.002,181.001-47.002,327.998-156.006,467.002
		c-65.996,83.999-120.996,130-217.998,182.998C8234.003,4787.998,8064.003,4808.999,7912.001,4770z"/>
	<path fill="#1C1C1B" d="M10614.003,4770c-239.004-62.002-420-252.998-505-530c-20-63.999-22.998-97.002-22.998-220
		c0-137.002,0.996-150,30.996-237.002c82.002-236.997,195-397.998,597.998-852.998c254.004-287.002,352.998-409.004,457.002-564.004
		c160-238.994,255.996-490.996,258.994-683.994c1.006-52.002,3.008-60,9.004-37.002c4.004,17.002,7.998,52.998,9.004,80
		c2.998,107.002,63.994,299.004,145,450c108.994,205.996,217.998,345.996,636.992,815.996
		c254.004,285,372.002,440.005,451.006,595.005c82.998,161.997,112.002,271.997,112.002,428.999
		c0,241.001-86.006,442.002-256.006,601.001c-213.994,200-532.002,227.998-772.998,68.999c-54.004-36.001-145-125-190.996-185
		c-39.004-52.998-99.004-180-119.004-255l-17.998-67.002l-17.998,68.003c-10,36.997-36.006,103.999-58.008,147.998
		C11214.003,4692.001,10904.999,4847.001,10614.003,4770z"/>
	<path fill="#1C1C1B" d="M1357.002,4707.001C1341.001,4545,1268.999,4361,1153.999,4190
		C1042.002,4022.998,937.002,3903.999,525,3480c-297.002-305.996-426.001-482.998-488.999-672.998
		c-85-254.004,13.999-570,231.997-742.002c123.003-97.998,266.001-147.998,422.002-149.004c115,0,193.999,19.004,308.999,75
		c100,49.004,218.999,160,271.001,252.002c17.998,32.002,33.999,56.006,36.001,54.004c1.997-2.002-8.003-34.004-21.001-72.998
		c-87.002-241.006-237.002-416.006-438.999-514.004c-91.001-44.004-212.002-80-268.003-80c-20,0-38.999-2.998-40.996-7.002
		c-3.003-5,371.997-7.998,832.998-7.998s837.002,0.996,835,2.998c-1.001,2.002-32.002,7.002-68.999,12.998
		c-80,11.006-168.003,40-261.001,86.006c-197.002,97.998-342.002,265-430,498.994c-35,92.002-31.001,99.004,12.002,25
		c131.997-221.992,410.996-358.994,657.998-321.992c168.999,25,293.999,90,412.002,213.994
		c115.996,122.002,178.999,269.004,190,437.998c18.999,305-105,511.006-627.002,1044.004
		c-146.001,147.998-297.998,307.002-337.998,352.002C1515,4238.999,1395,4473.999,1371.001,4715l-7.002,70L1357.002,4707.001z"/>
</g>
</svg>
