<?xml version="1.0" encoding="utf-8"?>
<!-- Generator: Adobe Illustrator 16.0.0, SVG Export Plug-In . SVG Version: 6.00 Build 0)  -->
<!DOCTYPE svg PUBLIC "-//W3C//DTD SVG 1.1//EN" "http://www.w3.org/Graphics/SVG/1.1/DTD/svg11.dtd">
<svg version="1.1" id="Capa_1" xmlns="http://www.w3.org/2000/svg" xmlns:xlink="http://www.w3.org/1999/xlink" x="0px" y="0px"
	 width="224px" height="71px" viewBox="0 0 224 71" enable-background="new 0 0 224 71" xml:space="preserve">
<g>
	<g>
		<g>
			<rect x="69.5" y="0.5" fill="#FFFFFF" stroke="#1C1C1B" stroke-miterlimit="10" width="59" height="70"/>
			<path fill="#050703" d="M105.715,36.12c-1.086,1.677-3.137,4.593-3.992,5.66c-1.026,1.291-3.59,3.837-6.326,6.291l-0.529,0.472
				l1.555,1.417c2.069,1.89,4.309,4.13,5.129,5.138c0.83,1.018,2.521,3.395,3.864,5.429c0.565,0.847,1.042,1.549,1.069,1.549
				c0.026,0,0.547-0.753,1.171-1.685c1.267-1.898,2.709-3.934,3.53-4.993c0.719-0.923,2.813-3.06,4.703-4.805
				c0.819-0.751,1.657-1.53,1.862-1.718l0.367-0.342l-1.47-1.326c-2.309-2.084-4.642-4.444-5.547-5.623
				c-0.966-1.256-2.684-3.693-3.779-5.377c-0.437-0.667-0.812-1.215-0.837-1.215C106.458,34.992,106.116,35.498,105.715,36.12z"/>
			<text transform="matrix(1 0 0 1 75.3789 22.9072)" font-family="'Roboto-Light'" font-size="19.8744">3</text>
		</g>
		<g>
			<rect x="0.5" y="0.5" fill="#FFFFFF" stroke="#1C1C1B" stroke-miterlimit="10" width="59" height="70"/>
			<text transform="matrix(1 0 0 1 6.8994 24.1875)" font-family="'Roboto-Light'" font-size="19.8744">3</text>
			<path fill="#1C1C1B" d="M35.775,32.348c-4.043,1.061-5.838,6.043-3.461,9.635c0.453,0.692,1.255,1.461,1.947,1.863
				c0.675,0.392,1.155,0.939,1.667,1.939c0.316,0.59,0.769,1.692,0.769,1.839c0,0.034-0.187-0.231-0.428-0.591
				c-1.871-2.854-5.581-3.521-8.265-1.486c-0.949,0.719-1.795,1.966-2.173,3.213c-0.161,0.523-0.196,0.848-0.204,1.753
				c0,1.171,0.086,1.659,0.444,2.548c0.505,1.247,1.607,2.479,2.752,3.086c2.429,1.273,5.386,0.641,7.095-1.521
				c0.231-0.291,0.497-0.675,0.591-0.865c0.248-0.469,0.23-0.264-0.035,0.438c-0.325,0.871-0.838,1.803-1.325,2.401
				c-1.078,1.36-2.873,2.376-4.547,2.591c-0.325,0.033-0.599,0.086-0.616,0.104c-0.017,0.018,3.231,0.024,7.224,0.024
				c3.984,0,7.205-0.024,7.155-0.06c-0.06-0.035-0.224-0.068-0.367-0.068c-0.445,0-1.736-0.41-2.437-0.778
				c-1.18-0.614-2.282-1.684-2.941-2.864c-0.307-0.529-0.838-1.752-0.787-1.795c0.018-0.018,0.189,0.215,0.385,0.523
				c0.65,0.982,1.726,1.803,2.94,2.247c0.564,0.205,0.744,0.229,1.777,0.229c1.037,0,1.215-0.024,1.779-0.229
				c1.933-0.702,3.3-2.188,3.881-4.232c0.154-0.546,0.189-0.862,0.189-1.777c-0.01-1.008-0.035-1.188-0.283-1.923
				c-0.777-2.324-2.583-3.865-4.917-4.197c-2.008-0.283-4.171,0.744-5.402,2.572c-0.204,0.308-0.375,0.539-0.375,0.513
				c0-0.11,0.375-1.007,0.633-1.521c0.401-0.804,0.965-1.538,1.555-2.034c1.138-0.957,1.874-1.77,2.24-2.486
				c0.521-1,0.708-1.823,0.717-3.018c0.019-1.548-0.401-2.806-1.333-3.993c-0.564-0.718-1.033-1.112-1.863-1.565
				C38.528,32.193,37.076,32.014,35.775,32.348z"/>
		</g>
	</g>
	<g>
		<g>
			<rect x="183.5" y="22.5" fill="#FFFFFF" stroke="#1C1C1B" stroke-miterlimit="10" width="40" height="48"/>
			<text transform="matrix(1 0 0 1 187.3418 38.4648)" font-family="'Roboto-Light'" font-size="13.5284">2</text>
			<path fill="#FF0909" d="M203.713,46.074c-1.391,0.361-2.443,1.473-2.938,3.084c-0.117,0.373-0.135,0.564-0.135,1.28
				c0,0.798,0.008,0.873,0.181,1.38c0.478,1.378,1.136,2.315,3.479,4.963c1.478,1.67,2.055,2.379,2.66,3.281
				c0.93,1.392,1.489,2.857,1.506,3.98c0.006,0.303,0.019,0.35,0.053,0.215c0.023-0.1,0.047-0.309,0.053-0.465
				c0.018-0.623,0.371-1.74,0.844-2.619c0.634-1.197,1.269-2.014,3.707-4.748c1.477-1.657,2.164-2.561,2.623-3.461
				c0.484-0.943,0.652-1.584,0.652-2.496c0-1.402-0.5-2.572-1.49-3.498c-1.244-1.164-3.096-1.326-4.498-0.4
				c-0.313,0.209-0.844,0.727-1.111,1.076c-0.226,0.308-0.575,1.047-0.691,1.482l-0.104,0.39l-0.106-0.395
				c-0.058-0.216-0.208-0.606-0.337-0.861C207.205,46.529,205.406,45.627,203.713,46.074z"/>
		</g>
		<g>
			<rect x="135.5" y="22.5" fill="#FFFFFF" stroke="#1C1C1B" stroke-miterlimit="10" width="40" height="48"/>
			<text transform="matrix(1 0 0 1 139.4219 38.4648)" font-family="'Roboto-Light'" font-size="13.5284">2</text>
			<path fill="#FF0909" d="M155.793,46.074c-1.392,0.361-2.443,1.473-2.938,3.084c-0.117,0.373-0.134,0.564-0.134,1.28
				c0,0.798,0.006,0.873,0.18,1.38c0.478,1.378,1.135,2.315,3.48,4.963c1.477,1.67,2.054,2.379,2.658,3.281
				c0.932,1.392,1.49,2.857,1.508,3.98c0.006,0.303,0.018,0.35,0.052,0.215c0.023-0.1,0.046-0.309,0.053-0.465
				c0.018-0.623,0.372-1.74,0.844-2.619c0.634-1.197,1.269-2.014,3.706-4.748c1.478-1.657,2.165-2.561,2.625-3.461
				c0.482-0.943,0.651-1.584,0.651-2.496c0-1.402-0.501-2.572-1.489-3.498c-1.246-1.164-3.096-1.326-4.498-0.4
				c-0.314,0.209-0.844,0.727-1.111,1.076c-0.227,0.308-0.576,1.047-0.693,1.482l-0.104,0.39l-0.105-0.395
				c-0.059-0.216-0.209-0.606-0.338-0.861C159.283,46.529,157.486,45.627,155.793,46.074z"/>
		</g>
	</g>
</g>
</svg>
