<?xml version="1.0" encoding="utf-8"?>
<!-- Generator: Adobe Illustrator 16.0.0, SVG Export Plug-In . SVG Version: 6.00 Build 0)  -->
<!DOCTYPE svg PUBLIC "-//W3C//DTD SVG 1.1//EN" "http://www.w3.org/Graphics/SVG/1.1/DTD/svg11.dtd">
<svg version="1.1" id="Capa_1" xmlns="http://www.w3.org/2000/svg" xmlns:xlink="http://www.w3.org/1999/xlink" x="0px" y="0px"
	 width="240px" height="71px" viewBox="0 0 240 71" enable-background="new 0 0 240 71" xml:space="preserve">
<g>
	<g>
		<rect x="151.5" y="21.5" fill="#FFFFFF" stroke="#1C1C1B" stroke-miterlimit="10" width="41" height="49"/>
		<path fill="#FF0909" d="M171.754,45.334c-1.427,0.369-2.506,1.509-3.013,3.161c-0.12,0.382-0.138,0.579-0.138,1.313
			c0,0.816,0.007,0.895,0.186,1.414c0.488,1.412,1.163,2.374,3.567,5.089c1.515,1.712,2.106,2.44,2.726,3.364
			c0.955,1.426,1.527,2.929,1.545,4.08c0.007,0.311,0.02,0.358,0.054,0.221c0.024-0.102,0.048-0.316,0.054-0.477
			c0.019-0.639,0.382-1.785,0.865-2.686c0.65-1.229,1.301-2.063,3.801-4.867c1.514-1.699,2.219-2.625,2.69-3.549
			c0.495-0.967,0.668-1.624,0.668-2.56c0-1.438-0.513-2.638-1.527-3.587c-1.276-1.192-3.174-1.359-4.611-0.41
			c-0.322,0.214-0.866,0.744-1.14,1.104c-0.232,0.315-0.59,1.073-0.71,1.52l-0.106,0.4l-0.109-0.405
			c-0.059-0.222-0.213-0.621-0.346-0.883C175.333,45.8,173.49,44.875,171.754,45.334z"/>
		<text transform="matrix(1 0 0 1 155.5293 36.8545)" font-family="'Roboto-Light'" font-size="13.8702">7</text>
	</g>
	<g>
		<rect x="198.5" y="21.5" fill="#FFFFFF" stroke="#1C1C1B" stroke-miterlimit="10" width="41" height="49"/>
		<path fill="#050703" d="M223.599,46.076c-0.759,1.17-2.19,3.205-2.786,3.95c-0.717,0.901-2.506,2.678-4.416,4.391l-0.369,0.329
			l1.086,0.988c1.443,1.319,3.007,2.883,3.579,3.586c0.579,0.71,1.76,2.369,2.696,3.789c0.395,0.59,0.729,1.08,0.746,1.08
			c0.019,0,0.383-0.524,0.817-1.176c0.884-1.324,1.891-2.744,2.464-3.484c0.502-0.644,1.963-2.135,3.281-3.354
			c0.572-0.523,1.157-1.067,1.301-1.198l0.256-0.239l-1.025-0.924c-1.611-1.455-3.239-3.103-3.872-3.926
			c-0.675-0.876-1.873-2.577-2.638-3.752c-0.304-0.466-0.565-0.848-0.584-0.848C224.117,45.289,223.879,45.642,223.599,46.076z"/>
		<text transform="matrix(1 0 0 1 202.4277 36.8545)" font-family="'Roboto-Light'" font-size="13.8702">7</text>
	</g>
	<g>
		<rect x="0.5" y="0.5" fill="#FFFFFF" stroke="#1C1C1B" stroke-miterlimit="10" width="59" height="70"/>
		<text transform="matrix(1 0 0 1 7.3906 23.8682)" font-family="'Roboto-Light'" font-size="19.8398">K</text>
		<path fill="#1C1C1B" d="M36.215,32.014c-4.037,1.059-5.829,6.033-3.456,9.619c0.452,0.69,1.253,1.458,1.944,1.858
			c0.674,0.392,1.153,0.938,1.665,1.937c0.316,0.59,0.768,1.689,0.768,1.836c0,0.033-0.186-0.23-0.427-0.589
			c-1.868-2.851-5.572-3.515-8.251-1.485c-0.947,0.718-1.792,1.963-2.168,3.209c-0.161,0.521-0.196,0.846-0.204,1.749
			c0,1.169,0.086,1.655,0.443,2.543c0.504,1.245,1.604,2.476,2.748,3.081c2.424,1.271,5.377,0.641,7.083-1.52
			c0.231-0.29,0.496-0.674,0.59-0.863c0.247-0.467,0.229-0.262-0.035,0.438c-0.324,0.869-0.836,1.799-1.322,2.396
			c-1.076,1.357-2.868,2.373-4.54,2.587c-0.324,0.032-0.598,0.085-0.615,0.103c-0.017,0.018,3.226,0.025,7.211,0.025
			c3.977,0,7.192-0.025,7.143-0.061c-0.06-0.035-0.223-0.067-0.367-0.067c-0.444,0-1.733-0.411-2.432-0.777
			c-1.178-0.614-2.278-1.681-2.936-2.858c-0.306-0.529-0.836-1.75-0.785-1.792c0.018-0.018,0.188,0.214,0.384,0.521
			c0.649,0.981,1.724,1.8,2.935,2.243c0.563,0.205,0.743,0.23,1.774,0.23c1.035,0,1.213-0.025,1.776-0.23
			c1.929-0.701,3.294-2.185,3.875-4.225c0.153-0.545,0.188-0.861,0.188-1.774c-0.01-1.006-0.035-1.186-0.282-1.919
			c-0.776-2.321-2.578-3.859-4.908-4.19c-2.005-0.282-4.164,0.742-5.393,2.567c-0.204,0.308-0.375,0.538-0.375,0.512
			c0-0.109,0.375-1.006,0.631-1.518c0.401-0.803,0.963-1.537,1.552-2.031c1.136-0.955,1.871-1.767,2.236-2.482
			c0.521-0.998,0.708-1.82,0.716-3.013c0.019-1.545-0.401-2.8-1.332-3.985c-0.563-0.717-1.031-1.111-1.859-1.563
			C38.962,31.86,37.513,31.681,36.215,32.014z"/>
	</g>
	<g>
		<rect x="68.5" y="0.5" fill="#FFFFFF" stroke="#1C1C1B" stroke-miterlimit="10" width="59" height="70"/>
		<text transform="matrix(1 0 0 1 74.4736 23.8682)" font-family="'Roboto-Light'" font-size="19.8398">K</text>
		<path fill="#FF0909" d="M98.482,35.029c-2.04,0.528-3.584,2.158-4.309,4.521c-0.172,0.547-0.197,0.828-0.197,1.878
			c0,1.169,0.01,1.28,0.265,2.022c0.7,2.021,1.665,3.396,5.104,7.28c2.166,2.448,3.012,3.489,3.899,4.812
			c1.365,2.04,2.185,4.189,2.21,5.838c0.009,0.443,0.026,0.511,0.076,0.314c0.035-0.146,0.068-0.452,0.077-0.682
			c0.026-0.914,0.545-2.553,1.238-3.842c0.93-1.756,1.861-2.951,5.436-6.963c2.167-2.43,3.175-3.754,3.849-5.076
			c0.708-1.381,0.956-2.321,0.956-3.66c0-2.057-0.734-3.772-2.185-5.13c-1.825-1.706-4.54-1.945-6.596-0.588
			c-0.46,0.308-1.238,1.065-1.63,1.579c-0.332,0.451-0.845,1.535-1.016,2.174l-0.152,0.572l-0.156-0.578
			c-0.085-0.318-0.306-0.89-0.494-1.264C103.602,35.695,100.966,34.372,98.482,35.029z"/>
	</g>
</g>
</svg>
