<?xml version="1.0" encoding="utf-8"?>
<!-- Generator: Adobe Illustrator 16.0.0, SVG Export Plug-In . SVG Version: 6.00 Build 0)  -->
<!DOCTYPE svg PUBLIC "-//W3C//DTD SVG 1.1//EN" "http://www.w3.org/Graphics/SVG/1.1/DTD/svg11.dtd">
<svg version="1.1" id="Capa_1" xmlns="http://www.w3.org/2000/svg" xmlns:xlink="http://www.w3.org/1999/xlink" x="0px" y="0px"
	 width="187px" height="146px" viewBox="0 0 187 146" enable-background="new 0 0 187 146" xml:space="preserve">
<g>
	<g>
		<g>
			<rect x="95.5" y="0.5" fill="#FFFFFF" stroke="#1C1C1B" stroke-miterlimit="10" width="46" height="55"/>
			<text transform="matrix(1 0 0 1 100.5 18.8965)" font-family="'Roboto-Light'" font-size="15.5269">K</text>
			<path fill="#1C1C1B" d="M123.059,25.271c-3.158,0.828-4.561,4.722-2.703,7.527c0.354,0.541,0.98,1.142,1.521,1.455
				c0.527,0.307,0.902,0.734,1.303,1.516c0.246,0.461,0.6,1.322,0.6,1.437c0,0.026-0.145-0.181-0.334-0.461
				c-1.461-2.23-4.359-2.751-6.457-1.162c-0.74,0.562-1.402,1.536-1.697,2.511c-0.125,0.408-0.152,0.662-0.158,1.369
				c0,0.915,0.066,1.296,0.346,1.99c0.395,0.975,1.256,1.938,2.15,2.411c1.898,0.995,4.209,0.501,5.543-1.188
				c0.182-0.228,0.389-0.527,0.463-0.676c0.193-0.366,0.18-0.206-0.027,0.342c-0.254,0.681-0.654,1.408-1.035,1.876
				c-0.842,1.063-2.244,1.856-3.553,2.024c-0.254,0.025-0.469,0.066-0.482,0.08c-0.012,0.014,2.525,0.02,5.645,0.02
				c3.111,0,5.629-0.02,5.59-0.047c-0.047-0.027-0.176-0.053-0.287-0.053c-0.348,0-1.357-0.321-1.904-0.608
				c-0.922-0.48-1.783-1.315-2.297-2.237c-0.24-0.414-0.654-1.369-0.615-1.402c0.014-0.014,0.148,0.167,0.301,0.408
				c0.508,0.768,1.35,1.408,2.297,1.756c0.441,0.16,0.582,0.18,1.389,0.18c0.811,0,0.949-0.02,1.391-0.18
				c1.51-0.549,2.578-1.71,3.031-3.307c0.121-0.427,0.148-0.674,0.148-1.389c-0.008-0.787-0.027-0.928-0.221-1.502
				c-0.607-1.816-2.018-3.02-3.842-3.279c-1.568-0.221-3.258,0.581-4.221,2.01c-0.158,0.24-0.293,0.421-0.293,0.4
				c0-0.086,0.293-0.787,0.494-1.188c0.314-0.628,0.754-1.202,1.215-1.589c0.889-0.748,1.465-1.383,1.75-1.943
				c0.408-0.781,0.555-1.424,0.561-2.357c0.016-1.209-0.313-2.191-1.041-3.119c-0.441-0.561-0.807-0.869-1.455-1.223
				C125.209,25.151,124.074,25.011,123.059,25.271z"/>
		</g>
		<g>
			<rect x="65.5" y="28.5" fill="#FFFFFF" stroke="#1C1C1B" stroke-miterlimit="10" width="46" height="55"/>
			<text transform="matrix(1 0 0 1 70 46.8965)" font-family="'Roboto-Light'" font-size="15.5269">K</text>
			<path fill="#FF0909" d="M88.791,55.631c-1.598,0.414-2.805,1.689-3.373,3.539c-0.135,0.428-0.154,0.648-0.154,1.47
				c0,0.915,0.008,1.002,0.207,1.583c0.549,1.582,1.303,2.658,3.994,5.697c1.695,1.916,2.357,2.73,3.053,3.766
				c1.068,1.597,1.709,3.279,1.729,4.568c0.008,0.348,0.021,0.4,0.061,0.247c0.027-0.114,0.053-0.354,0.061-0.534
				c0.02-0.715,0.426-1.998,0.969-3.006c0.727-1.375,1.455-2.311,4.254-5.449c1.695-1.902,2.484-2.938,3.012-3.973
				c0.555-1.082,0.748-1.817,0.748-2.865c0-1.609-0.574-2.952-1.711-4.015c-1.428-1.335-3.553-1.522-5.162-0.46
				c-0.359,0.24-0.969,0.834-1.275,1.235c-0.26,0.354-0.66,1.202-0.795,1.702l-0.119,0.447l-0.121-0.453
				c-0.066-0.248-0.24-0.695-0.387-0.988C92.797,56.152,90.734,55.117,88.791,55.631z"/>
		</g>
		<g>
			<rect x="32.5" y="63.5" fill="#FFFFFF" stroke="#1C1C1B" stroke-miterlimit="10" width="46" height="55"/>
			<text transform="matrix(1 0 0 1 37.5 81.8965)" font-family="'Roboto-Light'" font-size="15.5269">K</text>
			<path fill="#1C1C1B" d="M60.059,88.271c-3.158,0.828-4.561,4.722-2.703,7.527c0.354,0.541,0.98,1.142,1.521,1.455
				c0.527,0.307,0.902,0.734,1.303,1.516c0.246,0.461,0.6,1.322,0.6,1.437c0,0.026-0.145-0.181-0.334-0.461
				c-1.461-2.23-4.359-2.751-6.457-1.162c-0.74,0.562-1.402,1.536-1.697,2.511c-0.125,0.408-0.152,0.662-0.158,1.369
				c0,0.915,0.066,1.296,0.346,1.99c0.395,0.975,1.256,1.938,2.15,2.411c1.898,0.995,4.209,0.501,5.543-1.188
				c0.182-0.228,0.389-0.527,0.463-0.676c0.193-0.366,0.18-0.206-0.027,0.342c-0.254,0.681-0.654,1.408-1.035,1.876
				c-0.842,1.063-2.244,1.856-3.553,2.024c-0.254,0.025-0.469,0.066-0.482,0.08c-0.012,0.014,2.525,0.02,5.645,0.02
				c3.111,0,5.629-0.02,5.59-0.047c-0.047-0.027-0.176-0.053-0.287-0.053c-0.348,0-1.357-0.321-1.904-0.608
				c-0.922-0.48-1.783-1.315-2.297-2.237c-0.24-0.414-0.654-1.369-0.615-1.402c0.014-0.014,0.148,0.167,0.301,0.408
				c0.508,0.768,1.35,1.408,2.297,1.756c0.441,0.16,0.582,0.18,1.389,0.18c0.811,0,0.949-0.02,1.391-0.18
				c1.51-0.549,2.578-1.71,3.031-3.307c0.121-0.427,0.148-0.674,0.148-1.389c-0.008-0.787-0.027-0.928-0.221-1.502
				c-0.607-1.816-2.018-3.02-3.842-3.279c-1.568-0.221-3.258,0.581-4.221,2.01c-0.158,0.24-0.293,0.421-0.293,0.4
				c0-0.086,0.293-0.787,0.494-1.188c0.314-0.628,0.754-1.202,1.215-1.589c0.889-0.748,1.465-1.383,1.75-1.943
				c0.408-0.781,0.555-1.424,0.561-2.357c0.016-1.209-0.313-2.191-1.041-3.119c-0.441-0.561-0.807-0.869-1.455-1.223
				C62.209,88.151,61.074,88.011,60.059,88.271z"/>
		</g>
		<g>
			<rect x="0.5" y="90.5" fill="#FFFFFF" stroke="#1C1C1B" stroke-miterlimit="10" width="46" height="55"/>
			<text transform="matrix(1 0 0 1 5 108.8965)" font-family="'Roboto-Light'" font-size="15.5269">K</text>
			<path fill="#FF0909" d="M23.791,117.631c-1.598,0.414-2.805,1.689-3.373,3.539c-0.135,0.428-0.154,0.648-0.154,1.47
				c0,0.915,0.008,1.002,0.207,1.583c0.549,1.582,1.303,2.658,3.994,5.697c1.695,1.916,2.357,2.73,3.053,3.766
				c1.068,1.597,1.709,3.279,1.729,4.568c0.008,0.348,0.021,0.4,0.061,0.247c0.027-0.114,0.053-0.354,0.061-0.534
				c0.02-0.715,0.426-1.998,0.969-3.006c0.727-1.375,1.455-2.311,4.254-5.449c1.695-1.902,2.484-2.938,3.012-3.973
				c0.555-1.082,0.748-1.817,0.748-2.865c0-1.609-0.574-2.952-1.711-4.015c-1.428-1.335-3.553-1.522-5.162-0.46
				c-0.359,0.24-0.969,0.834-1.275,1.235c-0.26,0.354-0.66,1.202-0.795,1.702l-0.119,0.447l-0.121-0.453
				c-0.066-0.248-0.24-0.695-0.387-0.988C27.797,118.152,25.734,117.117,23.791,117.631z"/>
		</g>
	</g>
	<g>
		<g>
			<rect x="160.5" y="60.5" fill="#FFFFFF" stroke="#1C1C1B" stroke-miterlimit="10" width="26" height="31"/>
			<path fill="#050703" d="M176.503,76.279c-0.477,0.735-1.376,2.016-1.751,2.483c-0.45,0.566-1.575,1.684-2.775,2.761l-0.232,0.206
				l0.683,0.622c0.907,0.829,1.89,1.813,2.25,2.254c0.364,0.446,1.105,1.49,1.695,2.382c0.247,0.372,0.457,0.68,0.469,0.68
				s0.24-0.33,0.514-0.739c0.556-0.832,1.188-1.726,1.549-2.19c0.315-0.405,1.233-1.343,2.063-2.108
				c0.359-0.329,0.727-0.671,0.816-0.753l0.161-0.15l-0.645-0.581c-1.013-0.915-2.036-1.951-2.434-2.468
				c-0.424-0.552-1.178-1.62-1.658-2.358c-0.191-0.293-0.355-0.533-0.367-0.533S176.68,76.006,176.503,76.279z"/>
			<text transform="matrix(1 0 0 1 163.1934 70.4824)" font-family="'Roboto-Light'" font-size="8.7197">7</text>
		</g>
		<g>
			<rect x="143.5" y="76.5" fill="#FFFFFF" stroke="#1C1C1B" stroke-miterlimit="10" width="26" height="31"/>
			<path fill="#FF0909" d="M156.827,91.537c-0.896,0.232-1.575,0.949-1.894,1.987c-0.076,0.24-0.087,0.364-0.087,0.825
				c0,0.515,0.004,0.563,0.116,0.89c0.308,0.888,0.731,1.493,2.243,3.199c0.952,1.076,1.323,1.533,1.714,2.114
				c0.6,0.897,0.96,1.842,0.971,2.566c0.004,0.195,0.012,0.225,0.034,0.139c0.015-0.064,0.03-0.199,0.033-0.301
				c0.012-0.4,0.24-1.121,0.544-1.688c0.409-0.772,0.818-1.298,2.39-3.061c0.952-1.068,1.396-1.65,1.691-2.23
				c0.312-0.607,0.42-1.021,0.42-1.609c0-0.903-0.322-1.658-0.96-2.254c-0.803-0.75-1.996-0.855-2.899-0.259
				c-0.202,0.135-0.544,0.468-0.716,0.693c-0.146,0.199-0.372,0.676-0.447,0.956l-0.066,0.252l-0.068-0.255
				c-0.037-0.14-0.135-0.391-0.218-0.556C159.077,91.83,157.918,91.249,156.827,91.537z"/>
			<text transform="matrix(1 0 0 1 146.627 86.207)" font-family="'Roboto-Light'" font-size="8.7197">7</text>
		</g>
		<g>
			<rect x="126.5" y="89.5" fill="#FFFFFF" stroke="#1C1C1B" stroke-miterlimit="10" width="26" height="30"/>
			<path fill="#FF0909" d="M139.418,103.893c-0.896,0.232-1.575,0.948-1.894,1.987c-0.076,0.24-0.087,0.364-0.087,0.825
				c0,0.514,0.004,0.563,0.116,0.889c0.308,0.889,0.731,1.493,2.243,3.199c0.952,1.076,1.324,1.534,1.714,2.115
				c0.6,0.896,0.96,1.842,0.971,2.565c0.004,0.195,0.012,0.226,0.034,0.139c0.015-0.063,0.029-0.199,0.033-0.3
				c0.012-0.401,0.24-1.122,0.545-1.688c0.408-0.772,0.817-1.298,2.389-3.061c0.952-1.068,1.395-1.65,1.691-2.231
				c0.312-0.607,0.42-1.021,0.42-1.608c0-0.904-0.322-1.658-0.961-2.255c-0.802-0.75-1.994-0.854-2.898-0.259
				c-0.202,0.135-0.544,0.469-0.716,0.694c-0.146,0.198-0.372,0.675-0.447,0.956l-0.066,0.251l-0.068-0.255
				c-0.038-0.139-0.135-0.391-0.218-0.555C141.668,104.186,140.509,103.604,139.418,103.893z"/>
			<text transform="matrix(1 0 0 1 129.2178 98.5625)" font-family="'Roboto-Light'" font-size="8.7197">7</text>
		</g>
		<g>
			<rect x="109.5" y="103.5" fill="#FFFFFF" stroke="#1C1C1B" stroke-miterlimit="10" width="25" height="31"/>
			<path fill="#050703" d="M124.837,118.96c-0.477,0.735-1.376,2.015-1.751,2.483c-0.45,0.566-1.575,1.684-2.775,2.76l-0.232,0.207
				l0.682,0.622c0.908,0.829,1.891,1.812,2.251,2.254c0.364,0.446,1.106,1.489,1.695,2.382c0.247,0.371,0.457,0.68,0.469,0.68
				s0.24-0.33,0.514-0.739c0.556-0.833,1.188-1.726,1.549-2.19c0.315-0.404,1.233-1.343,2.063-2.108
				c0.359-0.329,0.727-0.671,0.816-0.753l0.161-0.15l-0.645-0.582c-1.013-0.914-2.036-1.949-2.434-2.467
				c-0.424-0.551-1.178-1.621-1.658-2.359c-0.191-0.293-0.355-0.533-0.367-0.533S125.014,118.688,124.837,118.96z"/>
			<text transform="matrix(1 0 0 1 111.5273 113.1631)" font-family="'Roboto-Light'" font-size="8.7197">7</text>
		</g>
	</g>
</g>
</svg>
