<?xml version="1.0" encoding="utf-8"?>
<!-- Generator: Adobe Illustrator 16.0.0, SVG Export Plug-In . SVG Version: 6.00 Build 0)  -->
<!DOCTYPE svg PUBLIC "-//W3C//DTD SVG 1.1//EN" "http://www.w3.org/Graphics/SVG/1.1/DTD/svg11.dtd">
<svg version="1.1" id="Capa_1" xmlns="http://www.w3.org/2000/svg" xmlns:xlink="http://www.w3.org/1999/xlink" x="0px" y="0px"
	 width="117px" height="75px" viewBox="0 0 117 75" enable-background="new 0 0 117 75" xml:space="preserve">
<g>
	<g>
		<rect x="0.5" y="0.5" fill="#FFFFFF" stroke="#1C1C1B" stroke-miterlimit="10" width="60" height="72"/>
		<text transform="matrix(1 0 0 1 7.0229 24.9082)" font-family="'Roboto-Light'" font-size="20.2524">4</text>
		<path fill="#1C1C1B" d="M39.723,37.279c-1.107,1.709-3.197,4.68-4.068,5.768c-1.046,1.316-3.658,3.91-6.447,6.411l-0.539,0.48
			l1.584,1.444c2.108,1.926,4.391,4.209,5.227,5.235c0.846,1.036,2.569,3.46,3.937,5.532c0.576,0.861,1.063,1.578,1.089,1.578
			c0.026,0,0.558-0.768,1.193-1.717c1.291-1.934,2.76-4.008,3.597-5.088c0.732-0.939,2.866-3.118,4.792-4.896
			c0.835-0.766,1.689-1.559,1.898-1.75l0.375-0.35l-1.498-1.35c-2.353-2.125-4.729-4.529-5.653-5.73
			c-0.985-1.281-2.735-3.765-3.851-5.479c-0.444-0.681-0.827-1.238-0.853-1.238C40.479,36.131,40.132,36.645,39.723,37.279z"/>
	</g>
	<g>
		<rect x="75.5" y="25.5" fill="#FFFFFF" stroke="#1C1C1B" stroke-miterlimit="10" width="41" height="49"/>
		<text transform="matrix(1 0 0 1 79.5439 41.9834)" font-family="'Roboto-Light'" font-size="13.9545">8</text>
		<path fill="#FF0909" d="M96.432,49.832c-1.435,0.373-2.521,1.52-3.03,3.182c-0.121,0.384-0.139,0.582-0.139,1.32
			c0,0.822,0.007,0.9,0.187,1.423c0.492,1.422,1.17,2.389,3.589,5.121c1.524,1.722,2.119,2.453,2.743,3.384
			c0.96,1.435,1.537,2.947,1.555,4.105c0.006,0.313,0.018,0.359,0.053,0.222c0.025-0.103,0.049-0.318,0.055-0.48
			c0.019-0.642,0.384-1.795,0.871-2.701c0.653-1.235,1.309-2.076,3.822-4.896c1.523-1.71,2.233-2.642,2.707-3.571
			c0.498-0.972,0.672-1.633,0.672-2.574c0-1.447-0.516-2.654-1.536-3.608c-1.284-1.199-3.192-1.368-4.64-0.413
			c-0.324,0.216-0.871,0.749-1.146,1.11c-0.232,0.317-0.594,1.08-0.714,1.529l-0.107,0.401l-0.109-0.406
			c-0.06-0.224-0.215-0.625-0.348-0.889C100.033,50.301,98.179,49.371,96.432,49.832z"/>
	</g>
</g>
</svg>
