<?xml version="1.0" encoding="utf-8"?>
<!-- Generator: Adobe Illustrator 16.0.0, SVG Export Plug-In . SVG Version: 6.00 Build 0)  -->
<!DOCTYPE svg PUBLIC "-//W3C//DTD SVG 1.1//EN" "http://www.w3.org/Graphics/SVG/1.1/DTD/svg11.dtd">
<svg version="1.1" id="Capa_1" xmlns="http://www.w3.org/2000/svg" xmlns:xlink="http://www.w3.org/1999/xlink" x="0px" y="0px"
	 width="257px" height="56px" viewBox="0 0 257 56" enable-background="new 0 0 257 56" xml:space="preserve">
<g>
	<rect x="0.5" y="0.5" fill="#FFFFFF" stroke="#1C1C1B" stroke-miterlimit="10" width="46" height="55"/>
	<text transform="matrix(1 0 0 1 5.5 18.3965)" font-family="'Roboto-Light'" font-size="15.5269">8</text>
	<rect x="53.5" y="0.5" fill="#FFFFFF" stroke="#1C1C1B" stroke-miterlimit="10" width="46" height="55"/>
	<text transform="matrix(1 0 0 1 58 18.3965)" font-family="'Roboto-Light'" font-size="15.5269">8</text>
	<rect x="105.5" y="0.5" fill="#FFFFFF" stroke="#1C1C1B" stroke-miterlimit="10" width="46" height="55"/>
	<text transform="matrix(1 0 0 1 110.5 18.3965)" font-family="'Roboto-Light'" font-size="15.5269">8</text>
	<rect x="158.5" y="0.5" fill="#FFFFFF" stroke="#1C1C1B" stroke-miterlimit="10" width="46" height="55"/>
	<text transform="matrix(1 0 0 1 163 18.3965)" font-family="'Roboto-Light'" font-size="15.5269">2</text>
	<rect x="210.5" y="0.5" fill="#FFFFFF" stroke="#1C1C1B" stroke-miterlimit="10" width="46" height="55"/>
	<text transform="matrix(1 0 0 1 215.5 18.3965)" font-family="'Roboto-Light'" font-size="15.5269">10</text>
	<path fill="#050703" d="M133.59,27.946c-3.158,0.828-4.561,4.722-2.703,7.527c0.354,0.541,0.98,1.143,1.521,1.455
		c0.527,0.307,0.902,0.734,1.303,1.516c0.246,0.461,0.6,1.322,0.6,1.438c0,0.025-0.145-0.182-0.334-0.461
		c-1.461-2.23-4.359-2.752-6.457-1.162c-0.74,0.561-1.402,1.535-1.697,2.51c-0.125,0.408-0.152,0.662-0.158,1.369
		c0,0.916,0.066,1.297,0.346,1.99c0.395,0.975,1.256,1.938,2.15,2.412c1.898,0.994,4.209,0.5,5.543-1.189
		c0.182-0.227,0.389-0.527,0.463-0.676c0.193-0.365,0.18-0.205-0.027,0.342c-0.254,0.682-0.654,1.408-1.035,1.877
		c-0.842,1.063-2.244,1.855-3.553,2.023c-0.254,0.025-0.469,0.066-0.482,0.08c-0.012,0.014,2.525,0.02,5.645,0.02
		c3.111,0,5.629-0.02,5.59-0.047c-0.047-0.027-0.176-0.053-0.287-0.053c-0.348,0-1.357-0.32-1.904-0.607
		c-0.922-0.48-1.783-1.316-2.297-2.238c-0.24-0.414-0.654-1.369-0.615-1.402c0.014-0.014,0.148,0.168,0.301,0.408
		c0.508,0.768,1.35,1.408,2.297,1.756c0.441,0.16,0.582,0.18,1.389,0.18c0.811,0,0.949-0.02,1.391-0.18
		c1.51-0.549,2.578-1.709,3.031-3.307c0.121-0.426,0.148-0.674,0.148-1.389c-0.008-0.787-0.027-0.928-0.221-1.502
		c-0.607-1.816-2.018-3.02-3.842-3.279c-1.568-0.221-3.258,0.582-4.221,2.01c-0.158,0.24-0.293,0.422-0.293,0.4
		c0-0.086,0.293-0.787,0.494-1.188c0.314-0.629,0.754-1.203,1.215-1.59c0.889-0.748,1.465-1.383,1.75-1.943
		c0.408-0.781,0.555-1.424,0.561-2.357c0.016-1.209-0.313-2.191-1.041-3.119c-0.441-0.561-0.807-0.869-1.455-1.222
		C135.74,27.826,134.605,27.685,133.59,27.946z"/>
	<path fill="#050703" d="M187.035,27.946c-3.158,0.828-4.561,4.722-2.703,7.527c0.354,0.541,0.98,1.143,1.521,1.455
		c0.527,0.307,0.902,0.734,1.303,1.516c0.246,0.461,0.6,1.322,0.6,1.438c0,0.025-0.145-0.182-0.334-0.461
		c-1.461-2.23-4.359-2.752-6.457-1.162c-0.74,0.561-1.402,1.535-1.697,2.51c-0.125,0.408-0.152,0.662-0.158,1.369
		c0,0.916,0.066,1.297,0.346,1.99c0.395,0.975,1.256,1.938,2.15,2.412c1.898,0.994,4.209,0.5,5.543-1.189
		c0.182-0.227,0.389-0.527,0.463-0.676c0.193-0.365,0.18-0.205-0.027,0.342c-0.254,0.682-0.654,1.408-1.035,1.877
		c-0.842,1.063-2.244,1.855-3.553,2.023c-0.254,0.025-0.469,0.066-0.482,0.08c-0.012,0.014,2.525,0.02,5.645,0.02
		c3.111,0,5.629-0.02,5.59-0.047c-0.047-0.027-0.176-0.053-0.287-0.053c-0.348,0-1.357-0.32-1.904-0.607
		c-0.922-0.48-1.783-1.316-2.297-2.238c-0.24-0.414-0.654-1.369-0.615-1.402c0.014-0.014,0.148,0.168,0.301,0.408
		c0.508,0.768,1.35,1.408,2.297,1.756c0.441,0.16,0.582,0.18,1.389,0.18c0.811,0,0.949-0.02,1.391-0.18
		c1.51-0.549,2.578-1.709,3.031-3.307c0.121-0.426,0.148-0.674,0.148-1.389c-0.008-0.787-0.027-0.928-0.221-1.502
		c-0.607-1.816-2.018-3.02-3.842-3.279c-1.568-0.221-3.258,0.582-4.221,2.01c-0.158,0.24-0.293,0.422-0.293,0.4
		c0-0.086,0.293-0.787,0.494-1.188c0.314-0.629,0.754-1.203,1.215-1.59c0.889-0.748,1.465-1.383,1.75-1.943
		c0.408-0.781,0.555-1.424,0.561-2.357c0.016-1.209-0.313-2.191-1.041-3.119c-0.441-0.561-0.807-0.869-1.455-1.222
		C189.186,27.826,188.051,27.685,187.035,27.946z"/>
	<path fill="#050703" d="M82.178,28.646c-0.106,1.082-0.589,2.312-1.355,3.452c-0.748,1.115-1.45,1.91-4.201,4.742
		c-1.983,2.043-2.845,3.226-3.266,4.494c-0.567,1.697,0.094,3.807,1.549,4.955c0.822,0.655,1.777,0.988,2.818,0.996
		c0.769,0,1.296-0.127,2.063-0.501c0.669-0.327,1.464-1.069,1.811-1.683c0.12-0.215,0.228-0.375,0.24-0.361
		c0.014,0.014-0.054,0.227-0.141,0.488c-0.581,1.609-1.582,2.777-2.932,3.432c-0.608,0.295-1.415,0.535-1.79,0.535
		c-0.133,0-0.26,0.02-0.272,0.047c-0.021,0.033,2.483,0.053,5.563,0.053s5.589-0.006,5.576-0.02
		c-0.007-0.014-0.214-0.047-0.461-0.088c-0.534-0.072-1.121-0.267-1.743-0.574c-1.314-0.654-2.283-1.77-2.871-3.332
		c-0.234-0.614-0.208-0.661,0.08-0.167c0.881,1.482,2.744,2.397,4.394,2.15c1.13-0.167,1.963-0.601,2.752-1.429
		c0.774-0.815,1.195-1.797,1.27-2.926c0.126-2.037-0.702-3.412-4.188-6.973c-0.976-0.988-1.991-2.049-2.258-2.35
		c-1.583-1.817-2.384-3.387-2.545-4.996l-0.046-0.467L82.178,28.646z"/>
	<path fill="#FF0909" d="M23.663,28.3c-1.597,0.414-2.805,1.689-3.372,3.539c-0.135,0.428-0.154,0.648-0.154,1.47
		c0,0.915,0.008,1.002,0.207,1.583c0.548,1.582,1.303,2.658,3.994,5.697c1.695,1.916,2.357,2.73,3.052,3.766
		c1.068,1.597,1.71,3.279,1.729,4.568c0.007,0.348,0.021,0.4,0.06,0.247c0.027-0.114,0.054-0.354,0.061-0.534
		c0.021-0.715,0.427-1.998,0.969-3.006c0.728-1.375,1.456-2.311,4.254-5.449c1.695-1.902,2.484-2.938,3.012-3.973
		c0.555-1.082,0.748-1.817,0.748-2.865c0-1.609-0.574-2.952-1.71-4.015c-1.429-1.335-3.553-1.522-5.162-0.46
		c-0.36,0.24-0.969,0.834-1.275,1.235c-0.26,0.354-0.661,1.202-0.795,1.702l-0.119,0.447L29.038,31.8
		c-0.066-0.248-0.239-0.695-0.387-0.988C27.669,28.821,25.606,27.786,23.663,28.3z"/>
	<path fill="#FF0909" d="M238.57,28.6c-0.848,1.31-2.451,3.587-3.119,4.421c-0.801,1.01-2.805,2.998-4.941,4.916l-0.414,0.367
		l1.215,1.107c1.617,1.477,3.367,3.227,4.008,4.014c0.648,0.795,1.969,2.652,3.018,4.242c0.441,0.66,0.814,1.209,0.836,1.209
		c0.02,0,0.428-0.588,0.914-1.316c0.99-1.482,2.117-3.072,2.758-3.9c0.563-0.721,2.197-2.391,3.674-3.754
		c0.641-0.586,1.295-1.195,1.455-1.342l0.287-0.268l-1.148-1.035c-1.803-1.629-3.625-3.473-4.334-4.393
		c-0.754-0.982-2.096-2.887-2.951-4.201c-0.342-0.521-0.635-0.949-0.654-0.949C239.15,27.719,238.885,28.114,238.57,28.6z"/>
</g>
</svg>
