<?xml version="1.0" encoding="utf-8"?>
<!-- Generator: Adobe Illustrator 16.0.0, SVG Export Plug-In . SVG Version: 6.00 Build 0)  -->
<!DOCTYPE svg PUBLIC "-//W3C//DTD SVG 1.1//EN" "http://www.w3.org/Graphics/SVG/1.1/DTD/svg11.dtd">
<svg version="1.1" id="Capa_1" xmlns="http://www.w3.org/2000/svg" xmlns:xlink="http://www.w3.org/1999/xlink" x="0px" y="0px"
	 width="206px" height="131px" viewBox="0 0 206 131" enable-background="new 0 0 206 131" xml:space="preserve">
<g>
	<g>
		<g>
			<rect x="166.5" y="41.5" fill="#FFFFFF" stroke="#1C1C1B" stroke-miterlimit="10" width="39" height="47"/>
			<text transform="matrix(1 0 0 1 170.1377 57.4844)" font-family="'Roboto-Light'" font-size="13.2303">10</text>
			<path fill="#FF0909" d="M186.15,64.927c-1.361,0.353-2.391,1.44-2.875,3.016c-0.114,0.364-0.131,0.553-0.131,1.253
				c0,0.779,0.007,0.854,0.176,1.349c0.468,1.348,1.11,2.265,3.404,4.854c1.444,1.633,2.008,2.326,2.601,3.209
				c0.91,1.359,1.456,2.794,1.473,3.893c0.007,0.296,0.019,0.341,0.052,0.21c0.023-0.097,0.045-0.302,0.052-0.455
				c0.017-0.608,0.362-1.702,0.825-2.562c0.619-1.172,1.24-1.969,3.625-4.643c1.444-1.621,2.117-2.504,2.566-3.385
				c0.473-0.922,0.637-1.549,0.637-2.441c0-1.372-0.489-2.516-1.457-3.422c-1.217-1.137-3.027-1.297-4.398-0.392
				c-0.307,0.204-0.826,0.711-1.087,1.053c-0.222,0.302-0.563,1.024-0.678,1.45l-0.102,0.381l-0.104-0.386
				c-0.056-0.212-0.204-0.593-0.329-0.842C189.563,65.371,187.806,64.489,186.15,64.927z"/>
		</g>
		<g>
			<rect x="138.5" y="62.5" fill="#FFFFFF" stroke="#1C1C1B" stroke-miterlimit="10" width="39" height="47"/>
			<text transform="matrix(1 0 0 1 142.4453 77.9346)" font-family="'Roboto-Light'" font-size="13.2303">10</text>
			<path fill="#1C1C1B" d="M161.667,83.367c-2.69,0.705-3.886,4.023-2.303,6.414c0.301,0.461,0.835,0.973,1.296,1.239
				c0.449,0.261,0.77,0.626,1.11,1.292c0.21,0.393,0.511,1.126,0.511,1.224c0,0.022-0.123-0.154-0.284-0.394
				c-1.245-1.9-3.715-2.344-5.502-0.99c-0.631,0.479-1.195,1.31-1.446,2.141c-0.106,0.348-0.13,0.563-0.135,1.166
				c0,0.779,0.057,1.104,0.295,1.695c0.336,0.831,1.069,1.651,1.832,2.055c1.617,0.848,3.586,0.428,4.723-1.012
				c0.155-0.194,0.331-0.449,0.395-0.576c0.165-0.313,0.153-0.176-0.023,0.291c-0.216,0.58-0.558,1.199-0.882,1.599
				c-0.717,0.905-1.912,1.581-3.027,1.725c-0.216,0.022-0.399,0.058-0.411,0.068c-0.01,0.012,2.152,0.017,4.81,0.017
				c2.651,0,4.797-0.017,4.764-0.04c-0.04-0.022-0.15-0.045-0.245-0.045c-0.296,0-1.156-0.273-1.622-0.519
				c-0.786-0.409-1.52-1.121-1.958-1.906c-0.204-0.353-0.557-1.166-0.523-1.195c0.012-0.012,0.126,0.143,0.256,0.349
				c0.433,0.653,1.15,1.2,1.957,1.496c0.376,0.136,0.496,0.153,1.184,0.153c0.69,0,0.809-0.018,1.185-0.153
				c1.287-0.468,2.197-1.457,2.583-2.817c0.104-0.363,0.127-0.574,0.127-1.184c-0.007-0.67-0.023-0.791-0.188-1.279
				c-0.518-1.549-1.719-2.573-3.273-2.795c-1.337-0.188-2.776,0.495-3.597,1.713c-0.135,0.205-0.249,0.358-0.249,0.341
				c0-0.073,0.249-0.671,0.421-1.013c0.268-0.535,0.643-1.023,1.035-1.354c0.757-0.638,1.248-1.178,1.491-1.656
				c0.348-0.666,0.473-1.213,0.478-2.009c0.013-1.03-0.267-1.867-0.887-2.657c-0.377-0.479-0.688-0.74-1.24-1.042
				C163.5,83.264,162.533,83.145,161.667,83.367z"/>
		</g>
		<g>
			<rect x="111.5" y="83.5" fill="#FFFFFF" stroke="#1C1C1B" stroke-miterlimit="10" width="39" height="47"/>
			<text transform="matrix(1 0 0 1 116.0303 99.2363)" font-family="'Roboto-Light'" font-size="13.2303">10</text>
			<path fill="#1C1C1B" d="M135.253,104.669c-2.691,0.706-3.886,4.023-2.304,6.414c0.302,0.461,0.836,0.973,1.297,1.239
				c0.449,0.262,0.769,0.626,1.109,1.292c0.21,0.393,0.512,1.126,0.512,1.224c0,0.023-0.124-0.154-0.285-0.393
				c-1.245-1.9-3.715-2.344-5.502-0.99c-0.631,0.479-1.195,1.309-1.446,2.14c-0.106,0.348-0.13,0.563-0.135,1.167
				c0,0.779,0.057,1.104,0.295,1.695c0.336,0.83,1.069,1.65,1.832,2.055c1.618,0.848,3.587,0.427,4.724-1.013
				c0.154-0.194,0.331-0.45,0.394-0.576c0.165-0.312,0.153-0.175-0.022,0.292c-0.217,0.58-0.558,1.199-0.883,1.598
				c-0.717,0.906-1.912,1.582-3.027,1.725c-0.216,0.022-0.398,0.057-0.41,0.068c-0.011,0.012,2.151,0.018,4.81,0.018
				c2.65,0,4.796-0.018,4.763-0.041c-0.04-0.022-0.149-0.045-0.245-0.045c-0.296,0-1.156-0.273-1.622-0.518
				c-0.785-0.41-1.52-1.121-1.957-1.906c-0.205-0.354-0.558-1.167-0.524-1.195c0.012-0.012,0.126,0.143,0.256,0.348
				c0.433,0.654,1.15,1.2,1.958,1.496c0.376,0.137,0.495,0.153,1.183,0.153c0.69,0,0.809-0.017,1.186-0.153
				c1.286-0.467,2.196-1.457,2.582-2.817c0.104-0.363,0.127-0.574,0.127-1.183c-0.007-0.672-0.023-0.791-0.188-1.28
				c-0.518-1.548-1.719-2.573-3.273-2.794c-1.336-0.188-2.775,0.494-3.596,1.713c-0.135,0.204-0.25,0.357-0.25,0.34
				c0-0.072,0.25-0.67,0.421-1.012c0.268-0.535,0.643-1.025,1.035-1.354c0.757-0.639,1.248-1.18,1.491-1.656
				c0.348-0.666,0.473-1.213,0.478-2.01c0.014-1.029-0.267-1.867-0.887-2.657c-0.376-0.478-0.688-0.74-1.24-1.042
				C137.085,104.566,136.118,104.447,135.253,104.669z"/>
		</g>
	</g>
	<g>
		<g>
			<rect x="69.5" y="0.5" fill="#FFFFFF" stroke="#1C1C1B" stroke-miterlimit="10" width="54" height="65"/>
			<text transform="matrix(1 0 0 1 74.5508 22.7236)" font-family="'Roboto-Light'" font-size="18.3137">K</text>
			<path fill="#FF0909" d="M96.715,33.025c-1.885,0.489-3.308,1.993-3.979,4.175c-0.158,0.505-0.182,0.765-0.182,1.733
				c0,1.08,0.01,1.182,0.244,1.867c0.647,1.867,1.537,3.136,4.711,6.721c2,2.26,2.781,3.22,3.601,4.441
				c1.261,1.883,2.016,3.867,2.039,5.388c0.009,0.41,0.025,0.472,0.071,0.292c0.032-0.135,0.063-0.418,0.071-0.631
				c0.022-0.843,0.503-2.356,1.143-3.545c0.856-1.622,1.716-2.726,5.018-6.428c1.999-2.244,2.931-3.465,3.552-4.686
				c0.654-1.275,0.883-2.144,0.883-3.379c0-1.898-0.678-3.482-2.018-4.736c-1.685-1.574-4.191-1.795-6.089-0.542
				c-0.424,0.284-1.143,0.983-1.505,1.457c-0.307,0.417-0.778,1.418-0.938,2.008l-0.141,0.528l-0.143-0.535
				c-0.078-0.293-0.283-0.82-0.456-1.166C101.439,33.641,99.008,32.42,96.715,33.025z"/>
		</g>
		<g>
			<rect x="33.5" y="31.5" fill="#FFFFFF" stroke="#1C1C1B" stroke-miterlimit="10" width="55" height="65"/>
			<text transform="matrix(1 0 0 1 39.7559 53.3906)" font-family="'Roboto-Light'" font-size="18.3137">K</text>
			<path fill="#1C1C1B" d="M66.364,60.91c-3.726,0.977-5.38,5.568-3.188,8.878c0.417,0.638,1.156,1.347,1.795,1.716
				c0.621,0.362,1.064,0.867,1.536,1.789c0.29,0.543,0.707,1.559,0.707,1.693c0,0.031-0.171-0.213-0.394-0.543
				c-1.723-2.631-5.143-3.245-7.616-1.371c-0.873,0.662-1.653,1.812-2.002,2.961c-0.147,0.482-0.18,0.781-0.187,1.615
				c0,1.079,0.078,1.528,0.408,2.348c0.465,1.149,1.48,2.285,2.536,2.844c2.239,1.174,4.964,0.591,6.538-1.402
				c0.214-0.268,0.458-0.621,0.545-0.797c0.229-0.432,0.213-0.242-0.031,0.403c-0.3,0.803-0.771,1.661-1.221,2.213
				c-0.994,1.253-2.647,2.189-4.191,2.388c-0.299,0.029-0.553,0.078-0.568,0.094c-0.014,0.017,2.979,0.023,6.657,0.023
				c3.67,0,6.64-0.023,6.593-0.055c-0.055-0.033-0.207-0.063-0.338-0.063c-0.41,0-1.602-0.379-2.246-0.718
				c-1.088-0.566-2.104-1.552-2.709-2.639c-0.283-0.488-0.771-1.614-0.727-1.654c0.017-0.017,0.176,0.197,0.355,0.481
				c0.599,0.906,1.592,1.661,2.709,2.071c0.521,0.188,0.687,0.212,1.638,0.212c0.956,0,1.12-0.023,1.641-0.212
				c1.78-0.647,3.04-2.017,3.575-3.9c0.143-0.503,0.175-0.794,0.175-1.638c-0.009-0.928-0.032-1.094-0.261-1.771
				c-0.716-2.143-2.379-3.562-4.531-3.868c-1.85-0.261-3.842,0.686-4.978,2.37c-0.187,0.284-0.346,0.498-0.346,0.473
				c0-0.102,0.346-0.928,0.583-1.401c0.371-0.741,0.889-1.418,1.433-1.874c1.048-0.883,1.728-1.631,2.064-2.293
				c0.481-0.921,0.653-1.679,0.661-2.779c0.018-1.427-0.369-2.586-1.229-3.68c-0.52-0.661-0.951-1.025-1.716-1.441
				C68.9,60.768,67.563,60.603,66.364,60.91z"/>
		</g>
		<g>
			<rect x="0.5" y="64.5" fill="#FFFFFF" stroke="#1C1C1B" stroke-miterlimit="10" width="55" height="65"/>
			<text transform="matrix(1 0 0 1 6.7305 86.416)" font-family="'Roboto-Light'" font-size="18.3137">K</text>
			<path fill="#1C1C1B" d="M33.338,93.936c-3.725,0.977-5.379,5.568-3.188,8.879c0.417,0.638,1.156,1.346,1.795,1.716
				c0.621,0.361,1.063,0.866,1.536,1.788c0.29,0.543,0.707,1.559,0.707,1.693c0,0.031-0.171-0.213-0.394-0.543
				c-1.724-2.631-5.143-3.245-7.615-1.371c-0.875,0.662-1.654,1.813-2.002,2.961c-0.148,0.482-0.182,0.781-0.188,1.615
				c0,1.08,0.078,1.529,0.408,2.348c0.465,1.149,1.481,2.285,2.536,2.844c2.239,1.174,4.964,0.591,6.538-1.402
				c0.214-0.268,0.458-0.621,0.545-0.797c0.229-0.432,0.213-0.242-0.031,0.404c-0.3,0.803-0.772,1.66-1.222,2.212
				c-0.993,1.253-2.646,2.19-4.19,2.388c-0.3,0.03-0.553,0.078-0.568,0.095c-0.015,0.017,2.979,0.022,6.657,0.022
				c3.67,0,6.64-0.022,6.593-0.055c-0.055-0.032-0.207-0.063-0.338-0.063c-0.41,0-1.602-0.379-2.246-0.717
				c-1.088-0.567-2.104-1.553-2.709-2.64c-0.283-0.488-0.772-1.614-0.727-1.653c0.017-0.017,0.176,0.196,0.355,0.48
				c0.599,0.906,1.592,1.662,2.709,2.071c0.521,0.188,0.687,0.212,1.638,0.212c0.956,0,1.12-0.023,1.64-0.212
				c1.781-0.647,3.041-2.017,3.576-3.899c0.143-0.504,0.175-0.795,0.175-1.639c-0.009-0.928-0.032-1.094-0.261-1.771
				c-0.716-2.143-2.379-3.562-4.531-3.867c-1.85-0.261-3.842,0.685-4.979,2.37c-0.186,0.283-0.345,0.496-0.345,0.472
				c0-0.102,0.345-0.928,0.583-1.401c0.371-0.741,0.889-1.418,1.433-1.874c1.048-0.883,1.728-1.631,2.063-2.292
				c0.482-0.922,0.654-1.68,0.662-2.78c0.018-1.426-0.369-2.586-1.229-3.68c-0.521-0.661-0.951-1.025-1.716-1.441
				C35.875,93.794,34.536,93.628,33.338,93.936z"/>
		</g>
	</g>
</g>
</svg>
